M48
; DRILL file {KiCad (5.1.8)-1} date 11/26/20 11:10:11
; FORMAT={-:-/ absolute / metric / decimal}
; #@! TF.CreationDate,2020-11-26T11:10:11+01:00
; #@! TF.GenerationSoftware,Kicad,Pcbnew,(5.1.8)-1
; #@! TF.FileFunction,Plated,1,2,PTH
FMAT,2
METRIC
T1C0.200
T2C0.920
T3C1.000
T4C1.168
T5C2.330
%
G90
G05
T1
X17.56Y-37.41
X22.97Y-19.19
X24.02Y-38.584
X27.75Y-46.58
X29.596Y-38.572
X31.41Y-43.93
X36.752Y-45.462
X37.0Y-23.386
X39.26Y-38.684
X41.302Y-43.145
X42.93Y-46.54
X43.397Y-43.444
X44.5Y-28.5
X45.24Y-43.35
X45.335Y-38.564
X45.756Y-37.985
X45.844Y-36.437
X46.08Y-42.88
X47.434Y-14.184
X48.594Y-35.912
X49.09Y-38.0
X50.32Y-34.98
X52.053Y-19.226
X53.723Y-46.286
X54.973Y-38.854
X55.569Y-17.6
X56.676Y-24.029
X60.502Y-43.566
X61.466Y-20.0
X64.168Y-16.0
X65.202Y-6.077
X67.601Y-5.523
X67.716Y-15.636
X68.919Y-9.235
X69.988Y-47.755
X70.321Y-46.071
X71.697Y-18.4
X71.773Y-46.553
X73.521Y-46.893
X74.559Y-45.741
X79.026Y-45.286
T2
X10.5Y-18.5
X10.5Y-21.0
X12.5Y-18.5
X12.5Y-21.0
T3
X89.96Y-29.34
X89.96Y-31.88
X89.96Y-34.42
X89.96Y-36.96
X89.96Y-39.5
X92.5Y-29.34
X92.5Y-31.88
X92.5Y-34.42
X92.5Y-36.96
X92.5Y-39.5
X25.5Y-4.5
X28.04Y-4.5
X30.58Y-4.5
X10.0Y-33.0
X10.0Y-35.54
X10.0Y-38.08
X10.0Y-40.62
T4
X75.14Y-8.31
X75.14Y-10.85
X75.14Y-13.39
X75.14Y-15.93
X75.14Y-18.47
X75.14Y-21.01
X75.14Y-23.55
X75.14Y-26.09
X75.14Y-28.63
X75.14Y-31.17
X75.14Y-33.71
X75.14Y-36.25
X75.14Y-38.79
X75.14Y-41.33
X75.14Y-43.87
X80.0Y-8.31
X80.0Y-10.85
X80.0Y-13.39
X80.0Y-15.93
X80.0Y-18.47
X80.0Y-21.01
X80.0Y-23.55
X80.0Y-26.09
X80.0Y-28.63
X80.0Y-31.17
X80.0Y-33.71
X80.0Y-36.25
X80.0Y-38.79
X80.0Y-41.33
X80.0Y-43.86
T5
X7.79Y-13.73
X7.79Y-25.77
T0
M30
