G04 #@! TF.GenerationSoftware,KiCad,Pcbnew,(5.1.8)-1*
G04 #@! TF.CreationDate,2020-11-26T11:10:09+01:00*
G04 #@! TF.ProjectId,MM1_Writer,4d4d315f-5772-4697-9465-722e6b696361,R1*
G04 #@! TF.SameCoordinates,PX4692680PY3938700*
G04 #@! TF.FileFunction,Soldermask,Bot*
G04 #@! TF.FilePolarity,Negative*
%FSLAX46Y46*%
G04 Gerber Fmt 4.6, Leading zero omitted, Abs format (unit mm)*
G04 Created by KiCad (PCBNEW (5.1.8)-1) date 2020-11-26 11:10:09*
%MOMM*%
%LPD*%
G01*
G04 APERTURE LIST*
%ADD10C,2.000000*%
%ADD11C,3.000000*%
%ADD12R,1.700000X1.700000*%
%ADD13C,1.700000*%
%ADD14C,3.500000*%
%ADD15O,1.700000X1.700000*%
G04 APERTURE END LIST*
D10*
X80000000Y-8310000D03*
X75140000Y-8310000D03*
X80000000Y-10850000D03*
X75140000Y-10850000D03*
X80000000Y-13390000D03*
X75140000Y-13390000D03*
X80000000Y-15930000D03*
X75140000Y-15930000D03*
X80000000Y-18470000D03*
X75140000Y-18470000D03*
X80000000Y-21010000D03*
X75140000Y-21010000D03*
X80000000Y-23550000D03*
X75140000Y-23550000D03*
X80000000Y-26090000D03*
X75140000Y-26090000D03*
X80000000Y-28630000D03*
X75140000Y-28630000D03*
X80000000Y-31170000D03*
X75140000Y-31170000D03*
X80000000Y-33710000D03*
X75140000Y-33710000D03*
X80000000Y-36250000D03*
X75140000Y-36250000D03*
X80000000Y-38790000D03*
X75140000Y-38790000D03*
X80000000Y-41330000D03*
X75140000Y-41330000D03*
X80000000Y-43860000D03*
X75140000Y-43870000D03*
G36*
G01*
X11050000Y-23043750D02*
X11050000Y-23956250D01*
G75*
G02*
X10806250Y-24200000I-243750J0D01*
G01*
X10318750Y-24200000D01*
G75*
G02*
X10075000Y-23956250I0J243750D01*
G01*
X10075000Y-23043750D01*
G75*
G02*
X10318750Y-22800000I243750J0D01*
G01*
X10806250Y-22800000D01*
G75*
G02*
X11050000Y-23043750I0J-243750D01*
G01*
G37*
G36*
G01*
X12925000Y-23043750D02*
X12925000Y-23956250D01*
G75*
G02*
X12681250Y-24200000I-243750J0D01*
G01*
X12193750Y-24200000D01*
G75*
G02*
X11950000Y-23956250I0J243750D01*
G01*
X11950000Y-23043750D01*
G75*
G02*
X12193750Y-22800000I243750J0D01*
G01*
X12681250Y-22800000D01*
G75*
G02*
X12925000Y-23043750I0J-243750D01*
G01*
G37*
G36*
G01*
X80456250Y-6425000D02*
X79543750Y-6425000D01*
G75*
G02*
X79300000Y-6181250I0J243750D01*
G01*
X79300000Y-5693750D01*
G75*
G02*
X79543750Y-5450000I243750J0D01*
G01*
X80456250Y-5450000D01*
G75*
G02*
X80700000Y-5693750I0J-243750D01*
G01*
X80700000Y-6181250D01*
G75*
G02*
X80456250Y-6425000I-243750J0D01*
G01*
G37*
G36*
G01*
X80456250Y-4550000D02*
X79543750Y-4550000D01*
G75*
G02*
X79300000Y-4306250I0J243750D01*
G01*
X79300000Y-3818750D01*
G75*
G02*
X79543750Y-3575000I243750J0D01*
G01*
X80456250Y-3575000D01*
G75*
G02*
X80700000Y-3818750I0J-243750D01*
G01*
X80700000Y-4306250D01*
G75*
G02*
X80456250Y-4550000I-243750J0D01*
G01*
G37*
G36*
G01*
X75556250Y-6425000D02*
X74643750Y-6425000D01*
G75*
G02*
X74400000Y-6181250I0J243750D01*
G01*
X74400000Y-5693750D01*
G75*
G02*
X74643750Y-5450000I243750J0D01*
G01*
X75556250Y-5450000D01*
G75*
G02*
X75800000Y-5693750I0J-243750D01*
G01*
X75800000Y-6181250D01*
G75*
G02*
X75556250Y-6425000I-243750J0D01*
G01*
G37*
G36*
G01*
X75556250Y-4550000D02*
X74643750Y-4550000D01*
G75*
G02*
X74400000Y-4306250I0J243750D01*
G01*
X74400000Y-3818750D01*
G75*
G02*
X74643750Y-3575000I243750J0D01*
G01*
X75556250Y-3575000D01*
G75*
G02*
X75800000Y-3818750I0J-243750D01*
G01*
X75800000Y-4306250D01*
G75*
G02*
X75556250Y-4550000I-243750J0D01*
G01*
G37*
D11*
X5000000Y-5000000D03*
X96500000Y-5000000D03*
X5000000Y-50500000D03*
X96500000Y-50500000D03*
D12*
X12500000Y-21000000D03*
D13*
X12500000Y-18500000D03*
X10500000Y-18500000D03*
X10500000Y-21000000D03*
D14*
X7790000Y-25770000D03*
X7790000Y-13730000D03*
D12*
X10000000Y-33000000D03*
D15*
X10000000Y-35540000D03*
X10000000Y-38080000D03*
X10000000Y-40620000D03*
G36*
G01*
X93350000Y-38900000D02*
X93350000Y-40100000D01*
G75*
G02*
X93100000Y-40350000I-250000J0D01*
G01*
X91900000Y-40350000D01*
G75*
G02*
X91650000Y-40100000I0J250000D01*
G01*
X91650000Y-38900000D01*
G75*
G02*
X91900000Y-38650000I250000J0D01*
G01*
X93100000Y-38650000D01*
G75*
G02*
X93350000Y-38900000I0J-250000D01*
G01*
G37*
D13*
X92500000Y-36960000D03*
X92500000Y-34420000D03*
X92500000Y-31880000D03*
X92500000Y-29340000D03*
X89960000Y-39500000D03*
X89960000Y-36960000D03*
X89960000Y-34420000D03*
X89960000Y-31880000D03*
X89960000Y-29340000D03*
D12*
X25500000Y-4500000D03*
D15*
X28040000Y-4500000D03*
X30580000Y-4500000D03*
M02*
