G04 #@! TF.GenerationSoftware,KiCad,Pcbnew,(5.1.8)-1*
G04 #@! TF.CreationDate,2020-11-26T11:10:08+01:00*
G04 #@! TF.ProjectId,MM1_Writer,4d4d315f-5772-4697-9465-722e6b696361,R1*
G04 #@! TF.SameCoordinates,PX4692680PY3938700*
G04 #@! TF.FileFunction,Legend,Bot*
G04 #@! TF.FilePolarity,Positive*
%FSLAX46Y46*%
G04 Gerber Fmt 4.6, Leading zero omitted, Abs format (unit mm)*
G04 Created by KiCad (PCBNEW (5.1.8)-1) date 2020-11-26 11:10:08*
%MOMM*%
%LPD*%
G01*
G04 APERTURE LIST*
%ADD10C,0.300000*%
%ADD11C,0.120000*%
%ADD12C,0.150000*%
G04 APERTURE END LIST*
D10*
X92606666Y-13157142D02*
X92320952Y-13252380D01*
X92225714Y-13347619D01*
X92130476Y-13538095D01*
X92130476Y-13823809D01*
X92225714Y-14014285D01*
X92320952Y-14109523D01*
X92511428Y-14204761D01*
X93273333Y-14204761D01*
X93273333Y-12204761D01*
X92606666Y-12204761D01*
X92416190Y-12300000D01*
X92320952Y-12395238D01*
X92225714Y-12585714D01*
X92225714Y-12776190D01*
X92320952Y-12966666D01*
X92416190Y-13061904D01*
X92606666Y-13157142D01*
X93273333Y-13157142D01*
X90892380Y-12204761D02*
X90511428Y-12204761D01*
X90320952Y-12300000D01*
X90130476Y-12490476D01*
X90035238Y-12871428D01*
X90035238Y-13538095D01*
X90130476Y-13919047D01*
X90320952Y-14109523D01*
X90511428Y-14204761D01*
X90892380Y-14204761D01*
X91082857Y-14109523D01*
X91273333Y-13919047D01*
X91368571Y-13538095D01*
X91368571Y-12871428D01*
X91273333Y-12490476D01*
X91082857Y-12300000D01*
X90892380Y-12204761D01*
X89463809Y-12204761D02*
X88320952Y-12204761D01*
X88892380Y-14204761D02*
X88892380Y-12204761D01*
D11*
X11758578Y-22790000D02*
X11241422Y-22790000D01*
X11758578Y-24210000D02*
X11241422Y-24210000D01*
X79290000Y-5258578D02*
X79290000Y-4741422D01*
X80710000Y-5258578D02*
X80710000Y-4741422D01*
X74390000Y-5258578D02*
X74390000Y-4741422D01*
X75810000Y-5258578D02*
X75810000Y-4741422D01*
D12*
X11604166Y-25857142D02*
X11651785Y-25904761D01*
X11794642Y-25952380D01*
X11889880Y-25952380D01*
X12032738Y-25904761D01*
X12127976Y-25809523D01*
X12175595Y-25714285D01*
X12223214Y-25523809D01*
X12223214Y-25380952D01*
X12175595Y-25190476D01*
X12127976Y-25095238D01*
X12032738Y-25000000D01*
X11889880Y-24952380D01*
X11794642Y-24952380D01*
X11651785Y-25000000D01*
X11604166Y-25047619D01*
X10651785Y-25952380D02*
X11223214Y-25952380D01*
X10937500Y-25952380D02*
X10937500Y-24952380D01*
X11032738Y-25095238D01*
X11127976Y-25190476D01*
X11223214Y-25238095D01*
X82007142Y-4833333D02*
X82054761Y-4785714D01*
X82102380Y-4642857D01*
X82102380Y-4547619D01*
X82054761Y-4404761D01*
X81959523Y-4309523D01*
X81864285Y-4261904D01*
X81673809Y-4214285D01*
X81530952Y-4214285D01*
X81340476Y-4261904D01*
X81245238Y-4309523D01*
X81150000Y-4404761D01*
X81102380Y-4547619D01*
X81102380Y-4642857D01*
X81150000Y-4785714D01*
X81197619Y-4833333D01*
X82102380Y-5309523D02*
X82102380Y-5500000D01*
X82054761Y-5595238D01*
X82007142Y-5642857D01*
X81864285Y-5738095D01*
X81673809Y-5785714D01*
X81292857Y-5785714D01*
X81197619Y-5738095D01*
X81150000Y-5690476D01*
X81102380Y-5595238D01*
X81102380Y-5404761D01*
X81150000Y-5309523D01*
X81197619Y-5261904D01*
X81292857Y-5214285D01*
X81530952Y-5214285D01*
X81626190Y-5261904D01*
X81673809Y-5309523D01*
X81721428Y-5404761D01*
X81721428Y-5595238D01*
X81673809Y-5690476D01*
X81626190Y-5738095D01*
X81530952Y-5785714D01*
X77107142Y-4357142D02*
X77154761Y-4309523D01*
X77202380Y-4166666D01*
X77202380Y-4071428D01*
X77154761Y-3928571D01*
X77059523Y-3833333D01*
X76964285Y-3785714D01*
X76773809Y-3738095D01*
X76630952Y-3738095D01*
X76440476Y-3785714D01*
X76345238Y-3833333D01*
X76250000Y-3928571D01*
X76202380Y-4071428D01*
X76202380Y-4166666D01*
X76250000Y-4309523D01*
X76297619Y-4357142D01*
X77202380Y-5309523D02*
X77202380Y-4738095D01*
X77202380Y-5023809D02*
X76202380Y-5023809D01*
X76345238Y-4928571D01*
X76440476Y-4833333D01*
X76488095Y-4738095D01*
X76202380Y-5928571D02*
X76202380Y-6023809D01*
X76250000Y-6119047D01*
X76297619Y-6166666D01*
X76392857Y-6214285D01*
X76583333Y-6261904D01*
X76821428Y-6261904D01*
X77011904Y-6214285D01*
X77107142Y-6166666D01*
X77154761Y-6119047D01*
X77202380Y-6023809D01*
X77202380Y-5928571D01*
X77154761Y-5833333D01*
X77107142Y-5785714D01*
X77011904Y-5738095D01*
X76821428Y-5690476D01*
X76583333Y-5690476D01*
X76392857Y-5738095D01*
X76297619Y-5785714D01*
X76250000Y-5833333D01*
X76202380Y-5928571D01*
M02*
