G04 #@! TF.GenerationSoftware,KiCad,Pcbnew,(5.1.8)-1*
G04 #@! TF.CreationDate,2020-11-26T11:10:08+01:00*
G04 #@! TF.ProjectId,MM1_Writer,4d4d315f-5772-4697-9465-722e6b696361,R1*
G04 #@! TF.SameCoordinates,PX4692680PY3938700*
G04 #@! TF.FileFunction,Legend,Top*
G04 #@! TF.FilePolarity,Positive*
%FSLAX46Y46*%
G04 Gerber Fmt 4.6, Leading zero omitted, Abs format (unit mm)*
G04 Created by KiCad (PCBNEW (5.1.8)-1) date 2020-11-26 11:10:08*
%MOMM*%
%LPD*%
G01*
G04 APERTURE LIST*
%ADD10C,0.150000*%
%ADD11C,0.300000*%
%ADD12C,0.120000*%
G04 APERTURE END LIST*
D10*
X1261904Y-43452380D02*
X1261904Y-44166666D01*
X1214285Y-44309523D01*
X1119047Y-44404761D01*
X976190Y-44452380D01*
X880952Y-44452380D01*
X1595238Y-43452380D02*
X2166666Y-43452380D01*
X1880952Y-44452380D02*
X1880952Y-43452380D01*
X2452380Y-44166666D02*
X2928571Y-44166666D01*
X2357142Y-44452380D02*
X2690476Y-43452380D01*
X3023809Y-44452380D01*
X3880952Y-43500000D02*
X3785714Y-43452380D01*
X3642857Y-43452380D01*
X3500000Y-43500000D01*
X3404761Y-43595238D01*
X3357142Y-43690476D01*
X3309523Y-43880952D01*
X3309523Y-44023809D01*
X3357142Y-44214285D01*
X3404761Y-44309523D01*
X3500000Y-44404761D01*
X3642857Y-44452380D01*
X3738095Y-44452380D01*
X3880952Y-44404761D01*
X3928571Y-44357142D01*
X3928571Y-44023809D01*
X3738095Y-44023809D01*
X5404761Y-44833333D02*
X5357142Y-44785714D01*
X5261904Y-44642857D01*
X5214285Y-44547619D01*
X5166666Y-44404761D01*
X5119047Y-44166666D01*
X5119047Y-43976190D01*
X5166666Y-43738095D01*
X5214285Y-43595238D01*
X5261904Y-43500000D01*
X5357142Y-43357142D01*
X5404761Y-43309523D01*
X6309523Y-43500000D02*
X6214285Y-43452380D01*
X6071428Y-43452380D01*
X5928571Y-43500000D01*
X5833333Y-43595238D01*
X5785714Y-43690476D01*
X5738095Y-43880952D01*
X5738095Y-44023809D01*
X5785714Y-44214285D01*
X5833333Y-44309523D01*
X5928571Y-44404761D01*
X6071428Y-44452380D01*
X6166666Y-44452380D01*
X6309523Y-44404761D01*
X6357142Y-44357142D01*
X6357142Y-44023809D01*
X6166666Y-44023809D01*
X6642857Y-43452380D02*
X7214285Y-43452380D01*
X6928571Y-44452380D02*
X6928571Y-43452380D01*
X7500000Y-44166666D02*
X7976190Y-44166666D01*
X7404761Y-44452380D02*
X7738095Y-43452380D01*
X8071428Y-44452380D01*
X8928571Y-43500000D02*
X8833333Y-43452380D01*
X8690476Y-43452380D01*
X8547619Y-43500000D01*
X8452380Y-43595238D01*
X8404761Y-43690476D01*
X8357142Y-43880952D01*
X8357142Y-44023809D01*
X8404761Y-44214285D01*
X8452380Y-44309523D01*
X8547619Y-44404761D01*
X8690476Y-44452380D01*
X8785714Y-44452380D01*
X8928571Y-44404761D01*
X8976190Y-44357142D01*
X8976190Y-44023809D01*
X8785714Y-44023809D01*
X10595238Y-44452380D02*
X10595238Y-43928571D01*
X10547619Y-43833333D01*
X10452380Y-43785714D01*
X10261904Y-43785714D01*
X10166666Y-43833333D01*
X10595238Y-44404761D02*
X10500000Y-44452380D01*
X10261904Y-44452380D01*
X10166666Y-44404761D01*
X10119047Y-44309523D01*
X10119047Y-44214285D01*
X10166666Y-44119047D01*
X10261904Y-44071428D01*
X10500000Y-44071428D01*
X10595238Y-44023809D01*
X11500000Y-44452380D02*
X11500000Y-43452380D01*
X11500000Y-44404761D02*
X11404761Y-44452380D01*
X11214285Y-44452380D01*
X11119047Y-44404761D01*
X11071428Y-44357142D01*
X11023809Y-44261904D01*
X11023809Y-43976190D01*
X11071428Y-43880952D01*
X11119047Y-43833333D01*
X11214285Y-43785714D01*
X11404761Y-43785714D01*
X11500000Y-43833333D01*
X12404761Y-44452380D02*
X12404761Y-43928571D01*
X12357142Y-43833333D01*
X12261904Y-43785714D01*
X12071428Y-43785714D01*
X11976190Y-43833333D01*
X12404761Y-44404761D02*
X12309523Y-44452380D01*
X12071428Y-44452380D01*
X11976190Y-44404761D01*
X11928571Y-44309523D01*
X11928571Y-44214285D01*
X11976190Y-44119047D01*
X12071428Y-44071428D01*
X12309523Y-44071428D01*
X12404761Y-44023809D01*
X12880952Y-43785714D02*
X12880952Y-44785714D01*
X12880952Y-43833333D02*
X12976190Y-43785714D01*
X13166666Y-43785714D01*
X13261904Y-43833333D01*
X13309523Y-43880952D01*
X13357142Y-43976190D01*
X13357142Y-44261904D01*
X13309523Y-44357142D01*
X13261904Y-44404761D01*
X13166666Y-44452380D01*
X12976190Y-44452380D01*
X12880952Y-44404761D01*
X13642857Y-43785714D02*
X14023809Y-43785714D01*
X13785714Y-43452380D02*
X13785714Y-44309523D01*
X13833333Y-44404761D01*
X13928571Y-44452380D01*
X14023809Y-44452380D01*
X14738095Y-44404761D02*
X14642857Y-44452380D01*
X14452380Y-44452380D01*
X14357142Y-44404761D01*
X14309523Y-44309523D01*
X14309523Y-43928571D01*
X14357142Y-43833333D01*
X14452380Y-43785714D01*
X14642857Y-43785714D01*
X14738095Y-43833333D01*
X14785714Y-43928571D01*
X14785714Y-44023809D01*
X14309523Y-44119047D01*
X15214285Y-44452380D02*
X15214285Y-43785714D01*
X15214285Y-43976190D02*
X15261904Y-43880952D01*
X15309523Y-43833333D01*
X15404761Y-43785714D01*
X15500000Y-43785714D01*
X15738095Y-44833333D02*
X15785714Y-44785714D01*
X15880952Y-44642857D01*
X15928571Y-44547619D01*
X15976190Y-44404761D01*
X16023809Y-44166666D01*
X16023809Y-43976190D01*
X15976190Y-43738095D01*
X15928571Y-43595238D01*
X15880952Y-43500000D01*
X15785714Y-43357142D01*
X15738095Y-43309523D01*
X32904761Y-4452380D02*
X32904761Y-5261904D01*
X32952380Y-5357142D01*
X33000000Y-5404761D01*
X33095238Y-5452380D01*
X33285714Y-5452380D01*
X33380952Y-5404761D01*
X33428571Y-5357142D01*
X33476190Y-5261904D01*
X33476190Y-4452380D01*
X33904761Y-5166666D02*
X34380952Y-5166666D01*
X33809523Y-5452380D02*
X34142857Y-4452380D01*
X34476190Y-5452380D01*
X35380952Y-5452380D02*
X35047619Y-4976190D01*
X34809523Y-5452380D02*
X34809523Y-4452380D01*
X35190476Y-4452380D01*
X35285714Y-4500000D01*
X35333333Y-4547619D01*
X35380952Y-4642857D01*
X35380952Y-4785714D01*
X35333333Y-4880952D01*
X35285714Y-4928571D01*
X35190476Y-4976190D01*
X34809523Y-4976190D01*
X35666666Y-4452380D02*
X36238095Y-4452380D01*
X35952380Y-5452380D02*
X35952380Y-4452380D01*
X29952380Y-11142857D02*
X30761904Y-11142857D01*
X30857142Y-11095238D01*
X30904761Y-11047619D01*
X30952380Y-10952380D01*
X30952380Y-10761904D01*
X30904761Y-10666666D01*
X30857142Y-10619047D01*
X30761904Y-10571428D01*
X29952380Y-10571428D01*
X30857142Y-9523809D02*
X30904761Y-9571428D01*
X30952380Y-9714285D01*
X30952380Y-9809523D01*
X30904761Y-9952380D01*
X30809523Y-10047619D01*
X30714285Y-10095238D01*
X30523809Y-10142857D01*
X30380952Y-10142857D01*
X30190476Y-10095238D01*
X30095238Y-10047619D01*
X30000000Y-9952380D01*
X29952380Y-9809523D01*
X29952380Y-9714285D01*
X30000000Y-9571428D01*
X30047619Y-9523809D01*
X31047619Y-9333333D02*
X31047619Y-8571428D01*
X30952380Y-7761904D02*
X30476190Y-8095238D01*
X30952380Y-8333333D02*
X29952380Y-8333333D01*
X29952380Y-7952380D01*
X30000000Y-7857142D01*
X30047619Y-7809523D01*
X30142857Y-7761904D01*
X30285714Y-7761904D01*
X30380952Y-7809523D01*
X30428571Y-7857142D01*
X30476190Y-7952380D01*
X30476190Y-8333333D01*
X29952380Y-7428571D02*
X30952380Y-6761904D01*
X29952380Y-6761904D02*
X30952380Y-7428571D01*
X27452380Y-11023809D02*
X28261904Y-11023809D01*
X28357142Y-10976190D01*
X28404761Y-10928571D01*
X28452380Y-10833333D01*
X28452380Y-10642857D01*
X28404761Y-10547619D01*
X28357142Y-10500000D01*
X28261904Y-10452380D01*
X27452380Y-10452380D01*
X28357142Y-9404761D02*
X28404761Y-9452380D01*
X28452380Y-9595238D01*
X28452380Y-9690476D01*
X28404761Y-9833333D01*
X28309523Y-9928571D01*
X28214285Y-9976190D01*
X28023809Y-10023809D01*
X27880952Y-10023809D01*
X27690476Y-9976190D01*
X27595238Y-9928571D01*
X27500000Y-9833333D01*
X27452380Y-9690476D01*
X27452380Y-9595238D01*
X27500000Y-9452380D01*
X27547619Y-9404761D01*
X28547619Y-9214285D02*
X28547619Y-8452380D01*
X27452380Y-8357142D02*
X27452380Y-7785714D01*
X28452380Y-8071428D02*
X27452380Y-8071428D01*
X27452380Y-7547619D02*
X28452380Y-6880952D01*
X27452380Y-6880952D02*
X28452380Y-7547619D01*
X25000000Y-8761904D02*
X24952380Y-8857142D01*
X24952380Y-9000000D01*
X25000000Y-9142857D01*
X25095238Y-9238095D01*
X25190476Y-9285714D01*
X25380952Y-9333333D01*
X25523809Y-9333333D01*
X25714285Y-9285714D01*
X25809523Y-9238095D01*
X25904761Y-9142857D01*
X25952380Y-9000000D01*
X25952380Y-8904761D01*
X25904761Y-8761904D01*
X25857142Y-8714285D01*
X25523809Y-8714285D01*
X25523809Y-8904761D01*
X25952380Y-8285714D02*
X24952380Y-8285714D01*
X25952380Y-7714285D01*
X24952380Y-7714285D01*
X25952380Y-7238095D02*
X24952380Y-7238095D01*
X24952380Y-7000000D01*
X25000000Y-6857142D01*
X25095238Y-6761904D01*
X25190476Y-6714285D01*
X25380952Y-6666666D01*
X25523809Y-6666666D01*
X25714285Y-6714285D01*
X25809523Y-6761904D01*
X25904761Y-6857142D01*
X25952380Y-7000000D01*
X25952380Y-7238095D01*
X12738095Y-32500000D02*
X12642857Y-32452380D01*
X12500000Y-32452380D01*
X12357142Y-32500000D01*
X12261904Y-32595238D01*
X12214285Y-32690476D01*
X12166666Y-32880952D01*
X12166666Y-33023809D01*
X12214285Y-33214285D01*
X12261904Y-33309523D01*
X12357142Y-33404761D01*
X12500000Y-33452380D01*
X12595238Y-33452380D01*
X12738095Y-33404761D01*
X12785714Y-33357142D01*
X12785714Y-33023809D01*
X12595238Y-33023809D01*
X13214285Y-33452380D02*
X13214285Y-32452380D01*
X13785714Y-33452380D01*
X13785714Y-32452380D01*
X14261904Y-33452380D02*
X14261904Y-32452380D01*
X14500000Y-32452380D01*
X14642857Y-32500000D01*
X14738095Y-32595238D01*
X14785714Y-32690476D01*
X14833333Y-32880952D01*
X14833333Y-33023809D01*
X14785714Y-33214285D01*
X14738095Y-33309523D01*
X14642857Y-33404761D01*
X14500000Y-33452380D01*
X14261904Y-33452380D01*
X12285714Y-34952380D02*
X12619047Y-35952380D01*
X12952380Y-34952380D01*
X13857142Y-35952380D02*
X13523809Y-35476190D01*
X13285714Y-35952380D02*
X13285714Y-34952380D01*
X13666666Y-34952380D01*
X13761904Y-35000000D01*
X13809523Y-35047619D01*
X13857142Y-35142857D01*
X13857142Y-35285714D01*
X13809523Y-35380952D01*
X13761904Y-35428571D01*
X13666666Y-35476190D01*
X13285714Y-35476190D01*
X14285714Y-35428571D02*
X14619047Y-35428571D01*
X14761904Y-35952380D02*
X14285714Y-35952380D01*
X14285714Y-34952380D01*
X14761904Y-34952380D01*
X15523809Y-35428571D02*
X15190476Y-35428571D01*
X15190476Y-35952380D02*
X15190476Y-34952380D01*
X15666666Y-34952380D01*
X12833333Y-38357142D02*
X12785714Y-38404761D01*
X12642857Y-38452380D01*
X12547619Y-38452380D01*
X12404761Y-38404761D01*
X12309523Y-38309523D01*
X12261904Y-38214285D01*
X12214285Y-38023809D01*
X12214285Y-37880952D01*
X12261904Y-37690476D01*
X12309523Y-37595238D01*
X12404761Y-37500000D01*
X12547619Y-37452380D01*
X12642857Y-37452380D01*
X12785714Y-37500000D01*
X12833333Y-37547619D01*
X13214285Y-37547619D02*
X13261904Y-37500000D01*
X13357142Y-37452380D01*
X13595238Y-37452380D01*
X13690476Y-37500000D01*
X13738095Y-37547619D01*
X13785714Y-37642857D01*
X13785714Y-37738095D01*
X13738095Y-37880952D01*
X13166666Y-38452380D01*
X13785714Y-38452380D01*
X14785714Y-38357142D02*
X14738095Y-38404761D01*
X14595238Y-38452380D01*
X14500000Y-38452380D01*
X14357142Y-38404761D01*
X14261904Y-38309523D01*
X14214285Y-38214285D01*
X14166666Y-38023809D01*
X14166666Y-37880952D01*
X14214285Y-37690476D01*
X14261904Y-37595238D01*
X14357142Y-37500000D01*
X14500000Y-37452380D01*
X14595238Y-37452380D01*
X14738095Y-37500000D01*
X14785714Y-37547619D01*
X15214285Y-38452380D02*
X15214285Y-37452380D01*
X15785714Y-38452380D02*
X15357142Y-37880952D01*
X15785714Y-37452380D02*
X15214285Y-38023809D01*
X12833333Y-40857142D02*
X12785714Y-40904761D01*
X12642857Y-40952380D01*
X12547619Y-40952380D01*
X12404761Y-40904761D01*
X12309523Y-40809523D01*
X12261904Y-40714285D01*
X12214285Y-40523809D01*
X12214285Y-40380952D01*
X12261904Y-40190476D01*
X12309523Y-40095238D01*
X12404761Y-40000000D01*
X12547619Y-39952380D01*
X12642857Y-39952380D01*
X12785714Y-40000000D01*
X12833333Y-40047619D01*
X13214285Y-40047619D02*
X13261904Y-40000000D01*
X13357142Y-39952380D01*
X13595238Y-39952380D01*
X13690476Y-40000000D01*
X13738095Y-40047619D01*
X13785714Y-40142857D01*
X13785714Y-40238095D01*
X13738095Y-40380952D01*
X13166666Y-40952380D01*
X13785714Y-40952380D01*
X14214285Y-40952380D02*
X14214285Y-39952380D01*
X14452380Y-39952380D01*
X14595238Y-40000000D01*
X14690476Y-40095238D01*
X14738095Y-40190476D01*
X14785714Y-40380952D01*
X14785714Y-40523809D01*
X14738095Y-40714285D01*
X14690476Y-40809523D01*
X14595238Y-40904761D01*
X14452380Y-40952380D01*
X14214285Y-40952380D01*
X55880952Y-53952380D02*
X55404761Y-53952380D01*
X55404761Y-52952380D01*
X56214285Y-53952380D02*
X56214285Y-53285714D01*
X56214285Y-52952380D02*
X56166666Y-53000000D01*
X56214285Y-53047619D01*
X56261904Y-53000000D01*
X56214285Y-52952380D01*
X56214285Y-53047619D01*
X57119047Y-53904761D02*
X57023809Y-53952380D01*
X56833333Y-53952380D01*
X56738095Y-53904761D01*
X56690476Y-53857142D01*
X56642857Y-53761904D01*
X56642857Y-53476190D01*
X56690476Y-53380952D01*
X56738095Y-53333333D01*
X56833333Y-53285714D01*
X57023809Y-53285714D01*
X57119047Y-53333333D01*
X57928571Y-53904761D02*
X57833333Y-53952380D01*
X57642857Y-53952380D01*
X57547619Y-53904761D01*
X57499999Y-53809523D01*
X57499999Y-53428571D01*
X57547619Y-53333333D01*
X57642857Y-53285714D01*
X57833333Y-53285714D01*
X57928571Y-53333333D01*
X57976190Y-53428571D01*
X57976190Y-53523809D01*
X57499999Y-53619047D01*
X58404761Y-53285714D02*
X58404761Y-53952380D01*
X58404761Y-53380952D02*
X58452380Y-53333333D01*
X58547619Y-53285714D01*
X58690476Y-53285714D01*
X58785714Y-53333333D01*
X58833333Y-53428571D01*
X58833333Y-53952380D01*
X59261904Y-53904761D02*
X59357142Y-53952380D01*
X59547619Y-53952380D01*
X59642857Y-53904761D01*
X59690476Y-53809523D01*
X59690476Y-53761904D01*
X59642857Y-53666666D01*
X59547619Y-53619047D01*
X59404761Y-53619047D01*
X59309523Y-53571428D01*
X59261904Y-53476190D01*
X59261904Y-53428571D01*
X59309523Y-53333333D01*
X59404761Y-53285714D01*
X59547619Y-53285714D01*
X59642857Y-53333333D01*
X60500000Y-53904761D02*
X60404761Y-53952380D01*
X60214285Y-53952380D01*
X60119047Y-53904761D01*
X60071428Y-53809523D01*
X60071428Y-53428571D01*
X60119047Y-53333333D01*
X60214285Y-53285714D01*
X60404761Y-53285714D01*
X60500000Y-53333333D01*
X60547619Y-53428571D01*
X60547619Y-53523809D01*
X60071428Y-53619047D01*
X61404761Y-53952380D02*
X61404761Y-52952380D01*
X61404761Y-53904761D02*
X61309523Y-53952380D01*
X61119047Y-53952380D01*
X61023809Y-53904761D01*
X60976190Y-53857142D01*
X60928571Y-53761904D01*
X60928571Y-53476190D01*
X60976190Y-53380952D01*
X61023809Y-53333333D01*
X61119047Y-53285714D01*
X61309523Y-53285714D01*
X61404761Y-53333333D01*
X63071428Y-53285714D02*
X63071428Y-53952380D01*
X62642857Y-53285714D02*
X62642857Y-53809523D01*
X62690476Y-53904761D01*
X62785714Y-53952380D01*
X62928571Y-53952380D01*
X63023809Y-53904761D01*
X63071428Y-53857142D01*
X63547619Y-53285714D02*
X63547619Y-53952380D01*
X63547619Y-53380952D02*
X63595238Y-53333333D01*
X63690476Y-53285714D01*
X63833333Y-53285714D01*
X63928571Y-53333333D01*
X63976190Y-53428571D01*
X63976190Y-53952380D01*
X64880952Y-53952380D02*
X64880952Y-52952380D01*
X64880952Y-53904761D02*
X64785714Y-53952380D01*
X64595238Y-53952380D01*
X64500000Y-53904761D01*
X64452380Y-53857142D01*
X64404761Y-53761904D01*
X64404761Y-53476190D01*
X64452380Y-53380952D01*
X64500000Y-53333333D01*
X64595238Y-53285714D01*
X64785714Y-53285714D01*
X64880952Y-53333333D01*
X65738095Y-53904761D02*
X65642857Y-53952380D01*
X65452380Y-53952380D01*
X65357142Y-53904761D01*
X65309523Y-53809523D01*
X65309523Y-53428571D01*
X65357142Y-53333333D01*
X65452380Y-53285714D01*
X65642857Y-53285714D01*
X65738095Y-53333333D01*
X65785714Y-53428571D01*
X65785714Y-53523809D01*
X65309523Y-53619047D01*
X66214285Y-53952380D02*
X66214285Y-53285714D01*
X66214285Y-53476190D02*
X66261904Y-53380952D01*
X66309523Y-53333333D01*
X66404761Y-53285714D01*
X66500000Y-53285714D01*
X68166666Y-53857142D02*
X68119047Y-53904761D01*
X67976190Y-53952380D01*
X67880952Y-53952380D01*
X67738095Y-53904761D01*
X67642857Y-53809523D01*
X67595238Y-53714285D01*
X67547619Y-53523809D01*
X67547619Y-53380952D01*
X67595238Y-53190476D01*
X67642857Y-53095238D01*
X67738095Y-53000000D01*
X67880952Y-52952380D01*
X67976190Y-52952380D01*
X68119047Y-53000000D01*
X68166666Y-53047619D01*
X68595238Y-53428571D02*
X68928571Y-53428571D01*
X69071428Y-53952380D02*
X68595238Y-53952380D01*
X68595238Y-52952380D01*
X69071428Y-52952380D01*
X70071428Y-53952380D02*
X69738095Y-53476190D01*
X69500000Y-53952380D02*
X69500000Y-52952380D01*
X69880952Y-52952380D01*
X69976190Y-53000000D01*
X70023809Y-53047619D01*
X70071428Y-53142857D01*
X70071428Y-53285714D01*
X70023809Y-53380952D01*
X69976190Y-53428571D01*
X69880952Y-53476190D01*
X69500000Y-53476190D01*
X70500000Y-53952380D02*
X70500000Y-52952380D01*
X71071428Y-53952380D01*
X71071428Y-52952380D01*
X71547619Y-53571428D02*
X72309523Y-53571428D01*
X72976190Y-52952380D02*
X73166666Y-52952380D01*
X73261904Y-53000000D01*
X73357142Y-53095238D01*
X73404761Y-53285714D01*
X73404761Y-53619047D01*
X73357142Y-53809523D01*
X73261904Y-53904761D01*
X73166666Y-53952380D01*
X72976190Y-53952380D01*
X72880952Y-53904761D01*
X72785714Y-53809523D01*
X72738095Y-53619047D01*
X72738095Y-53285714D01*
X72785714Y-53095238D01*
X72880952Y-53000000D01*
X72976190Y-52952380D01*
X73833333Y-53952380D02*
X73833333Y-52952380D01*
X73833333Y-53428571D02*
X74404761Y-53428571D01*
X74404761Y-53952380D02*
X74404761Y-52952380D01*
X75357142Y-53952380D02*
X74880952Y-53952380D01*
X74880952Y-52952380D01*
X75690476Y-53571428D02*
X76452380Y-53571428D01*
X76833333Y-52952380D02*
X77071428Y-53952380D01*
X77261904Y-53238095D01*
X77452380Y-53952380D01*
X77690476Y-52952380D01*
X78738095Y-53285714D02*
X78976190Y-53952380D01*
X79214285Y-53285714D01*
X79547619Y-53047619D02*
X79595238Y-53000000D01*
X79690476Y-52952380D01*
X79928571Y-52952380D01*
X80023809Y-53000000D01*
X80071428Y-53047619D01*
X80119047Y-53142857D01*
X80119047Y-53238095D01*
X80071428Y-53380952D01*
X79500000Y-53952380D01*
X80119047Y-53952380D01*
X81452380Y-53952380D02*
X81357142Y-53904761D01*
X81309523Y-53857142D01*
X81261904Y-53761904D01*
X81261904Y-53476190D01*
X81309523Y-53380952D01*
X81357142Y-53333333D01*
X81452380Y-53285714D01*
X81595238Y-53285714D01*
X81690476Y-53333333D01*
X81738095Y-53380952D01*
X81785714Y-53476190D01*
X81785714Y-53761904D01*
X81738095Y-53857142D01*
X81690476Y-53904761D01*
X81595238Y-53952380D01*
X81452380Y-53952380D01*
X82214285Y-53952380D02*
X82214285Y-53285714D01*
X82214285Y-53476190D02*
X82261904Y-53380952D01*
X82309523Y-53333333D01*
X82404761Y-53285714D01*
X82500000Y-53285714D01*
X83738095Y-53952380D02*
X83642857Y-53904761D01*
X83595238Y-53809523D01*
X83595238Y-52952380D01*
X84547619Y-53952380D02*
X84547619Y-53428571D01*
X84500000Y-53333333D01*
X84404761Y-53285714D01*
X84214285Y-53285714D01*
X84119047Y-53333333D01*
X84547619Y-53904761D02*
X84452380Y-53952380D01*
X84214285Y-53952380D01*
X84119047Y-53904761D01*
X84071428Y-53809523D01*
X84071428Y-53714285D01*
X84119047Y-53619047D01*
X84214285Y-53571428D01*
X84452380Y-53571428D01*
X84547619Y-53523809D01*
X84880952Y-53285714D02*
X85261904Y-53285714D01*
X85023809Y-52952380D02*
X85023809Y-53809523D01*
X85071428Y-53904761D01*
X85166666Y-53952380D01*
X85261904Y-53952380D01*
X85976190Y-53904761D02*
X85880952Y-53952380D01*
X85690476Y-53952380D01*
X85595238Y-53904761D01*
X85547619Y-53809523D01*
X85547619Y-53428571D01*
X85595238Y-53333333D01*
X85690476Y-53285714D01*
X85880952Y-53285714D01*
X85976190Y-53333333D01*
X86023809Y-53428571D01*
X86023809Y-53523809D01*
X85547619Y-53619047D01*
X86452380Y-53952380D02*
X86452380Y-53285714D01*
X86452380Y-53476190D02*
X86500000Y-53380952D01*
X86547619Y-53333333D01*
X86642857Y-53285714D01*
X86738095Y-53285714D01*
D11*
X88320952Y-12234761D02*
X89463809Y-12234761D01*
X88892380Y-14234761D02*
X88892380Y-12234761D01*
X90511428Y-12234761D02*
X90892380Y-12234761D01*
X91082857Y-12330000D01*
X91273333Y-12520476D01*
X91368571Y-12901428D01*
X91368571Y-13568095D01*
X91273333Y-13949047D01*
X91082857Y-14139523D01*
X90892380Y-14234761D01*
X90511428Y-14234761D01*
X90320952Y-14139523D01*
X90130476Y-13949047D01*
X90035238Y-13568095D01*
X90035238Y-12901428D01*
X90130476Y-12520476D01*
X90320952Y-12330000D01*
X90511428Y-12234761D01*
X92225714Y-14234761D02*
X92225714Y-12234761D01*
X92987619Y-12234761D01*
X93178095Y-12330000D01*
X93273333Y-12425238D01*
X93368571Y-12615714D01*
X93368571Y-12901428D01*
X93273333Y-13091904D01*
X93178095Y-13187142D01*
X92987619Y-13282380D01*
X92225714Y-13282380D01*
D10*
X85166666Y-44619047D02*
X85166666Y-44142857D01*
X85452380Y-44714285D02*
X84452380Y-44380952D01*
X85452380Y-44047619D01*
X85452380Y-43285714D02*
X84452380Y-43285714D01*
X85404761Y-43285714D02*
X85452380Y-43380952D01*
X85452380Y-43571428D01*
X85404761Y-43666666D01*
X85357142Y-43714285D01*
X85261904Y-43761904D01*
X84976190Y-43761904D01*
X84880952Y-43714285D01*
X84833333Y-43666666D01*
X84785714Y-43571428D01*
X84785714Y-43380952D01*
X84833333Y-43285714D01*
X85452380Y-42380952D02*
X84452380Y-42380952D01*
X85404761Y-42380952D02*
X85452380Y-42476190D01*
X85452380Y-42666666D01*
X85404761Y-42761904D01*
X85357142Y-42809523D01*
X85261904Y-42857142D01*
X84976190Y-42857142D01*
X84880952Y-42809523D01*
X84833333Y-42761904D01*
X84785714Y-42666666D01*
X84785714Y-42476190D01*
X84833333Y-42380952D01*
X85452380Y-41904761D02*
X84785714Y-41904761D01*
X84976190Y-41904761D02*
X84880952Y-41857142D01*
X84833333Y-41809523D01*
X84785714Y-41714285D01*
X84785714Y-41619047D01*
X85404761Y-40904761D02*
X85452380Y-41000000D01*
X85452380Y-41190476D01*
X85404761Y-41285714D01*
X85309523Y-41333333D01*
X84928571Y-41333333D01*
X84833333Y-41285714D01*
X84785714Y-41190476D01*
X84785714Y-41000000D01*
X84833333Y-40904761D01*
X84928571Y-40857142D01*
X85023809Y-40857142D01*
X85119047Y-41333333D01*
X85404761Y-40476190D02*
X85452380Y-40380952D01*
X85452380Y-40190476D01*
X85404761Y-40095238D01*
X85309523Y-40047619D01*
X85261904Y-40047619D01*
X85166666Y-40095238D01*
X85119047Y-40190476D01*
X85119047Y-40333333D01*
X85071428Y-40428571D01*
X84976190Y-40476190D01*
X84928571Y-40476190D01*
X84833333Y-40428571D01*
X84785714Y-40333333D01*
X84785714Y-40190476D01*
X84833333Y-40095238D01*
X85404761Y-39666666D02*
X85452380Y-39571428D01*
X85452380Y-39380952D01*
X85404761Y-39285714D01*
X85309523Y-39238095D01*
X85261904Y-39238095D01*
X85166666Y-39285714D01*
X85119047Y-39380952D01*
X85119047Y-39523809D01*
X85071428Y-39619047D01*
X84976190Y-39666666D01*
X84928571Y-39666666D01*
X84833333Y-39619047D01*
X84785714Y-39523809D01*
X84785714Y-39380952D01*
X84833333Y-39285714D01*
X85404761Y-37666666D02*
X85452380Y-37761904D01*
X85452380Y-37952380D01*
X85404761Y-38047619D01*
X85309523Y-38095238D01*
X84928571Y-38095238D01*
X84833333Y-38047619D01*
X84785714Y-37952380D01*
X84785714Y-37761904D01*
X84833333Y-37666666D01*
X84928571Y-37619047D01*
X85023809Y-37619047D01*
X85119047Y-38095238D01*
X85452380Y-37285714D02*
X84785714Y-36761904D01*
X84785714Y-37285714D02*
X85452380Y-36761904D01*
X84785714Y-36523809D02*
X84785714Y-36142857D01*
X84452380Y-36380952D02*
X85309523Y-36380952D01*
X85404761Y-36333333D01*
X85452380Y-36238095D01*
X85452380Y-36142857D01*
X85404761Y-35428571D02*
X85452380Y-35523809D01*
X85452380Y-35714285D01*
X85404761Y-35809523D01*
X85309523Y-35857142D01*
X84928571Y-35857142D01*
X84833333Y-35809523D01*
X84785714Y-35714285D01*
X84785714Y-35523809D01*
X84833333Y-35428571D01*
X84928571Y-35380952D01*
X85023809Y-35380952D01*
X85119047Y-35857142D01*
X84785714Y-34952380D02*
X85452380Y-34952380D01*
X84880952Y-34952380D02*
X84833333Y-34904761D01*
X84785714Y-34809523D01*
X84785714Y-34666666D01*
X84833333Y-34571428D01*
X84928571Y-34523809D01*
X85452380Y-34523809D01*
X85404761Y-34095238D02*
X85452380Y-34000000D01*
X85452380Y-33809523D01*
X85404761Y-33714285D01*
X85309523Y-33666666D01*
X85261904Y-33666666D01*
X85166666Y-33714285D01*
X85119047Y-33809523D01*
X85119047Y-33952380D01*
X85071428Y-34047619D01*
X84976190Y-34095238D01*
X84928571Y-34095238D01*
X84833333Y-34047619D01*
X84785714Y-33952380D01*
X84785714Y-33809523D01*
X84833333Y-33714285D01*
X85452380Y-33238095D02*
X84785714Y-33238095D01*
X84452380Y-33238095D02*
X84500000Y-33285714D01*
X84547619Y-33238095D01*
X84500000Y-33190476D01*
X84452380Y-33238095D01*
X84547619Y-33238095D01*
X85452380Y-32619047D02*
X85404761Y-32714285D01*
X85357142Y-32761904D01*
X85261904Y-32809523D01*
X84976190Y-32809523D01*
X84880952Y-32761904D01*
X84833333Y-32714285D01*
X84785714Y-32619047D01*
X84785714Y-32476190D01*
X84833333Y-32380952D01*
X84880952Y-32333333D01*
X84976190Y-32285714D01*
X85261904Y-32285714D01*
X85357142Y-32333333D01*
X85404761Y-32380952D01*
X85452380Y-32476190D01*
X85452380Y-32619047D01*
X84785714Y-31857142D02*
X85452380Y-31857142D01*
X84880952Y-31857142D02*
X84833333Y-31809523D01*
X84785714Y-31714285D01*
X84785714Y-31571428D01*
X84833333Y-31476190D01*
X84928571Y-31428571D01*
X85452380Y-31428571D01*
X71952380Y-47952380D02*
X70952380Y-47952380D01*
X71666666Y-47619047D01*
X70952380Y-47285714D01*
X71952380Y-47285714D01*
X71952380Y-46809523D02*
X70952380Y-46809523D01*
X71666666Y-46476190D01*
X70952380Y-46142857D01*
X71952380Y-46142857D01*
X71952380Y-45142857D02*
X71952380Y-45714285D01*
X71952380Y-45428571D02*
X70952380Y-45428571D01*
X71095238Y-45523809D01*
X71190476Y-45619047D01*
X71238095Y-45714285D01*
X71952380Y-43952380D02*
X71285714Y-43952380D01*
X71380952Y-43952380D02*
X71333333Y-43904761D01*
X71285714Y-43809523D01*
X71285714Y-43666666D01*
X71333333Y-43571428D01*
X71428571Y-43523809D01*
X71952380Y-43523809D01*
X71428571Y-43523809D02*
X71333333Y-43476190D01*
X71285714Y-43380952D01*
X71285714Y-43238095D01*
X71333333Y-43142857D01*
X71428571Y-43095238D01*
X71952380Y-43095238D01*
X71904761Y-42238095D02*
X71952380Y-42333333D01*
X71952380Y-42523809D01*
X71904761Y-42619047D01*
X71809523Y-42666666D01*
X71428571Y-42666666D01*
X71333333Y-42619047D01*
X71285714Y-42523809D01*
X71285714Y-42333333D01*
X71333333Y-42238095D01*
X71428571Y-42190476D01*
X71523809Y-42190476D01*
X71619047Y-42666666D01*
X71952380Y-41761904D02*
X71285714Y-41761904D01*
X71380952Y-41761904D02*
X71333333Y-41714285D01*
X71285714Y-41619047D01*
X71285714Y-41476190D01*
X71333333Y-41380952D01*
X71428571Y-41333333D01*
X71952380Y-41333333D01*
X71428571Y-41333333D02*
X71333333Y-41285714D01*
X71285714Y-41190476D01*
X71285714Y-41047619D01*
X71333333Y-40952380D01*
X71428571Y-40904761D01*
X71952380Y-40904761D01*
X71952380Y-40285714D02*
X71904761Y-40380952D01*
X71857142Y-40428571D01*
X71761904Y-40476190D01*
X71476190Y-40476190D01*
X71380952Y-40428571D01*
X71333333Y-40380952D01*
X71285714Y-40285714D01*
X71285714Y-40142857D01*
X71333333Y-40047619D01*
X71380952Y-40000000D01*
X71476190Y-39952380D01*
X71761904Y-39952380D01*
X71857142Y-40000000D01*
X71904761Y-40047619D01*
X71952380Y-40142857D01*
X71952380Y-40285714D01*
X71952380Y-39523809D02*
X71285714Y-39523809D01*
X71476190Y-39523809D02*
X71380952Y-39476190D01*
X71333333Y-39428571D01*
X71285714Y-39333333D01*
X71285714Y-39238095D01*
X71285714Y-39000000D02*
X71952380Y-38761904D01*
X71285714Y-38523809D02*
X71952380Y-38761904D01*
X72190476Y-38857142D01*
X72238095Y-38904761D01*
X72285714Y-39000000D01*
X71904761Y-37428571D02*
X71952380Y-37333333D01*
X71952380Y-37142857D01*
X71904761Y-37047619D01*
X71809523Y-37000000D01*
X71761904Y-37000000D01*
X71666666Y-37047619D01*
X71619047Y-37142857D01*
X71619047Y-37285714D01*
X71571428Y-37380952D01*
X71476190Y-37428571D01*
X71428571Y-37428571D01*
X71333333Y-37380952D01*
X71285714Y-37285714D01*
X71285714Y-37142857D01*
X71333333Y-37047619D01*
X71952380Y-36428571D02*
X71904761Y-36523809D01*
X71809523Y-36571428D01*
X70952380Y-36571428D01*
X71952380Y-35904761D02*
X71904761Y-36000000D01*
X71857142Y-36047619D01*
X71761904Y-36095238D01*
X71476190Y-36095238D01*
X71380952Y-36047619D01*
X71333333Y-36000000D01*
X71285714Y-35904761D01*
X71285714Y-35761904D01*
X71333333Y-35666666D01*
X71380952Y-35619047D01*
X71476190Y-35571428D01*
X71761904Y-35571428D01*
X71857142Y-35619047D01*
X71904761Y-35666666D01*
X71952380Y-35761904D01*
X71952380Y-35904761D01*
X71285714Y-35285714D02*
X71285714Y-34904761D01*
X70952380Y-35142857D02*
X71809523Y-35142857D01*
X71904761Y-35095238D01*
X71952380Y-35000000D01*
X71952380Y-34904761D01*
X13095238Y-4500000D02*
X13000000Y-4452380D01*
X12857142Y-4452380D01*
X12714285Y-4500000D01*
X12619047Y-4595238D01*
X12571428Y-4690476D01*
X12523809Y-4880952D01*
X12523809Y-5023809D01*
X12571428Y-5214285D01*
X12619047Y-5309523D01*
X12714285Y-5404761D01*
X12857142Y-5452380D01*
X12952380Y-5452380D01*
X13095238Y-5404761D01*
X13142857Y-5357142D01*
X13142857Y-5023809D01*
X12952380Y-5023809D01*
X13571428Y-5357142D02*
X13619047Y-5404761D01*
X13571428Y-5452380D01*
X13523809Y-5404761D01*
X13571428Y-5357142D01*
X13571428Y-5452380D01*
X14571428Y-4500000D02*
X14476190Y-4452380D01*
X14333333Y-4452380D01*
X14190476Y-4500000D01*
X14095238Y-4595238D01*
X14047619Y-4690476D01*
X14000000Y-4880952D01*
X14000000Y-5023809D01*
X14047619Y-5214285D01*
X14095238Y-5309523D01*
X14190476Y-5404761D01*
X14333333Y-5452380D01*
X14428571Y-5452380D01*
X14571428Y-5404761D01*
X14619047Y-5357142D01*
X14619047Y-5023809D01*
X14428571Y-5023809D01*
X15476190Y-4785714D02*
X15476190Y-5452380D01*
X15047619Y-4785714D02*
X15047619Y-5309523D01*
X15095238Y-5404761D01*
X15190476Y-5452380D01*
X15333333Y-5452380D01*
X15428571Y-5404761D01*
X15476190Y-5357142D01*
X15952380Y-5452380D02*
X15952380Y-4785714D01*
X15952380Y-4452380D02*
X15904761Y-4500000D01*
X15952380Y-4547619D01*
X16000000Y-4500000D01*
X15952380Y-4452380D01*
X15952380Y-4547619D01*
X16571428Y-5452380D02*
X16476190Y-5404761D01*
X16428571Y-5309523D01*
X16428571Y-4452380D01*
X17095238Y-5452380D02*
X17000000Y-5404761D01*
X16952380Y-5309523D01*
X16952380Y-4452380D01*
X17857142Y-5404761D02*
X17761904Y-5452380D01*
X17571428Y-5452380D01*
X17476190Y-5404761D01*
X17428571Y-5309523D01*
X17428571Y-4928571D01*
X17476190Y-4833333D01*
X17571428Y-4785714D01*
X17761904Y-4785714D01*
X17857142Y-4833333D01*
X17904761Y-4928571D01*
X17904761Y-5023809D01*
X17428571Y-5119047D01*
X18190476Y-4785714D02*
X18571428Y-4785714D01*
X18333333Y-4452380D02*
X18333333Y-5309523D01*
X18380952Y-5404761D01*
X18476190Y-5452380D01*
X18571428Y-5452380D01*
X10738095Y-3452380D02*
X10738095Y-2452380D01*
X11071428Y-3166666D01*
X11404761Y-2452380D01*
X11404761Y-3452380D01*
X11880952Y-3452380D02*
X11880952Y-2452380D01*
X12214285Y-3166666D01*
X12547619Y-2452380D01*
X12547619Y-3452380D01*
X13547619Y-3452380D02*
X12976190Y-3452380D01*
X13261904Y-3452380D02*
X13261904Y-2452380D01*
X13166666Y-2595238D01*
X13071428Y-2690476D01*
X12976190Y-2738095D01*
X13738095Y-3547619D02*
X14500000Y-3547619D01*
X14642857Y-2452380D02*
X14880952Y-3452380D01*
X15071428Y-2738095D01*
X15261904Y-3452380D01*
X15500000Y-2452380D01*
X15880952Y-3452380D02*
X15880952Y-2785714D01*
X15880952Y-2976190D02*
X15928571Y-2880952D01*
X15976190Y-2833333D01*
X16071428Y-2785714D01*
X16166666Y-2785714D01*
X16500000Y-3452380D02*
X16500000Y-2785714D01*
X16500000Y-2452380D02*
X16452380Y-2500000D01*
X16500000Y-2547619D01*
X16547619Y-2500000D01*
X16500000Y-2452380D01*
X16500000Y-2547619D01*
X16833333Y-2785714D02*
X17214285Y-2785714D01*
X16976190Y-2452380D02*
X16976190Y-3309523D01*
X17023809Y-3404761D01*
X17119047Y-3452380D01*
X17214285Y-3452380D01*
X17928571Y-3404761D02*
X17833333Y-3452380D01*
X17642857Y-3452380D01*
X17547619Y-3404761D01*
X17500000Y-3309523D01*
X17500000Y-2928571D01*
X17547619Y-2833333D01*
X17642857Y-2785714D01*
X17833333Y-2785714D01*
X17928571Y-2833333D01*
X17976190Y-2928571D01*
X17976190Y-3023809D01*
X17500000Y-3119047D01*
X18404761Y-3452380D02*
X18404761Y-2785714D01*
X18404761Y-2976190D02*
X18452380Y-2880952D01*
X18500000Y-2833333D01*
X18595238Y-2785714D01*
X18690476Y-2785714D01*
X20357142Y-3452380D02*
X20023809Y-2976190D01*
X19785714Y-3452380D02*
X19785714Y-2452380D01*
X20166666Y-2452380D01*
X20261904Y-2500000D01*
X20309523Y-2547619D01*
X20357142Y-2642857D01*
X20357142Y-2785714D01*
X20309523Y-2880952D01*
X20261904Y-2928571D01*
X20166666Y-2976190D01*
X19785714Y-2976190D01*
X21309523Y-3452380D02*
X20738095Y-3452380D01*
X21023809Y-3452380D02*
X21023809Y-2452380D01*
X20928571Y-2595238D01*
X20833333Y-2690476D01*
X20738095Y-2738095D01*
X82600000Y-6000000D02*
X82600000Y-45000000D01*
X72600000Y-4000000D02*
X72600000Y-6000000D01*
X82600000Y-4000000D02*
X72600000Y-4000000D01*
X82600000Y-6000000D02*
X82600000Y-4000000D01*
X72600000Y-48000000D02*
X72600000Y-46000000D01*
X79100000Y-48000000D02*
X72600000Y-48000000D01*
X72600000Y-46000000D02*
X72600000Y-43000000D01*
X72600000Y-43000000D02*
X72600000Y-6000000D01*
D12*
X18290000Y-39058578D02*
X18290000Y-38541422D01*
X19710000Y-39058578D02*
X19710000Y-38541422D01*
X34590000Y-39158578D02*
X34590000Y-38641422D01*
X36010000Y-39158578D02*
X36010000Y-38641422D01*
X27610000Y-18158578D02*
X27610000Y-17641422D01*
X26190000Y-18158578D02*
X26190000Y-17641422D01*
X27610000Y-21341422D02*
X27610000Y-21858578D01*
X26190000Y-21341422D02*
X26190000Y-21858578D01*
X23890000Y-21341422D02*
X23890000Y-21858578D01*
X25310000Y-21341422D02*
X25310000Y-21858578D01*
X47005000Y-42500000D02*
X47005000Y-40550000D01*
X47005000Y-42500000D02*
X47005000Y-44450000D01*
X36885000Y-42500000D02*
X36885000Y-40550000D01*
X36885000Y-42500000D02*
X36885000Y-45950000D01*
X25335000Y-18161252D02*
X25335000Y-17638748D01*
X23865000Y-18161252D02*
X23865000Y-17638748D01*
X50165000Y-39061252D02*
X50165000Y-38538748D01*
X51635000Y-39061252D02*
X51635000Y-38538748D01*
X14820000Y-20500000D02*
X14320000Y-21000000D01*
X14820000Y-21500000D02*
X14820000Y-20500000D01*
X14320000Y-21000000D02*
X14820000Y-21500000D01*
X-2620000Y-13590000D02*
X5740000Y-13590000D01*
X-2620000Y-25910000D02*
X-2620000Y-13590000D01*
X5740000Y-25910000D02*
X-2620000Y-25910000D01*
X14100000Y-13590000D02*
X9840000Y-13590000D01*
X14100000Y-25910000D02*
X14100000Y-13590000D01*
X9840000Y-25910000D02*
X14100000Y-25910000D01*
X10000000Y-31670000D02*
X11110000Y-31670000D01*
X11110000Y-31670000D02*
X11110000Y-33000000D01*
X-90000Y-31670000D02*
X-90000Y-41950000D01*
X-90000Y-41950000D02*
X8540000Y-41950000D01*
X8540000Y-31670000D02*
X8540000Y-41950000D01*
X-90000Y-31670000D02*
X8540000Y-31670000D01*
X-90000Y-39350000D02*
X8540000Y-39350000D01*
X-90000Y-36810000D02*
X8540000Y-36810000D01*
X-90000Y-34270000D02*
X8540000Y-34270000D01*
X8540000Y-40980000D02*
X8950000Y-40980000D01*
X8540000Y-40260000D02*
X8950000Y-40260000D01*
X8540000Y-38440000D02*
X8950000Y-38440000D01*
X8540000Y-37720000D02*
X8950000Y-37720000D01*
X8540000Y-35900000D02*
X8950000Y-35900000D01*
X8540000Y-35180000D02*
X8950000Y-35180000D01*
X8540000Y-33360000D02*
X8890000Y-33360000D01*
X8540000Y-32640000D02*
X8890000Y-32640000D01*
X-90000Y-34151900D02*
X8540000Y-34151900D01*
X-90000Y-34033805D02*
X8540000Y-34033805D01*
X-90000Y-33915710D02*
X8540000Y-33915710D01*
X-90000Y-33797615D02*
X8540000Y-33797615D01*
X-90000Y-33679520D02*
X8540000Y-33679520D01*
X-90000Y-33561425D02*
X8540000Y-33561425D01*
X-90000Y-33443330D02*
X8540000Y-33443330D01*
X-90000Y-33325235D02*
X8540000Y-33325235D01*
X-90000Y-33207140D02*
X8540000Y-33207140D01*
X-90000Y-33089045D02*
X8540000Y-33089045D01*
X-90000Y-32970950D02*
X8540000Y-32970950D01*
X-90000Y-32852855D02*
X8540000Y-32852855D01*
X-90000Y-32734760D02*
X8540000Y-32734760D01*
X-90000Y-32616665D02*
X8540000Y-32616665D01*
X-90000Y-32498570D02*
X8540000Y-32498570D01*
X-90000Y-32380475D02*
X8540000Y-32380475D01*
X-90000Y-32262380D02*
X8540000Y-32262380D01*
X-90000Y-32144285D02*
X8540000Y-32144285D01*
X-90000Y-32026190D02*
X8540000Y-32026190D01*
X-90000Y-31908095D02*
X8540000Y-31908095D01*
X-90000Y-31790000D02*
X8540000Y-31790000D01*
X97180000Y-39000000D02*
X96180000Y-39500000D01*
X97180000Y-40000000D02*
X97180000Y-39000000D01*
X96180000Y-39500000D02*
X97180000Y-40000000D01*
X94480000Y-32370000D02*
X95790000Y-32370000D01*
X94480000Y-32370000D02*
X94480000Y-32370000D01*
X94480000Y-25430000D02*
X94480000Y-32370000D01*
X87980000Y-25430000D02*
X94480000Y-25430000D01*
X87980000Y-43410000D02*
X87980000Y-25430000D01*
X94480000Y-43410000D02*
X87980000Y-43410000D01*
X94480000Y-36470000D02*
X94480000Y-43410000D01*
X95790000Y-36470000D02*
X94480000Y-36470000D01*
X95790000Y-24130000D02*
X95790000Y-44710000D01*
X86670000Y-24130000D02*
X95790000Y-24130000D01*
X86670000Y-44710000D02*
X86670000Y-24130000D01*
X95790000Y-44710000D02*
X86670000Y-44710000D01*
X31390000Y-14690000D02*
X30075000Y-14690000D01*
X31390000Y-14390000D02*
X31390000Y-14690000D01*
X31690000Y-14390000D02*
X31390000Y-14390000D01*
X38610000Y-14390000D02*
X38610000Y-14690000D01*
X38310000Y-14390000D02*
X38610000Y-14390000D01*
X31390000Y-21610000D02*
X31390000Y-21310000D01*
X31690000Y-21610000D02*
X31390000Y-21610000D01*
X38610000Y-21610000D02*
X38610000Y-21310000D01*
X38310000Y-21610000D02*
X38610000Y-21610000D01*
X20440000Y-42500000D02*
X20440000Y-45950000D01*
X20440000Y-42500000D02*
X20440000Y-40550000D01*
X30560000Y-42500000D02*
X30560000Y-44450000D01*
X30560000Y-42500000D02*
X30560000Y-40550000D01*
X62560000Y-42500000D02*
X62560000Y-40550000D01*
X62560000Y-42500000D02*
X62560000Y-44450000D01*
X52440000Y-42500000D02*
X52440000Y-40550000D01*
X52440000Y-42500000D02*
X52440000Y-45950000D01*
X24170000Y-3060000D02*
X31910000Y-3060000D01*
X31910000Y-3060000D02*
X31910000Y-400000D01*
X31910000Y-400000D02*
X24170000Y-400000D01*
X24170000Y-400000D02*
X24170000Y-3060000D01*
X25120000Y-400000D02*
X25120000Y5600000D01*
X25120000Y5600000D02*
X25880000Y5600000D01*
X25880000Y5600000D02*
X25880000Y-400000D01*
X25180000Y-400000D02*
X25180000Y5600000D01*
X25300000Y-400000D02*
X25300000Y5600000D01*
X25420000Y-400000D02*
X25420000Y5600000D01*
X25540000Y-400000D02*
X25540000Y5600000D01*
X25660000Y-400000D02*
X25660000Y5600000D01*
X25780000Y-400000D02*
X25780000Y5600000D01*
X25120000Y-3390000D02*
X25120000Y-3060000D01*
X25880000Y-3390000D02*
X25880000Y-3060000D01*
X26770000Y-3060000D02*
X26770000Y-400000D01*
X27660000Y-400000D02*
X27660000Y5600000D01*
X27660000Y5600000D02*
X28420000Y5600000D01*
X28420000Y5600000D02*
X28420000Y-400000D01*
X27660000Y-3457071D02*
X27660000Y-3060000D01*
X28420000Y-3457071D02*
X28420000Y-3060000D01*
X29310000Y-3060000D02*
X29310000Y-400000D01*
X30200000Y-400000D02*
X30200000Y5600000D01*
X30200000Y5600000D02*
X30960000Y5600000D01*
X30960000Y5600000D02*
X30960000Y-400000D01*
X30200000Y-3457071D02*
X30200000Y-3060000D01*
X30960000Y-3457071D02*
X30960000Y-3060000D01*
X25500000Y-5770000D02*
X24230000Y-5770000D01*
X24230000Y-5770000D02*
X24230000Y-4500000D01*
D10*
X72666666Y-48952380D02*
X72666666Y-49666666D01*
X72619047Y-49809523D01*
X72523809Y-49904761D01*
X72380952Y-49952380D01*
X72285714Y-49952380D01*
X73047619Y-48952380D02*
X73666666Y-48952380D01*
X73333333Y-49333333D01*
X73476190Y-49333333D01*
X73571428Y-49380952D01*
X73619047Y-49428571D01*
X73666666Y-49523809D01*
X73666666Y-49761904D01*
X73619047Y-49857142D01*
X73571428Y-49904761D01*
X73476190Y-49952380D01*
X73190476Y-49952380D01*
X73095238Y-49904761D01*
X73047619Y-49857142D01*
X17707142Y-38966666D02*
X17754761Y-39014285D01*
X17802380Y-39157142D01*
X17802380Y-39252380D01*
X17754761Y-39395238D01*
X17659523Y-39490476D01*
X17564285Y-39538095D01*
X17373809Y-39585714D01*
X17230952Y-39585714D01*
X17040476Y-39538095D01*
X16945238Y-39490476D01*
X16850000Y-39395238D01*
X16802380Y-39252380D01*
X16802380Y-39157142D01*
X16850000Y-39014285D01*
X16897619Y-38966666D01*
X16897619Y-38585714D02*
X16850000Y-38538095D01*
X16802380Y-38442857D01*
X16802380Y-38204761D01*
X16850000Y-38109523D01*
X16897619Y-38061904D01*
X16992857Y-38014285D01*
X17088095Y-38014285D01*
X17230952Y-38061904D01*
X17802380Y-38633333D01*
X17802380Y-38014285D01*
X34007142Y-39066666D02*
X34054761Y-39114285D01*
X34102380Y-39257142D01*
X34102380Y-39352380D01*
X34054761Y-39495238D01*
X33959523Y-39590476D01*
X33864285Y-39638095D01*
X33673809Y-39685714D01*
X33530952Y-39685714D01*
X33340476Y-39638095D01*
X33245238Y-39590476D01*
X33150000Y-39495238D01*
X33102380Y-39352380D01*
X33102380Y-39257142D01*
X33150000Y-39114285D01*
X33197619Y-39066666D01*
X33102380Y-38733333D02*
X33102380Y-38114285D01*
X33483333Y-38447619D01*
X33483333Y-38304761D01*
X33530952Y-38209523D01*
X33578571Y-38161904D01*
X33673809Y-38114285D01*
X33911904Y-38114285D01*
X34007142Y-38161904D01*
X34054761Y-38209523D01*
X34102380Y-38304761D01*
X34102380Y-38590476D01*
X34054761Y-38685714D01*
X34007142Y-38733333D01*
X29257142Y-18066666D02*
X29304761Y-18114285D01*
X29352380Y-18257142D01*
X29352380Y-18352380D01*
X29304761Y-18495238D01*
X29209523Y-18590476D01*
X29114285Y-18638095D01*
X28923809Y-18685714D01*
X28780952Y-18685714D01*
X28590476Y-18638095D01*
X28495238Y-18590476D01*
X28400000Y-18495238D01*
X28352380Y-18352380D01*
X28352380Y-18257142D01*
X28400000Y-18114285D01*
X28447619Y-18066666D01*
X28685714Y-17209523D02*
X29352380Y-17209523D01*
X28304761Y-17447619D02*
X29019047Y-17685714D01*
X29019047Y-17066666D01*
X29107142Y-21666666D02*
X29154761Y-21714285D01*
X29202380Y-21857142D01*
X29202380Y-21952380D01*
X29154761Y-22095238D01*
X29059523Y-22190476D01*
X28964285Y-22238095D01*
X28773809Y-22285714D01*
X28630952Y-22285714D01*
X28440476Y-22238095D01*
X28345238Y-22190476D01*
X28250000Y-22095238D01*
X28202380Y-21952380D01*
X28202380Y-21857142D01*
X28250000Y-21714285D01*
X28297619Y-21666666D01*
X28202380Y-20809523D02*
X28202380Y-21000000D01*
X28250000Y-21095238D01*
X28297619Y-21142857D01*
X28440476Y-21238095D01*
X28630952Y-21285714D01*
X29011904Y-21285714D01*
X29107142Y-21238095D01*
X29154761Y-21190476D01*
X29202380Y-21095238D01*
X29202380Y-20904761D01*
X29154761Y-20809523D01*
X29107142Y-20761904D01*
X29011904Y-20714285D01*
X28773809Y-20714285D01*
X28678571Y-20761904D01*
X28630952Y-20809523D01*
X28583333Y-20904761D01*
X28583333Y-21095238D01*
X28630952Y-21190476D01*
X28678571Y-21238095D01*
X28773809Y-21285714D01*
X22957142Y-21829166D02*
X23004761Y-21876785D01*
X23052380Y-22019642D01*
X23052380Y-22114880D01*
X23004761Y-22257738D01*
X22909523Y-22352976D01*
X22814285Y-22400595D01*
X22623809Y-22448214D01*
X22480952Y-22448214D01*
X22290476Y-22400595D01*
X22195238Y-22352976D01*
X22100000Y-22257738D01*
X22052380Y-22114880D01*
X22052380Y-22019642D01*
X22100000Y-21876785D01*
X22147619Y-21829166D01*
X22480952Y-21257738D02*
X22433333Y-21352976D01*
X22385714Y-21400595D01*
X22290476Y-21448214D01*
X22242857Y-21448214D01*
X22147619Y-21400595D01*
X22100000Y-21352976D01*
X22052380Y-21257738D01*
X22052380Y-21067261D01*
X22100000Y-20972023D01*
X22147619Y-20924404D01*
X22242857Y-20876785D01*
X22290476Y-20876785D01*
X22385714Y-20924404D01*
X22433333Y-20972023D01*
X22480952Y-21067261D01*
X22480952Y-21257738D01*
X22528571Y-21352976D01*
X22576190Y-21400595D01*
X22671428Y-21448214D01*
X22861904Y-21448214D01*
X22957142Y-21400595D01*
X23004761Y-21352976D01*
X23052380Y-21257738D01*
X23052380Y-21067261D01*
X23004761Y-20972023D01*
X22957142Y-20924404D01*
X22861904Y-20876785D01*
X22671428Y-20876785D01*
X22576190Y-20924404D01*
X22528571Y-20972023D01*
X22480952Y-21067261D01*
X35497380Y-43261904D02*
X36306904Y-43261904D01*
X36402142Y-43214285D01*
X36449761Y-43166666D01*
X36497380Y-43071428D01*
X36497380Y-42880952D01*
X36449761Y-42785714D01*
X36402142Y-42738095D01*
X36306904Y-42690476D01*
X35497380Y-42690476D01*
X35497380Y-42309523D02*
X35497380Y-41690476D01*
X35878333Y-42023809D01*
X35878333Y-41880952D01*
X35925952Y-41785714D01*
X35973571Y-41738095D01*
X36068809Y-41690476D01*
X36306904Y-41690476D01*
X36402142Y-41738095D01*
X36449761Y-41785714D01*
X36497380Y-41880952D01*
X36497380Y-42166666D01*
X36449761Y-42261904D01*
X36402142Y-42309523D01*
X23277142Y-18066666D02*
X23324761Y-18114285D01*
X23372380Y-18257142D01*
X23372380Y-18352380D01*
X23324761Y-18495238D01*
X23229523Y-18590476D01*
X23134285Y-18638095D01*
X22943809Y-18685714D01*
X22800952Y-18685714D01*
X22610476Y-18638095D01*
X22515238Y-18590476D01*
X22420000Y-18495238D01*
X22372380Y-18352380D01*
X22372380Y-18257142D01*
X22420000Y-18114285D01*
X22467619Y-18066666D01*
X22372380Y-17161904D02*
X22372380Y-17638095D01*
X22848571Y-17685714D01*
X22800952Y-17638095D01*
X22753333Y-17542857D01*
X22753333Y-17304761D01*
X22800952Y-17209523D01*
X22848571Y-17161904D01*
X22943809Y-17114285D01*
X23181904Y-17114285D01*
X23277142Y-17161904D01*
X23324761Y-17209523D01*
X23372380Y-17304761D01*
X23372380Y-17542857D01*
X23324761Y-17638095D01*
X23277142Y-17685714D01*
X49577142Y-38966666D02*
X49624761Y-39014285D01*
X49672380Y-39157142D01*
X49672380Y-39252380D01*
X49624761Y-39395238D01*
X49529523Y-39490476D01*
X49434285Y-39538095D01*
X49243809Y-39585714D01*
X49100952Y-39585714D01*
X48910476Y-39538095D01*
X48815238Y-39490476D01*
X48720000Y-39395238D01*
X48672380Y-39252380D01*
X48672380Y-39157142D01*
X48720000Y-39014285D01*
X48767619Y-38966666D01*
X48672380Y-38633333D02*
X48672380Y-37966666D01*
X49672380Y-38395238D01*
X4238095Y-9952380D02*
X4238095Y-8952380D01*
X4238095Y-9428571D02*
X4809523Y-9428571D01*
X4809523Y-9952380D02*
X4809523Y-8952380D01*
X5809523Y-9952380D02*
X5238095Y-9952380D01*
X5523809Y-9952380D02*
X5523809Y-8952380D01*
X5428571Y-9095238D01*
X5333333Y-9190476D01*
X5238095Y-9238095D01*
X95738095Y-9952380D02*
X95738095Y-8952380D01*
X95738095Y-9428571D02*
X96309523Y-9428571D01*
X96309523Y-9952380D02*
X96309523Y-8952380D01*
X96738095Y-9047619D02*
X96785714Y-9000000D01*
X96880952Y-8952380D01*
X97119047Y-8952380D01*
X97214285Y-9000000D01*
X97261904Y-9047619D01*
X97309523Y-9142857D01*
X97309523Y-9238095D01*
X97261904Y-9380952D01*
X96690476Y-9952380D01*
X97309523Y-9952380D01*
X4238095Y-46952380D02*
X4238095Y-45952380D01*
X4238095Y-46428571D02*
X4809523Y-46428571D01*
X4809523Y-46952380D02*
X4809523Y-45952380D01*
X5190476Y-45952380D02*
X5809523Y-45952380D01*
X5476190Y-46333333D01*
X5619047Y-46333333D01*
X5714285Y-46380952D01*
X5761904Y-46428571D01*
X5809523Y-46523809D01*
X5809523Y-46761904D01*
X5761904Y-46857142D01*
X5714285Y-46904761D01*
X5619047Y-46952380D01*
X5333333Y-46952380D01*
X5238095Y-46904761D01*
X5190476Y-46857142D01*
X95738095Y-46952380D02*
X95738095Y-45952380D01*
X95738095Y-46428571D02*
X96309523Y-46428571D01*
X96309523Y-46952380D02*
X96309523Y-45952380D01*
X97214285Y-46285714D02*
X97214285Y-46952380D01*
X96976190Y-45904761D02*
X96738095Y-46619047D01*
X97357142Y-46619047D01*
X15166666Y-25452380D02*
X15166666Y-26166666D01*
X15119047Y-26309523D01*
X15023809Y-26404761D01*
X14880952Y-26452380D01*
X14785714Y-26452380D01*
X16166666Y-26452380D02*
X15595238Y-26452380D01*
X15880952Y-26452380D02*
X15880952Y-25452380D01*
X15785714Y-25595238D01*
X15690476Y-25690476D01*
X15595238Y-25738095D01*
X5286666Y-29682380D02*
X5286666Y-30396666D01*
X5239047Y-30539523D01*
X5143809Y-30634761D01*
X5000952Y-30682380D01*
X4905714Y-30682380D01*
X5715238Y-29777619D02*
X5762857Y-29730000D01*
X5858095Y-29682380D01*
X6096190Y-29682380D01*
X6191428Y-29730000D01*
X6239047Y-29777619D01*
X6286666Y-29872857D01*
X6286666Y-29968095D01*
X6239047Y-30110952D01*
X5667619Y-30682380D01*
X6286666Y-30682380D01*
X87166666Y-45952380D02*
X87166666Y-46666666D01*
X87119047Y-46809523D01*
X87023809Y-46904761D01*
X86880952Y-46952380D01*
X86785714Y-46952380D01*
X88071428Y-46285714D02*
X88071428Y-46952380D01*
X87833333Y-45904761D02*
X87595238Y-46619047D01*
X88214285Y-46619047D01*
X34238095Y-10952380D02*
X34238095Y-11761904D01*
X34285714Y-11857142D01*
X34333333Y-11904761D01*
X34428571Y-11952380D01*
X34619047Y-11952380D01*
X34714285Y-11904761D01*
X34761904Y-11857142D01*
X34809523Y-11761904D01*
X34809523Y-10952380D01*
X35809523Y-11952380D02*
X35238095Y-11952380D01*
X35523809Y-11952380D02*
X35523809Y-10952380D01*
X35428571Y-11095238D01*
X35333333Y-11190476D01*
X35238095Y-11238095D01*
X19052380Y-43261904D02*
X19861904Y-43261904D01*
X19957142Y-43214285D01*
X20004761Y-43166666D01*
X20052380Y-43071428D01*
X20052380Y-42880952D01*
X20004761Y-42785714D01*
X19957142Y-42738095D01*
X19861904Y-42690476D01*
X19052380Y-42690476D01*
X19147619Y-42261904D02*
X19100000Y-42214285D01*
X19052380Y-42119047D01*
X19052380Y-41880952D01*
X19100000Y-41785714D01*
X19147619Y-41738095D01*
X19242857Y-41690476D01*
X19338095Y-41690476D01*
X19480952Y-41738095D01*
X20052380Y-42309523D01*
X20052380Y-41690476D01*
X51052380Y-43261904D02*
X51861904Y-43261904D01*
X51957142Y-43214285D01*
X52004761Y-43166666D01*
X52052380Y-43071428D01*
X52052380Y-42880952D01*
X52004761Y-42785714D01*
X51957142Y-42738095D01*
X51861904Y-42690476D01*
X51052380Y-42690476D01*
X51385714Y-41785714D02*
X52052380Y-41785714D01*
X51004761Y-42023809D02*
X51719047Y-42261904D01*
X51719047Y-41642857D01*
X33166666Y-1952380D02*
X33166666Y-2666666D01*
X33119047Y-2809523D01*
X33023809Y-2904761D01*
X32880952Y-2952380D01*
X32785714Y-2952380D01*
X34119047Y-1952380D02*
X33642857Y-1952380D01*
X33595238Y-2428571D01*
X33642857Y-2380952D01*
X33738095Y-2333333D01*
X33976190Y-2333333D01*
X34071428Y-2380952D01*
X34119047Y-2428571D01*
X34166666Y-2523809D01*
X34166666Y-2761904D01*
X34119047Y-2857142D01*
X34071428Y-2904761D01*
X33976190Y-2952380D01*
X33738095Y-2952380D01*
X33642857Y-2904761D01*
X33595238Y-2857142D01*
M02*
