G04 #@! TF.GenerationSoftware,KiCad,Pcbnew,(5.1.8)-1*
G04 #@! TF.CreationDate,2020-11-26T11:10:08+01:00*
G04 #@! TF.ProjectId,MM1_Writer,4d4d315f-5772-4697-9465-722e6b696361,R1*
G04 #@! TF.SameCoordinates,PX4692680PY3938700*
G04 #@! TF.FileFunction,Copper,L1,Top*
G04 #@! TF.FilePolarity,Positive*
%FSLAX46Y46*%
G04 Gerber Fmt 4.6, Leading zero omitted, Abs format (unit mm)*
G04 Created by KiCad (PCBNEW (5.1.8)-1) date 2020-11-26 11:10:08*
%MOMM*%
%LPD*%
G01*
G04 APERTURE LIST*
G04 #@! TA.AperFunction,ComponentPad*
%ADD10C,2.000000*%
G04 #@! TD*
G04 #@! TA.AperFunction,ComponentPad*
%ADD11R,1.700000X1.700000*%
G04 #@! TD*
G04 #@! TA.AperFunction,ComponentPad*
%ADD12C,1.700000*%
G04 #@! TD*
G04 #@! TA.AperFunction,ComponentPad*
%ADD13C,3.500000*%
G04 #@! TD*
G04 #@! TA.AperFunction,ComponentPad*
%ADD14O,1.700000X1.700000*%
G04 #@! TD*
G04 #@! TA.AperFunction,ViaPad*
%ADD15C,0.450000*%
G04 #@! TD*
G04 #@! TA.AperFunction,Conductor*
%ADD16C,0.300000*%
G04 #@! TD*
G04 #@! TA.AperFunction,Conductor*
%ADD17C,0.200000*%
G04 #@! TD*
G04 #@! TA.AperFunction,Conductor*
%ADD18C,0.254000*%
G04 #@! TD*
G04 #@! TA.AperFunction,Conductor*
%ADD19C,0.100000*%
G04 #@! TD*
G04 APERTURE END LIST*
D10*
X80000000Y-8310000D03*
X75140000Y-8310000D03*
X80000000Y-10850000D03*
X75140000Y-10850000D03*
X80000000Y-13390000D03*
X75140000Y-13390000D03*
X80000000Y-15930000D03*
X75140000Y-15930000D03*
X80000000Y-18470000D03*
X75140000Y-18470000D03*
X80000000Y-21010000D03*
X75140000Y-21010000D03*
X80000000Y-23550000D03*
X75140000Y-23550000D03*
X80000000Y-26090000D03*
X75140000Y-26090000D03*
X80000000Y-28630000D03*
X75140000Y-28630000D03*
X80000000Y-31170000D03*
X75140000Y-31170000D03*
X80000000Y-33710000D03*
X75140000Y-33710000D03*
X80000000Y-36250000D03*
X75140000Y-36250000D03*
X80000000Y-38790000D03*
X75140000Y-38790000D03*
X80000000Y-41330000D03*
X75140000Y-41330000D03*
X80000000Y-43860000D03*
X75140000Y-43870000D03*
G04 #@! TA.AperFunction,SMDPad,CuDef*
G36*
G01*
X19456250Y-38350000D02*
X18543750Y-38350000D01*
G75*
G02*
X18300000Y-38106250I0J243750D01*
G01*
X18300000Y-37618750D01*
G75*
G02*
X18543750Y-37375000I243750J0D01*
G01*
X19456250Y-37375000D01*
G75*
G02*
X19700000Y-37618750I0J-243750D01*
G01*
X19700000Y-38106250D01*
G75*
G02*
X19456250Y-38350000I-243750J0D01*
G01*
G37*
G04 #@! TD.AperFunction*
G04 #@! TA.AperFunction,SMDPad,CuDef*
G36*
G01*
X19456250Y-40225000D02*
X18543750Y-40225000D01*
G75*
G02*
X18300000Y-39981250I0J243750D01*
G01*
X18300000Y-39493750D01*
G75*
G02*
X18543750Y-39250000I243750J0D01*
G01*
X19456250Y-39250000D01*
G75*
G02*
X19700000Y-39493750I0J-243750D01*
G01*
X19700000Y-39981250D01*
G75*
G02*
X19456250Y-40225000I-243750J0D01*
G01*
G37*
G04 #@! TD.AperFunction*
G04 #@! TA.AperFunction,SMDPad,CuDef*
G36*
G01*
X35756250Y-38450000D02*
X34843750Y-38450000D01*
G75*
G02*
X34600000Y-38206250I0J243750D01*
G01*
X34600000Y-37718750D01*
G75*
G02*
X34843750Y-37475000I243750J0D01*
G01*
X35756250Y-37475000D01*
G75*
G02*
X36000000Y-37718750I0J-243750D01*
G01*
X36000000Y-38206250D01*
G75*
G02*
X35756250Y-38450000I-243750J0D01*
G01*
G37*
G04 #@! TD.AperFunction*
G04 #@! TA.AperFunction,SMDPad,CuDef*
G36*
G01*
X35756250Y-40325000D02*
X34843750Y-40325000D01*
G75*
G02*
X34600000Y-40081250I0J243750D01*
G01*
X34600000Y-39593750D01*
G75*
G02*
X34843750Y-39350000I243750J0D01*
G01*
X35756250Y-39350000D01*
G75*
G02*
X36000000Y-39593750I0J-243750D01*
G01*
X36000000Y-40081250D01*
G75*
G02*
X35756250Y-40325000I-243750J0D01*
G01*
G37*
G04 #@! TD.AperFunction*
G04 #@! TA.AperFunction,SMDPad,CuDef*
G36*
G01*
X27356250Y-19325000D02*
X26443750Y-19325000D01*
G75*
G02*
X26200000Y-19081250I0J243750D01*
G01*
X26200000Y-18593750D01*
G75*
G02*
X26443750Y-18350000I243750J0D01*
G01*
X27356250Y-18350000D01*
G75*
G02*
X27600000Y-18593750I0J-243750D01*
G01*
X27600000Y-19081250D01*
G75*
G02*
X27356250Y-19325000I-243750J0D01*
G01*
G37*
G04 #@! TD.AperFunction*
G04 #@! TA.AperFunction,SMDPad,CuDef*
G36*
G01*
X27356250Y-17450000D02*
X26443750Y-17450000D01*
G75*
G02*
X26200000Y-17206250I0J243750D01*
G01*
X26200000Y-16718750D01*
G75*
G02*
X26443750Y-16475000I243750J0D01*
G01*
X27356250Y-16475000D01*
G75*
G02*
X27600000Y-16718750I0J-243750D01*
G01*
X27600000Y-17206250D01*
G75*
G02*
X27356250Y-17450000I-243750J0D01*
G01*
G37*
G04 #@! TD.AperFunction*
G04 #@! TA.AperFunction,SMDPad,CuDef*
G36*
G01*
X26443750Y-22050000D02*
X27356250Y-22050000D01*
G75*
G02*
X27600000Y-22293750I0J-243750D01*
G01*
X27600000Y-22781250D01*
G75*
G02*
X27356250Y-23025000I-243750J0D01*
G01*
X26443750Y-23025000D01*
G75*
G02*
X26200000Y-22781250I0J243750D01*
G01*
X26200000Y-22293750D01*
G75*
G02*
X26443750Y-22050000I243750J0D01*
G01*
G37*
G04 #@! TD.AperFunction*
G04 #@! TA.AperFunction,SMDPad,CuDef*
G36*
G01*
X26443750Y-20175000D02*
X27356250Y-20175000D01*
G75*
G02*
X27600000Y-20418750I0J-243750D01*
G01*
X27600000Y-20906250D01*
G75*
G02*
X27356250Y-21150000I-243750J0D01*
G01*
X26443750Y-21150000D01*
G75*
G02*
X26200000Y-20906250I0J243750D01*
G01*
X26200000Y-20418750D01*
G75*
G02*
X26443750Y-20175000I243750J0D01*
G01*
G37*
G04 #@! TD.AperFunction*
G04 #@! TA.AperFunction,SMDPad,CuDef*
G36*
G01*
X24143750Y-20175000D02*
X25056250Y-20175000D01*
G75*
G02*
X25300000Y-20418750I0J-243750D01*
G01*
X25300000Y-20906250D01*
G75*
G02*
X25056250Y-21150000I-243750J0D01*
G01*
X24143750Y-21150000D01*
G75*
G02*
X23900000Y-20906250I0J243750D01*
G01*
X23900000Y-20418750D01*
G75*
G02*
X24143750Y-20175000I243750J0D01*
G01*
G37*
G04 #@! TD.AperFunction*
G04 #@! TA.AperFunction,SMDPad,CuDef*
G36*
G01*
X24143750Y-22050000D02*
X25056250Y-22050000D01*
G75*
G02*
X25300000Y-22293750I0J-243750D01*
G01*
X25300000Y-22781250D01*
G75*
G02*
X25056250Y-23025000I-243750J0D01*
G01*
X24143750Y-23025000D01*
G75*
G02*
X23900000Y-22781250I0J243750D01*
G01*
X23900000Y-22293750D01*
G75*
G02*
X24143750Y-22050000I243750J0D01*
G01*
G37*
G04 #@! TD.AperFunction*
G04 #@! TA.AperFunction,SMDPad,CuDef*
G36*
G01*
X37650000Y-41000000D02*
X37350000Y-41000000D01*
G75*
G02*
X37200000Y-40850000I0J150000D01*
G01*
X37200000Y-39200000D01*
G75*
G02*
X37350000Y-39050000I150000J0D01*
G01*
X37650000Y-39050000D01*
G75*
G02*
X37800000Y-39200000I0J-150000D01*
G01*
X37800000Y-40850000D01*
G75*
G02*
X37650000Y-41000000I-150000J0D01*
G01*
G37*
G04 #@! TD.AperFunction*
G04 #@! TA.AperFunction,SMDPad,CuDef*
G36*
G01*
X38920000Y-41000000D02*
X38620000Y-41000000D01*
G75*
G02*
X38470000Y-40850000I0J150000D01*
G01*
X38470000Y-39200000D01*
G75*
G02*
X38620000Y-39050000I150000J0D01*
G01*
X38920000Y-39050000D01*
G75*
G02*
X39070000Y-39200000I0J-150000D01*
G01*
X39070000Y-40850000D01*
G75*
G02*
X38920000Y-41000000I-150000J0D01*
G01*
G37*
G04 #@! TD.AperFunction*
G04 #@! TA.AperFunction,SMDPad,CuDef*
G36*
G01*
X40190000Y-41000000D02*
X39890000Y-41000000D01*
G75*
G02*
X39740000Y-40850000I0J150000D01*
G01*
X39740000Y-39200000D01*
G75*
G02*
X39890000Y-39050000I150000J0D01*
G01*
X40190000Y-39050000D01*
G75*
G02*
X40340000Y-39200000I0J-150000D01*
G01*
X40340000Y-40850000D01*
G75*
G02*
X40190000Y-41000000I-150000J0D01*
G01*
G37*
G04 #@! TD.AperFunction*
G04 #@! TA.AperFunction,SMDPad,CuDef*
G36*
G01*
X41460000Y-41000000D02*
X41160000Y-41000000D01*
G75*
G02*
X41010000Y-40850000I0J150000D01*
G01*
X41010000Y-39200000D01*
G75*
G02*
X41160000Y-39050000I150000J0D01*
G01*
X41460000Y-39050000D01*
G75*
G02*
X41610000Y-39200000I0J-150000D01*
G01*
X41610000Y-40850000D01*
G75*
G02*
X41460000Y-41000000I-150000J0D01*
G01*
G37*
G04 #@! TD.AperFunction*
G04 #@! TA.AperFunction,SMDPad,CuDef*
G36*
G01*
X42730000Y-41000000D02*
X42430000Y-41000000D01*
G75*
G02*
X42280000Y-40850000I0J150000D01*
G01*
X42280000Y-39200000D01*
G75*
G02*
X42430000Y-39050000I150000J0D01*
G01*
X42730000Y-39050000D01*
G75*
G02*
X42880000Y-39200000I0J-150000D01*
G01*
X42880000Y-40850000D01*
G75*
G02*
X42730000Y-41000000I-150000J0D01*
G01*
G37*
G04 #@! TD.AperFunction*
G04 #@! TA.AperFunction,SMDPad,CuDef*
G36*
G01*
X44000000Y-41000000D02*
X43700000Y-41000000D01*
G75*
G02*
X43550000Y-40850000I0J150000D01*
G01*
X43550000Y-39200000D01*
G75*
G02*
X43700000Y-39050000I150000J0D01*
G01*
X44000000Y-39050000D01*
G75*
G02*
X44150000Y-39200000I0J-150000D01*
G01*
X44150000Y-40850000D01*
G75*
G02*
X44000000Y-41000000I-150000J0D01*
G01*
G37*
G04 #@! TD.AperFunction*
G04 #@! TA.AperFunction,SMDPad,CuDef*
G36*
G01*
X45270000Y-41000000D02*
X44970000Y-41000000D01*
G75*
G02*
X44820000Y-40850000I0J150000D01*
G01*
X44820000Y-39200000D01*
G75*
G02*
X44970000Y-39050000I150000J0D01*
G01*
X45270000Y-39050000D01*
G75*
G02*
X45420000Y-39200000I0J-150000D01*
G01*
X45420000Y-40850000D01*
G75*
G02*
X45270000Y-41000000I-150000J0D01*
G01*
G37*
G04 #@! TD.AperFunction*
G04 #@! TA.AperFunction,SMDPad,CuDef*
G36*
G01*
X46540000Y-41000000D02*
X46240000Y-41000000D01*
G75*
G02*
X46090000Y-40850000I0J150000D01*
G01*
X46090000Y-39200000D01*
G75*
G02*
X46240000Y-39050000I150000J0D01*
G01*
X46540000Y-39050000D01*
G75*
G02*
X46690000Y-39200000I0J-150000D01*
G01*
X46690000Y-40850000D01*
G75*
G02*
X46540000Y-41000000I-150000J0D01*
G01*
G37*
G04 #@! TD.AperFunction*
G04 #@! TA.AperFunction,SMDPad,CuDef*
G36*
G01*
X46540000Y-45950000D02*
X46240000Y-45950000D01*
G75*
G02*
X46090000Y-45800000I0J150000D01*
G01*
X46090000Y-44150000D01*
G75*
G02*
X46240000Y-44000000I150000J0D01*
G01*
X46540000Y-44000000D01*
G75*
G02*
X46690000Y-44150000I0J-150000D01*
G01*
X46690000Y-45800000D01*
G75*
G02*
X46540000Y-45950000I-150000J0D01*
G01*
G37*
G04 #@! TD.AperFunction*
G04 #@! TA.AperFunction,SMDPad,CuDef*
G36*
G01*
X45270000Y-45950000D02*
X44970000Y-45950000D01*
G75*
G02*
X44820000Y-45800000I0J150000D01*
G01*
X44820000Y-44150000D01*
G75*
G02*
X44970000Y-44000000I150000J0D01*
G01*
X45270000Y-44000000D01*
G75*
G02*
X45420000Y-44150000I0J-150000D01*
G01*
X45420000Y-45800000D01*
G75*
G02*
X45270000Y-45950000I-150000J0D01*
G01*
G37*
G04 #@! TD.AperFunction*
G04 #@! TA.AperFunction,SMDPad,CuDef*
G36*
G01*
X44000000Y-45950000D02*
X43700000Y-45950000D01*
G75*
G02*
X43550000Y-45800000I0J150000D01*
G01*
X43550000Y-44150000D01*
G75*
G02*
X43700000Y-44000000I150000J0D01*
G01*
X44000000Y-44000000D01*
G75*
G02*
X44150000Y-44150000I0J-150000D01*
G01*
X44150000Y-45800000D01*
G75*
G02*
X44000000Y-45950000I-150000J0D01*
G01*
G37*
G04 #@! TD.AperFunction*
G04 #@! TA.AperFunction,SMDPad,CuDef*
G36*
G01*
X42730000Y-45950000D02*
X42430000Y-45950000D01*
G75*
G02*
X42280000Y-45800000I0J150000D01*
G01*
X42280000Y-44150000D01*
G75*
G02*
X42430000Y-44000000I150000J0D01*
G01*
X42730000Y-44000000D01*
G75*
G02*
X42880000Y-44150000I0J-150000D01*
G01*
X42880000Y-45800000D01*
G75*
G02*
X42730000Y-45950000I-150000J0D01*
G01*
G37*
G04 #@! TD.AperFunction*
G04 #@! TA.AperFunction,SMDPad,CuDef*
G36*
G01*
X41460000Y-45950000D02*
X41160000Y-45950000D01*
G75*
G02*
X41010000Y-45800000I0J150000D01*
G01*
X41010000Y-44150000D01*
G75*
G02*
X41160000Y-44000000I150000J0D01*
G01*
X41460000Y-44000000D01*
G75*
G02*
X41610000Y-44150000I0J-150000D01*
G01*
X41610000Y-45800000D01*
G75*
G02*
X41460000Y-45950000I-150000J0D01*
G01*
G37*
G04 #@! TD.AperFunction*
G04 #@! TA.AperFunction,SMDPad,CuDef*
G36*
G01*
X40190000Y-45950000D02*
X39890000Y-45950000D01*
G75*
G02*
X39740000Y-45800000I0J150000D01*
G01*
X39740000Y-44150000D01*
G75*
G02*
X39890000Y-44000000I150000J0D01*
G01*
X40190000Y-44000000D01*
G75*
G02*
X40340000Y-44150000I0J-150000D01*
G01*
X40340000Y-45800000D01*
G75*
G02*
X40190000Y-45950000I-150000J0D01*
G01*
G37*
G04 #@! TD.AperFunction*
G04 #@! TA.AperFunction,SMDPad,CuDef*
G36*
G01*
X38920000Y-45950000D02*
X38620000Y-45950000D01*
G75*
G02*
X38470000Y-45800000I0J150000D01*
G01*
X38470000Y-44150000D01*
G75*
G02*
X38620000Y-44000000I150000J0D01*
G01*
X38920000Y-44000000D01*
G75*
G02*
X39070000Y-44150000I0J-150000D01*
G01*
X39070000Y-45800000D01*
G75*
G02*
X38920000Y-45950000I-150000J0D01*
G01*
G37*
G04 #@! TD.AperFunction*
G04 #@! TA.AperFunction,SMDPad,CuDef*
G36*
G01*
X37650000Y-45950000D02*
X37350000Y-45950000D01*
G75*
G02*
X37200000Y-45800000I0J150000D01*
G01*
X37200000Y-44150000D01*
G75*
G02*
X37350000Y-44000000I150000J0D01*
G01*
X37650000Y-44000000D01*
G75*
G02*
X37800000Y-44150000I0J-150000D01*
G01*
X37800000Y-45800000D01*
G75*
G02*
X37650000Y-45950000I-150000J0D01*
G01*
G37*
G04 #@! TD.AperFunction*
G04 #@! TA.AperFunction,SMDPad,CuDef*
G36*
G01*
X25075000Y-19350000D02*
X24125000Y-19350000D01*
G75*
G02*
X23875000Y-19100000I0J250000D01*
G01*
X23875000Y-18600000D01*
G75*
G02*
X24125000Y-18350000I250000J0D01*
G01*
X25075000Y-18350000D01*
G75*
G02*
X25325000Y-18600000I0J-250000D01*
G01*
X25325000Y-19100000D01*
G75*
G02*
X25075000Y-19350000I-250000J0D01*
G01*
G37*
G04 #@! TD.AperFunction*
G04 #@! TA.AperFunction,SMDPad,CuDef*
G36*
G01*
X25075000Y-17450000D02*
X24125000Y-17450000D01*
G75*
G02*
X23875000Y-17200000I0J250000D01*
G01*
X23875000Y-16700000D01*
G75*
G02*
X24125000Y-16450000I250000J0D01*
G01*
X25075000Y-16450000D01*
G75*
G02*
X25325000Y-16700000I0J-250000D01*
G01*
X25325000Y-17200000D01*
G75*
G02*
X25075000Y-17450000I-250000J0D01*
G01*
G37*
G04 #@! TD.AperFunction*
G04 #@! TA.AperFunction,SMDPad,CuDef*
G36*
G01*
X51375000Y-38350000D02*
X50425000Y-38350000D01*
G75*
G02*
X50175000Y-38100000I0J250000D01*
G01*
X50175000Y-37600000D01*
G75*
G02*
X50425000Y-37350000I250000J0D01*
G01*
X51375000Y-37350000D01*
G75*
G02*
X51625000Y-37600000I0J-250000D01*
G01*
X51625000Y-38100000D01*
G75*
G02*
X51375000Y-38350000I-250000J0D01*
G01*
G37*
G04 #@! TD.AperFunction*
G04 #@! TA.AperFunction,SMDPad,CuDef*
G36*
G01*
X51375000Y-40250000D02*
X50425000Y-40250000D01*
G75*
G02*
X50175000Y-40000000I0J250000D01*
G01*
X50175000Y-39500000D01*
G75*
G02*
X50425000Y-39250000I250000J0D01*
G01*
X51375000Y-39250000D01*
G75*
G02*
X51625000Y-39500000I0J-250000D01*
G01*
X51625000Y-40000000D01*
G75*
G02*
X51375000Y-40250000I-250000J0D01*
G01*
G37*
G04 #@! TD.AperFunction*
D11*
X12500000Y-21000000D03*
D12*
X12500000Y-18500000D03*
X10500000Y-18500000D03*
X10500000Y-21000000D03*
D13*
X7790000Y-25770000D03*
X7790000Y-13730000D03*
D11*
X10000000Y-33000000D03*
D14*
X10000000Y-35540000D03*
X10000000Y-38080000D03*
X10000000Y-40620000D03*
G04 #@! TA.AperFunction,ComponentPad*
G36*
G01*
X93350000Y-38900000D02*
X93350000Y-40100000D01*
G75*
G02*
X93100000Y-40350000I-250000J0D01*
G01*
X91900000Y-40350000D01*
G75*
G02*
X91650000Y-40100000I0J250000D01*
G01*
X91650000Y-38900000D01*
G75*
G02*
X91900000Y-38650000I250000J0D01*
G01*
X93100000Y-38650000D01*
G75*
G02*
X93350000Y-38900000I0J-250000D01*
G01*
G37*
G04 #@! TD.AperFunction*
D12*
X92500000Y-36960000D03*
X92500000Y-34420000D03*
X92500000Y-31880000D03*
X92500000Y-29340000D03*
X89960000Y-39500000D03*
X89960000Y-36960000D03*
X89960000Y-34420000D03*
X89960000Y-31880000D03*
X89960000Y-29340000D03*
G04 #@! TA.AperFunction,SMDPad,CuDef*
G36*
G01*
X30075000Y-15325000D02*
X30075000Y-15075000D01*
G75*
G02*
X30200000Y-14950000I125000J0D01*
G01*
X31450000Y-14950000D01*
G75*
G02*
X31575000Y-15075000I0J-125000D01*
G01*
X31575000Y-15325000D01*
G75*
G02*
X31450000Y-15450000I-125000J0D01*
G01*
X30200000Y-15450000D01*
G75*
G02*
X30075000Y-15325000I0J125000D01*
G01*
G37*
G04 #@! TD.AperFunction*
G04 #@! TA.AperFunction,SMDPad,CuDef*
G36*
G01*
X30075000Y-16125000D02*
X30075000Y-15875000D01*
G75*
G02*
X30200000Y-15750000I125000J0D01*
G01*
X31450000Y-15750000D01*
G75*
G02*
X31575000Y-15875000I0J-125000D01*
G01*
X31575000Y-16125000D01*
G75*
G02*
X31450000Y-16250000I-125000J0D01*
G01*
X30200000Y-16250000D01*
G75*
G02*
X30075000Y-16125000I0J125000D01*
G01*
G37*
G04 #@! TD.AperFunction*
G04 #@! TA.AperFunction,SMDPad,CuDef*
G36*
G01*
X30075000Y-16925000D02*
X30075000Y-16675000D01*
G75*
G02*
X30200000Y-16550000I125000J0D01*
G01*
X31450000Y-16550000D01*
G75*
G02*
X31575000Y-16675000I0J-125000D01*
G01*
X31575000Y-16925000D01*
G75*
G02*
X31450000Y-17050000I-125000J0D01*
G01*
X30200000Y-17050000D01*
G75*
G02*
X30075000Y-16925000I0J125000D01*
G01*
G37*
G04 #@! TD.AperFunction*
G04 #@! TA.AperFunction,SMDPad,CuDef*
G36*
G01*
X30075000Y-17725000D02*
X30075000Y-17475000D01*
G75*
G02*
X30200000Y-17350000I125000J0D01*
G01*
X31450000Y-17350000D01*
G75*
G02*
X31575000Y-17475000I0J-125000D01*
G01*
X31575000Y-17725000D01*
G75*
G02*
X31450000Y-17850000I-125000J0D01*
G01*
X30200000Y-17850000D01*
G75*
G02*
X30075000Y-17725000I0J125000D01*
G01*
G37*
G04 #@! TD.AperFunction*
G04 #@! TA.AperFunction,SMDPad,CuDef*
G36*
G01*
X30075000Y-18525000D02*
X30075000Y-18275000D01*
G75*
G02*
X30200000Y-18150000I125000J0D01*
G01*
X31450000Y-18150000D01*
G75*
G02*
X31575000Y-18275000I0J-125000D01*
G01*
X31575000Y-18525000D01*
G75*
G02*
X31450000Y-18650000I-125000J0D01*
G01*
X30200000Y-18650000D01*
G75*
G02*
X30075000Y-18525000I0J125000D01*
G01*
G37*
G04 #@! TD.AperFunction*
G04 #@! TA.AperFunction,SMDPad,CuDef*
G36*
G01*
X30075000Y-19325000D02*
X30075000Y-19075000D01*
G75*
G02*
X30200000Y-18950000I125000J0D01*
G01*
X31450000Y-18950000D01*
G75*
G02*
X31575000Y-19075000I0J-125000D01*
G01*
X31575000Y-19325000D01*
G75*
G02*
X31450000Y-19450000I-125000J0D01*
G01*
X30200000Y-19450000D01*
G75*
G02*
X30075000Y-19325000I0J125000D01*
G01*
G37*
G04 #@! TD.AperFunction*
G04 #@! TA.AperFunction,SMDPad,CuDef*
G36*
G01*
X30075000Y-20125000D02*
X30075000Y-19875000D01*
G75*
G02*
X30200000Y-19750000I125000J0D01*
G01*
X31450000Y-19750000D01*
G75*
G02*
X31575000Y-19875000I0J-125000D01*
G01*
X31575000Y-20125000D01*
G75*
G02*
X31450000Y-20250000I-125000J0D01*
G01*
X30200000Y-20250000D01*
G75*
G02*
X30075000Y-20125000I0J125000D01*
G01*
G37*
G04 #@! TD.AperFunction*
G04 #@! TA.AperFunction,SMDPad,CuDef*
G36*
G01*
X30075000Y-20925000D02*
X30075000Y-20675000D01*
G75*
G02*
X30200000Y-20550000I125000J0D01*
G01*
X31450000Y-20550000D01*
G75*
G02*
X31575000Y-20675000I0J-125000D01*
G01*
X31575000Y-20925000D01*
G75*
G02*
X31450000Y-21050000I-125000J0D01*
G01*
X30200000Y-21050000D01*
G75*
G02*
X30075000Y-20925000I0J125000D01*
G01*
G37*
G04 #@! TD.AperFunction*
G04 #@! TA.AperFunction,SMDPad,CuDef*
G36*
G01*
X31950000Y-22800000D02*
X31950000Y-21550000D01*
G75*
G02*
X32075000Y-21425000I125000J0D01*
G01*
X32325000Y-21425000D01*
G75*
G02*
X32450000Y-21550000I0J-125000D01*
G01*
X32450000Y-22800000D01*
G75*
G02*
X32325000Y-22925000I-125000J0D01*
G01*
X32075000Y-22925000D01*
G75*
G02*
X31950000Y-22800000I0J125000D01*
G01*
G37*
G04 #@! TD.AperFunction*
G04 #@! TA.AperFunction,SMDPad,CuDef*
G36*
G01*
X32750000Y-22800000D02*
X32750000Y-21550000D01*
G75*
G02*
X32875000Y-21425000I125000J0D01*
G01*
X33125000Y-21425000D01*
G75*
G02*
X33250000Y-21550000I0J-125000D01*
G01*
X33250000Y-22800000D01*
G75*
G02*
X33125000Y-22925000I-125000J0D01*
G01*
X32875000Y-22925000D01*
G75*
G02*
X32750000Y-22800000I0J125000D01*
G01*
G37*
G04 #@! TD.AperFunction*
G04 #@! TA.AperFunction,SMDPad,CuDef*
G36*
G01*
X33550000Y-22800000D02*
X33550000Y-21550000D01*
G75*
G02*
X33675000Y-21425000I125000J0D01*
G01*
X33925000Y-21425000D01*
G75*
G02*
X34050000Y-21550000I0J-125000D01*
G01*
X34050000Y-22800000D01*
G75*
G02*
X33925000Y-22925000I-125000J0D01*
G01*
X33675000Y-22925000D01*
G75*
G02*
X33550000Y-22800000I0J125000D01*
G01*
G37*
G04 #@! TD.AperFunction*
G04 #@! TA.AperFunction,SMDPad,CuDef*
G36*
G01*
X34350000Y-22800000D02*
X34350000Y-21550000D01*
G75*
G02*
X34475000Y-21425000I125000J0D01*
G01*
X34725000Y-21425000D01*
G75*
G02*
X34850000Y-21550000I0J-125000D01*
G01*
X34850000Y-22800000D01*
G75*
G02*
X34725000Y-22925000I-125000J0D01*
G01*
X34475000Y-22925000D01*
G75*
G02*
X34350000Y-22800000I0J125000D01*
G01*
G37*
G04 #@! TD.AperFunction*
G04 #@! TA.AperFunction,SMDPad,CuDef*
G36*
G01*
X35150000Y-22800000D02*
X35150000Y-21550000D01*
G75*
G02*
X35275000Y-21425000I125000J0D01*
G01*
X35525000Y-21425000D01*
G75*
G02*
X35650000Y-21550000I0J-125000D01*
G01*
X35650000Y-22800000D01*
G75*
G02*
X35525000Y-22925000I-125000J0D01*
G01*
X35275000Y-22925000D01*
G75*
G02*
X35150000Y-22800000I0J125000D01*
G01*
G37*
G04 #@! TD.AperFunction*
G04 #@! TA.AperFunction,SMDPad,CuDef*
G36*
G01*
X35950000Y-22800000D02*
X35950000Y-21550000D01*
G75*
G02*
X36075000Y-21425000I125000J0D01*
G01*
X36325000Y-21425000D01*
G75*
G02*
X36450000Y-21550000I0J-125000D01*
G01*
X36450000Y-22800000D01*
G75*
G02*
X36325000Y-22925000I-125000J0D01*
G01*
X36075000Y-22925000D01*
G75*
G02*
X35950000Y-22800000I0J125000D01*
G01*
G37*
G04 #@! TD.AperFunction*
G04 #@! TA.AperFunction,SMDPad,CuDef*
G36*
G01*
X36750000Y-22800000D02*
X36750000Y-21550000D01*
G75*
G02*
X36875000Y-21425000I125000J0D01*
G01*
X37125000Y-21425000D01*
G75*
G02*
X37250000Y-21550000I0J-125000D01*
G01*
X37250000Y-22800000D01*
G75*
G02*
X37125000Y-22925000I-125000J0D01*
G01*
X36875000Y-22925000D01*
G75*
G02*
X36750000Y-22800000I0J125000D01*
G01*
G37*
G04 #@! TD.AperFunction*
G04 #@! TA.AperFunction,SMDPad,CuDef*
G36*
G01*
X37550000Y-22800000D02*
X37550000Y-21550000D01*
G75*
G02*
X37675000Y-21425000I125000J0D01*
G01*
X37925000Y-21425000D01*
G75*
G02*
X38050000Y-21550000I0J-125000D01*
G01*
X38050000Y-22800000D01*
G75*
G02*
X37925000Y-22925000I-125000J0D01*
G01*
X37675000Y-22925000D01*
G75*
G02*
X37550000Y-22800000I0J125000D01*
G01*
G37*
G04 #@! TD.AperFunction*
G04 #@! TA.AperFunction,SMDPad,CuDef*
G36*
G01*
X38425000Y-20925000D02*
X38425000Y-20675000D01*
G75*
G02*
X38550000Y-20550000I125000J0D01*
G01*
X39800000Y-20550000D01*
G75*
G02*
X39925000Y-20675000I0J-125000D01*
G01*
X39925000Y-20925000D01*
G75*
G02*
X39800000Y-21050000I-125000J0D01*
G01*
X38550000Y-21050000D01*
G75*
G02*
X38425000Y-20925000I0J125000D01*
G01*
G37*
G04 #@! TD.AperFunction*
G04 #@! TA.AperFunction,SMDPad,CuDef*
G36*
G01*
X38425000Y-20125000D02*
X38425000Y-19875000D01*
G75*
G02*
X38550000Y-19750000I125000J0D01*
G01*
X39800000Y-19750000D01*
G75*
G02*
X39925000Y-19875000I0J-125000D01*
G01*
X39925000Y-20125000D01*
G75*
G02*
X39800000Y-20250000I-125000J0D01*
G01*
X38550000Y-20250000D01*
G75*
G02*
X38425000Y-20125000I0J125000D01*
G01*
G37*
G04 #@! TD.AperFunction*
G04 #@! TA.AperFunction,SMDPad,CuDef*
G36*
G01*
X38425000Y-19325000D02*
X38425000Y-19075000D01*
G75*
G02*
X38550000Y-18950000I125000J0D01*
G01*
X39800000Y-18950000D01*
G75*
G02*
X39925000Y-19075000I0J-125000D01*
G01*
X39925000Y-19325000D01*
G75*
G02*
X39800000Y-19450000I-125000J0D01*
G01*
X38550000Y-19450000D01*
G75*
G02*
X38425000Y-19325000I0J125000D01*
G01*
G37*
G04 #@! TD.AperFunction*
G04 #@! TA.AperFunction,SMDPad,CuDef*
G36*
G01*
X38425000Y-18525000D02*
X38425000Y-18275000D01*
G75*
G02*
X38550000Y-18150000I125000J0D01*
G01*
X39800000Y-18150000D01*
G75*
G02*
X39925000Y-18275000I0J-125000D01*
G01*
X39925000Y-18525000D01*
G75*
G02*
X39800000Y-18650000I-125000J0D01*
G01*
X38550000Y-18650000D01*
G75*
G02*
X38425000Y-18525000I0J125000D01*
G01*
G37*
G04 #@! TD.AperFunction*
G04 #@! TA.AperFunction,SMDPad,CuDef*
G36*
G01*
X38425000Y-17725000D02*
X38425000Y-17475000D01*
G75*
G02*
X38550000Y-17350000I125000J0D01*
G01*
X39800000Y-17350000D01*
G75*
G02*
X39925000Y-17475000I0J-125000D01*
G01*
X39925000Y-17725000D01*
G75*
G02*
X39800000Y-17850000I-125000J0D01*
G01*
X38550000Y-17850000D01*
G75*
G02*
X38425000Y-17725000I0J125000D01*
G01*
G37*
G04 #@! TD.AperFunction*
G04 #@! TA.AperFunction,SMDPad,CuDef*
G36*
G01*
X38425000Y-16925000D02*
X38425000Y-16675000D01*
G75*
G02*
X38550000Y-16550000I125000J0D01*
G01*
X39800000Y-16550000D01*
G75*
G02*
X39925000Y-16675000I0J-125000D01*
G01*
X39925000Y-16925000D01*
G75*
G02*
X39800000Y-17050000I-125000J0D01*
G01*
X38550000Y-17050000D01*
G75*
G02*
X38425000Y-16925000I0J125000D01*
G01*
G37*
G04 #@! TD.AperFunction*
G04 #@! TA.AperFunction,SMDPad,CuDef*
G36*
G01*
X38425000Y-16125000D02*
X38425000Y-15875000D01*
G75*
G02*
X38550000Y-15750000I125000J0D01*
G01*
X39800000Y-15750000D01*
G75*
G02*
X39925000Y-15875000I0J-125000D01*
G01*
X39925000Y-16125000D01*
G75*
G02*
X39800000Y-16250000I-125000J0D01*
G01*
X38550000Y-16250000D01*
G75*
G02*
X38425000Y-16125000I0J125000D01*
G01*
G37*
G04 #@! TD.AperFunction*
G04 #@! TA.AperFunction,SMDPad,CuDef*
G36*
G01*
X38425000Y-15325000D02*
X38425000Y-15075000D01*
G75*
G02*
X38550000Y-14950000I125000J0D01*
G01*
X39800000Y-14950000D01*
G75*
G02*
X39925000Y-15075000I0J-125000D01*
G01*
X39925000Y-15325000D01*
G75*
G02*
X39800000Y-15450000I-125000J0D01*
G01*
X38550000Y-15450000D01*
G75*
G02*
X38425000Y-15325000I0J125000D01*
G01*
G37*
G04 #@! TD.AperFunction*
G04 #@! TA.AperFunction,SMDPad,CuDef*
G36*
G01*
X37550000Y-14450000D02*
X37550000Y-13200000D01*
G75*
G02*
X37675000Y-13075000I125000J0D01*
G01*
X37925000Y-13075000D01*
G75*
G02*
X38050000Y-13200000I0J-125000D01*
G01*
X38050000Y-14450000D01*
G75*
G02*
X37925000Y-14575000I-125000J0D01*
G01*
X37675000Y-14575000D01*
G75*
G02*
X37550000Y-14450000I0J125000D01*
G01*
G37*
G04 #@! TD.AperFunction*
G04 #@! TA.AperFunction,SMDPad,CuDef*
G36*
G01*
X36750000Y-14450000D02*
X36750000Y-13200000D01*
G75*
G02*
X36875000Y-13075000I125000J0D01*
G01*
X37125000Y-13075000D01*
G75*
G02*
X37250000Y-13200000I0J-125000D01*
G01*
X37250000Y-14450000D01*
G75*
G02*
X37125000Y-14575000I-125000J0D01*
G01*
X36875000Y-14575000D01*
G75*
G02*
X36750000Y-14450000I0J125000D01*
G01*
G37*
G04 #@! TD.AperFunction*
G04 #@! TA.AperFunction,SMDPad,CuDef*
G36*
G01*
X35950000Y-14450000D02*
X35950000Y-13200000D01*
G75*
G02*
X36075000Y-13075000I125000J0D01*
G01*
X36325000Y-13075000D01*
G75*
G02*
X36450000Y-13200000I0J-125000D01*
G01*
X36450000Y-14450000D01*
G75*
G02*
X36325000Y-14575000I-125000J0D01*
G01*
X36075000Y-14575000D01*
G75*
G02*
X35950000Y-14450000I0J125000D01*
G01*
G37*
G04 #@! TD.AperFunction*
G04 #@! TA.AperFunction,SMDPad,CuDef*
G36*
G01*
X35150000Y-14450000D02*
X35150000Y-13200000D01*
G75*
G02*
X35275000Y-13075000I125000J0D01*
G01*
X35525000Y-13075000D01*
G75*
G02*
X35650000Y-13200000I0J-125000D01*
G01*
X35650000Y-14450000D01*
G75*
G02*
X35525000Y-14575000I-125000J0D01*
G01*
X35275000Y-14575000D01*
G75*
G02*
X35150000Y-14450000I0J125000D01*
G01*
G37*
G04 #@! TD.AperFunction*
G04 #@! TA.AperFunction,SMDPad,CuDef*
G36*
G01*
X34350000Y-14450000D02*
X34350000Y-13200000D01*
G75*
G02*
X34475000Y-13075000I125000J0D01*
G01*
X34725000Y-13075000D01*
G75*
G02*
X34850000Y-13200000I0J-125000D01*
G01*
X34850000Y-14450000D01*
G75*
G02*
X34725000Y-14575000I-125000J0D01*
G01*
X34475000Y-14575000D01*
G75*
G02*
X34350000Y-14450000I0J125000D01*
G01*
G37*
G04 #@! TD.AperFunction*
G04 #@! TA.AperFunction,SMDPad,CuDef*
G36*
G01*
X33550000Y-14450000D02*
X33550000Y-13200000D01*
G75*
G02*
X33675000Y-13075000I125000J0D01*
G01*
X33925000Y-13075000D01*
G75*
G02*
X34050000Y-13200000I0J-125000D01*
G01*
X34050000Y-14450000D01*
G75*
G02*
X33925000Y-14575000I-125000J0D01*
G01*
X33675000Y-14575000D01*
G75*
G02*
X33550000Y-14450000I0J125000D01*
G01*
G37*
G04 #@! TD.AperFunction*
G04 #@! TA.AperFunction,SMDPad,CuDef*
G36*
G01*
X32750000Y-14450000D02*
X32750000Y-13200000D01*
G75*
G02*
X32875000Y-13075000I125000J0D01*
G01*
X33125000Y-13075000D01*
G75*
G02*
X33250000Y-13200000I0J-125000D01*
G01*
X33250000Y-14450000D01*
G75*
G02*
X33125000Y-14575000I-125000J0D01*
G01*
X32875000Y-14575000D01*
G75*
G02*
X32750000Y-14450000I0J125000D01*
G01*
G37*
G04 #@! TD.AperFunction*
G04 #@! TA.AperFunction,SMDPad,CuDef*
G36*
G01*
X31950000Y-14450000D02*
X31950000Y-13200000D01*
G75*
G02*
X32075000Y-13075000I125000J0D01*
G01*
X32325000Y-13075000D01*
G75*
G02*
X32450000Y-13200000I0J-125000D01*
G01*
X32450000Y-14450000D01*
G75*
G02*
X32325000Y-14575000I-125000J0D01*
G01*
X32075000Y-14575000D01*
G75*
G02*
X31950000Y-14450000I0J125000D01*
G01*
G37*
G04 #@! TD.AperFunction*
G04 #@! TA.AperFunction,SMDPad,CuDef*
G36*
G01*
X21205000Y-45950000D02*
X20905000Y-45950000D01*
G75*
G02*
X20755000Y-45800000I0J150000D01*
G01*
X20755000Y-44150000D01*
G75*
G02*
X20905000Y-44000000I150000J0D01*
G01*
X21205000Y-44000000D01*
G75*
G02*
X21355000Y-44150000I0J-150000D01*
G01*
X21355000Y-45800000D01*
G75*
G02*
X21205000Y-45950000I-150000J0D01*
G01*
G37*
G04 #@! TD.AperFunction*
G04 #@! TA.AperFunction,SMDPad,CuDef*
G36*
G01*
X22475000Y-45950000D02*
X22175000Y-45950000D01*
G75*
G02*
X22025000Y-45800000I0J150000D01*
G01*
X22025000Y-44150000D01*
G75*
G02*
X22175000Y-44000000I150000J0D01*
G01*
X22475000Y-44000000D01*
G75*
G02*
X22625000Y-44150000I0J-150000D01*
G01*
X22625000Y-45800000D01*
G75*
G02*
X22475000Y-45950000I-150000J0D01*
G01*
G37*
G04 #@! TD.AperFunction*
G04 #@! TA.AperFunction,SMDPad,CuDef*
G36*
G01*
X23745000Y-45950000D02*
X23445000Y-45950000D01*
G75*
G02*
X23295000Y-45800000I0J150000D01*
G01*
X23295000Y-44150000D01*
G75*
G02*
X23445000Y-44000000I150000J0D01*
G01*
X23745000Y-44000000D01*
G75*
G02*
X23895000Y-44150000I0J-150000D01*
G01*
X23895000Y-45800000D01*
G75*
G02*
X23745000Y-45950000I-150000J0D01*
G01*
G37*
G04 #@! TD.AperFunction*
G04 #@! TA.AperFunction,SMDPad,CuDef*
G36*
G01*
X25015000Y-45950000D02*
X24715000Y-45950000D01*
G75*
G02*
X24565000Y-45800000I0J150000D01*
G01*
X24565000Y-44150000D01*
G75*
G02*
X24715000Y-44000000I150000J0D01*
G01*
X25015000Y-44000000D01*
G75*
G02*
X25165000Y-44150000I0J-150000D01*
G01*
X25165000Y-45800000D01*
G75*
G02*
X25015000Y-45950000I-150000J0D01*
G01*
G37*
G04 #@! TD.AperFunction*
G04 #@! TA.AperFunction,SMDPad,CuDef*
G36*
G01*
X26285000Y-45950000D02*
X25985000Y-45950000D01*
G75*
G02*
X25835000Y-45800000I0J150000D01*
G01*
X25835000Y-44150000D01*
G75*
G02*
X25985000Y-44000000I150000J0D01*
G01*
X26285000Y-44000000D01*
G75*
G02*
X26435000Y-44150000I0J-150000D01*
G01*
X26435000Y-45800000D01*
G75*
G02*
X26285000Y-45950000I-150000J0D01*
G01*
G37*
G04 #@! TD.AperFunction*
G04 #@! TA.AperFunction,SMDPad,CuDef*
G36*
G01*
X27555000Y-45950000D02*
X27255000Y-45950000D01*
G75*
G02*
X27105000Y-45800000I0J150000D01*
G01*
X27105000Y-44150000D01*
G75*
G02*
X27255000Y-44000000I150000J0D01*
G01*
X27555000Y-44000000D01*
G75*
G02*
X27705000Y-44150000I0J-150000D01*
G01*
X27705000Y-45800000D01*
G75*
G02*
X27555000Y-45950000I-150000J0D01*
G01*
G37*
G04 #@! TD.AperFunction*
G04 #@! TA.AperFunction,SMDPad,CuDef*
G36*
G01*
X28825000Y-45950000D02*
X28525000Y-45950000D01*
G75*
G02*
X28375000Y-45800000I0J150000D01*
G01*
X28375000Y-44150000D01*
G75*
G02*
X28525000Y-44000000I150000J0D01*
G01*
X28825000Y-44000000D01*
G75*
G02*
X28975000Y-44150000I0J-150000D01*
G01*
X28975000Y-45800000D01*
G75*
G02*
X28825000Y-45950000I-150000J0D01*
G01*
G37*
G04 #@! TD.AperFunction*
G04 #@! TA.AperFunction,SMDPad,CuDef*
G36*
G01*
X30095000Y-45950000D02*
X29795000Y-45950000D01*
G75*
G02*
X29645000Y-45800000I0J150000D01*
G01*
X29645000Y-44150000D01*
G75*
G02*
X29795000Y-44000000I150000J0D01*
G01*
X30095000Y-44000000D01*
G75*
G02*
X30245000Y-44150000I0J-150000D01*
G01*
X30245000Y-45800000D01*
G75*
G02*
X30095000Y-45950000I-150000J0D01*
G01*
G37*
G04 #@! TD.AperFunction*
G04 #@! TA.AperFunction,SMDPad,CuDef*
G36*
G01*
X30095000Y-41000000D02*
X29795000Y-41000000D01*
G75*
G02*
X29645000Y-40850000I0J150000D01*
G01*
X29645000Y-39200000D01*
G75*
G02*
X29795000Y-39050000I150000J0D01*
G01*
X30095000Y-39050000D01*
G75*
G02*
X30245000Y-39200000I0J-150000D01*
G01*
X30245000Y-40850000D01*
G75*
G02*
X30095000Y-41000000I-150000J0D01*
G01*
G37*
G04 #@! TD.AperFunction*
G04 #@! TA.AperFunction,SMDPad,CuDef*
G36*
G01*
X28825000Y-41000000D02*
X28525000Y-41000000D01*
G75*
G02*
X28375000Y-40850000I0J150000D01*
G01*
X28375000Y-39200000D01*
G75*
G02*
X28525000Y-39050000I150000J0D01*
G01*
X28825000Y-39050000D01*
G75*
G02*
X28975000Y-39200000I0J-150000D01*
G01*
X28975000Y-40850000D01*
G75*
G02*
X28825000Y-41000000I-150000J0D01*
G01*
G37*
G04 #@! TD.AperFunction*
G04 #@! TA.AperFunction,SMDPad,CuDef*
G36*
G01*
X27555000Y-41000000D02*
X27255000Y-41000000D01*
G75*
G02*
X27105000Y-40850000I0J150000D01*
G01*
X27105000Y-39200000D01*
G75*
G02*
X27255000Y-39050000I150000J0D01*
G01*
X27555000Y-39050000D01*
G75*
G02*
X27705000Y-39200000I0J-150000D01*
G01*
X27705000Y-40850000D01*
G75*
G02*
X27555000Y-41000000I-150000J0D01*
G01*
G37*
G04 #@! TD.AperFunction*
G04 #@! TA.AperFunction,SMDPad,CuDef*
G36*
G01*
X26285000Y-41000000D02*
X25985000Y-41000000D01*
G75*
G02*
X25835000Y-40850000I0J150000D01*
G01*
X25835000Y-39200000D01*
G75*
G02*
X25985000Y-39050000I150000J0D01*
G01*
X26285000Y-39050000D01*
G75*
G02*
X26435000Y-39200000I0J-150000D01*
G01*
X26435000Y-40850000D01*
G75*
G02*
X26285000Y-41000000I-150000J0D01*
G01*
G37*
G04 #@! TD.AperFunction*
G04 #@! TA.AperFunction,SMDPad,CuDef*
G36*
G01*
X25015000Y-41000000D02*
X24715000Y-41000000D01*
G75*
G02*
X24565000Y-40850000I0J150000D01*
G01*
X24565000Y-39200000D01*
G75*
G02*
X24715000Y-39050000I150000J0D01*
G01*
X25015000Y-39050000D01*
G75*
G02*
X25165000Y-39200000I0J-150000D01*
G01*
X25165000Y-40850000D01*
G75*
G02*
X25015000Y-41000000I-150000J0D01*
G01*
G37*
G04 #@! TD.AperFunction*
G04 #@! TA.AperFunction,SMDPad,CuDef*
G36*
G01*
X23745000Y-41000000D02*
X23445000Y-41000000D01*
G75*
G02*
X23295000Y-40850000I0J150000D01*
G01*
X23295000Y-39200000D01*
G75*
G02*
X23445000Y-39050000I150000J0D01*
G01*
X23745000Y-39050000D01*
G75*
G02*
X23895000Y-39200000I0J-150000D01*
G01*
X23895000Y-40850000D01*
G75*
G02*
X23745000Y-41000000I-150000J0D01*
G01*
G37*
G04 #@! TD.AperFunction*
G04 #@! TA.AperFunction,SMDPad,CuDef*
G36*
G01*
X22475000Y-41000000D02*
X22175000Y-41000000D01*
G75*
G02*
X22025000Y-40850000I0J150000D01*
G01*
X22025000Y-39200000D01*
G75*
G02*
X22175000Y-39050000I150000J0D01*
G01*
X22475000Y-39050000D01*
G75*
G02*
X22625000Y-39200000I0J-150000D01*
G01*
X22625000Y-40850000D01*
G75*
G02*
X22475000Y-41000000I-150000J0D01*
G01*
G37*
G04 #@! TD.AperFunction*
G04 #@! TA.AperFunction,SMDPad,CuDef*
G36*
G01*
X21205000Y-41000000D02*
X20905000Y-41000000D01*
G75*
G02*
X20755000Y-40850000I0J150000D01*
G01*
X20755000Y-39200000D01*
G75*
G02*
X20905000Y-39050000I150000J0D01*
G01*
X21205000Y-39050000D01*
G75*
G02*
X21355000Y-39200000I0J-150000D01*
G01*
X21355000Y-40850000D01*
G75*
G02*
X21205000Y-41000000I-150000J0D01*
G01*
G37*
G04 #@! TD.AperFunction*
G04 #@! TA.AperFunction,SMDPad,CuDef*
G36*
G01*
X53205000Y-41000000D02*
X52905000Y-41000000D01*
G75*
G02*
X52755000Y-40850000I0J150000D01*
G01*
X52755000Y-39200000D01*
G75*
G02*
X52905000Y-39050000I150000J0D01*
G01*
X53205000Y-39050000D01*
G75*
G02*
X53355000Y-39200000I0J-150000D01*
G01*
X53355000Y-40850000D01*
G75*
G02*
X53205000Y-41000000I-150000J0D01*
G01*
G37*
G04 #@! TD.AperFunction*
G04 #@! TA.AperFunction,SMDPad,CuDef*
G36*
G01*
X54475000Y-41000000D02*
X54175000Y-41000000D01*
G75*
G02*
X54025000Y-40850000I0J150000D01*
G01*
X54025000Y-39200000D01*
G75*
G02*
X54175000Y-39050000I150000J0D01*
G01*
X54475000Y-39050000D01*
G75*
G02*
X54625000Y-39200000I0J-150000D01*
G01*
X54625000Y-40850000D01*
G75*
G02*
X54475000Y-41000000I-150000J0D01*
G01*
G37*
G04 #@! TD.AperFunction*
G04 #@! TA.AperFunction,SMDPad,CuDef*
G36*
G01*
X55745000Y-41000000D02*
X55445000Y-41000000D01*
G75*
G02*
X55295000Y-40850000I0J150000D01*
G01*
X55295000Y-39200000D01*
G75*
G02*
X55445000Y-39050000I150000J0D01*
G01*
X55745000Y-39050000D01*
G75*
G02*
X55895000Y-39200000I0J-150000D01*
G01*
X55895000Y-40850000D01*
G75*
G02*
X55745000Y-41000000I-150000J0D01*
G01*
G37*
G04 #@! TD.AperFunction*
G04 #@! TA.AperFunction,SMDPad,CuDef*
G36*
G01*
X57015000Y-41000000D02*
X56715000Y-41000000D01*
G75*
G02*
X56565000Y-40850000I0J150000D01*
G01*
X56565000Y-39200000D01*
G75*
G02*
X56715000Y-39050000I150000J0D01*
G01*
X57015000Y-39050000D01*
G75*
G02*
X57165000Y-39200000I0J-150000D01*
G01*
X57165000Y-40850000D01*
G75*
G02*
X57015000Y-41000000I-150000J0D01*
G01*
G37*
G04 #@! TD.AperFunction*
G04 #@! TA.AperFunction,SMDPad,CuDef*
G36*
G01*
X58285000Y-41000000D02*
X57985000Y-41000000D01*
G75*
G02*
X57835000Y-40850000I0J150000D01*
G01*
X57835000Y-39200000D01*
G75*
G02*
X57985000Y-39050000I150000J0D01*
G01*
X58285000Y-39050000D01*
G75*
G02*
X58435000Y-39200000I0J-150000D01*
G01*
X58435000Y-40850000D01*
G75*
G02*
X58285000Y-41000000I-150000J0D01*
G01*
G37*
G04 #@! TD.AperFunction*
G04 #@! TA.AperFunction,SMDPad,CuDef*
G36*
G01*
X59555000Y-41000000D02*
X59255000Y-41000000D01*
G75*
G02*
X59105000Y-40850000I0J150000D01*
G01*
X59105000Y-39200000D01*
G75*
G02*
X59255000Y-39050000I150000J0D01*
G01*
X59555000Y-39050000D01*
G75*
G02*
X59705000Y-39200000I0J-150000D01*
G01*
X59705000Y-40850000D01*
G75*
G02*
X59555000Y-41000000I-150000J0D01*
G01*
G37*
G04 #@! TD.AperFunction*
G04 #@! TA.AperFunction,SMDPad,CuDef*
G36*
G01*
X60825000Y-41000000D02*
X60525000Y-41000000D01*
G75*
G02*
X60375000Y-40850000I0J150000D01*
G01*
X60375000Y-39200000D01*
G75*
G02*
X60525000Y-39050000I150000J0D01*
G01*
X60825000Y-39050000D01*
G75*
G02*
X60975000Y-39200000I0J-150000D01*
G01*
X60975000Y-40850000D01*
G75*
G02*
X60825000Y-41000000I-150000J0D01*
G01*
G37*
G04 #@! TD.AperFunction*
G04 #@! TA.AperFunction,SMDPad,CuDef*
G36*
G01*
X62095000Y-41000000D02*
X61795000Y-41000000D01*
G75*
G02*
X61645000Y-40850000I0J150000D01*
G01*
X61645000Y-39200000D01*
G75*
G02*
X61795000Y-39050000I150000J0D01*
G01*
X62095000Y-39050000D01*
G75*
G02*
X62245000Y-39200000I0J-150000D01*
G01*
X62245000Y-40850000D01*
G75*
G02*
X62095000Y-41000000I-150000J0D01*
G01*
G37*
G04 #@! TD.AperFunction*
G04 #@! TA.AperFunction,SMDPad,CuDef*
G36*
G01*
X62095000Y-45950000D02*
X61795000Y-45950000D01*
G75*
G02*
X61645000Y-45800000I0J150000D01*
G01*
X61645000Y-44150000D01*
G75*
G02*
X61795000Y-44000000I150000J0D01*
G01*
X62095000Y-44000000D01*
G75*
G02*
X62245000Y-44150000I0J-150000D01*
G01*
X62245000Y-45800000D01*
G75*
G02*
X62095000Y-45950000I-150000J0D01*
G01*
G37*
G04 #@! TD.AperFunction*
G04 #@! TA.AperFunction,SMDPad,CuDef*
G36*
G01*
X60825000Y-45950000D02*
X60525000Y-45950000D01*
G75*
G02*
X60375000Y-45800000I0J150000D01*
G01*
X60375000Y-44150000D01*
G75*
G02*
X60525000Y-44000000I150000J0D01*
G01*
X60825000Y-44000000D01*
G75*
G02*
X60975000Y-44150000I0J-150000D01*
G01*
X60975000Y-45800000D01*
G75*
G02*
X60825000Y-45950000I-150000J0D01*
G01*
G37*
G04 #@! TD.AperFunction*
G04 #@! TA.AperFunction,SMDPad,CuDef*
G36*
G01*
X59555000Y-45950000D02*
X59255000Y-45950000D01*
G75*
G02*
X59105000Y-45800000I0J150000D01*
G01*
X59105000Y-44150000D01*
G75*
G02*
X59255000Y-44000000I150000J0D01*
G01*
X59555000Y-44000000D01*
G75*
G02*
X59705000Y-44150000I0J-150000D01*
G01*
X59705000Y-45800000D01*
G75*
G02*
X59555000Y-45950000I-150000J0D01*
G01*
G37*
G04 #@! TD.AperFunction*
G04 #@! TA.AperFunction,SMDPad,CuDef*
G36*
G01*
X58285000Y-45950000D02*
X57985000Y-45950000D01*
G75*
G02*
X57835000Y-45800000I0J150000D01*
G01*
X57835000Y-44150000D01*
G75*
G02*
X57985000Y-44000000I150000J0D01*
G01*
X58285000Y-44000000D01*
G75*
G02*
X58435000Y-44150000I0J-150000D01*
G01*
X58435000Y-45800000D01*
G75*
G02*
X58285000Y-45950000I-150000J0D01*
G01*
G37*
G04 #@! TD.AperFunction*
G04 #@! TA.AperFunction,SMDPad,CuDef*
G36*
G01*
X57015000Y-45950000D02*
X56715000Y-45950000D01*
G75*
G02*
X56565000Y-45800000I0J150000D01*
G01*
X56565000Y-44150000D01*
G75*
G02*
X56715000Y-44000000I150000J0D01*
G01*
X57015000Y-44000000D01*
G75*
G02*
X57165000Y-44150000I0J-150000D01*
G01*
X57165000Y-45800000D01*
G75*
G02*
X57015000Y-45950000I-150000J0D01*
G01*
G37*
G04 #@! TD.AperFunction*
G04 #@! TA.AperFunction,SMDPad,CuDef*
G36*
G01*
X55745000Y-45950000D02*
X55445000Y-45950000D01*
G75*
G02*
X55295000Y-45800000I0J150000D01*
G01*
X55295000Y-44150000D01*
G75*
G02*
X55445000Y-44000000I150000J0D01*
G01*
X55745000Y-44000000D01*
G75*
G02*
X55895000Y-44150000I0J-150000D01*
G01*
X55895000Y-45800000D01*
G75*
G02*
X55745000Y-45950000I-150000J0D01*
G01*
G37*
G04 #@! TD.AperFunction*
G04 #@! TA.AperFunction,SMDPad,CuDef*
G36*
G01*
X54475000Y-45950000D02*
X54175000Y-45950000D01*
G75*
G02*
X54025000Y-45800000I0J150000D01*
G01*
X54025000Y-44150000D01*
G75*
G02*
X54175000Y-44000000I150000J0D01*
G01*
X54475000Y-44000000D01*
G75*
G02*
X54625000Y-44150000I0J-150000D01*
G01*
X54625000Y-45800000D01*
G75*
G02*
X54475000Y-45950000I-150000J0D01*
G01*
G37*
G04 #@! TD.AperFunction*
G04 #@! TA.AperFunction,SMDPad,CuDef*
G36*
G01*
X53205000Y-45950000D02*
X52905000Y-45950000D01*
G75*
G02*
X52755000Y-45800000I0J150000D01*
G01*
X52755000Y-44150000D01*
G75*
G02*
X52905000Y-44000000I150000J0D01*
G01*
X53205000Y-44000000D01*
G75*
G02*
X53355000Y-44150000I0J-150000D01*
G01*
X53355000Y-45800000D01*
G75*
G02*
X53205000Y-45950000I-150000J0D01*
G01*
G37*
G04 #@! TD.AperFunction*
D11*
X25500000Y-4500000D03*
D14*
X28040000Y-4500000D03*
X30580000Y-4500000D03*
D15*
X47434400Y-14184000D03*
X17560000Y-37410000D03*
X31410000Y-43930000D03*
X45240000Y-43350000D03*
X49090000Y-38000000D03*
X44500000Y-28500000D03*
X29596500Y-38571800D03*
X45334600Y-38564500D03*
X68919000Y-9234700D03*
X22970000Y-19190000D03*
X37000000Y-23386300D03*
X24020500Y-38583600D03*
X45843800Y-36436600D03*
X45756400Y-37985300D03*
X67715900Y-15636400D03*
X64167600Y-16000000D03*
X71697300Y-18400000D03*
X67600600Y-5522600D03*
X55569500Y-17600000D03*
X65202100Y-6076900D03*
X52053000Y-19226000D03*
X56676400Y-24029000D03*
X79025900Y-45285700D03*
X36751500Y-45462000D03*
X27750000Y-46580000D03*
X39259600Y-38684300D03*
X48594074Y-35911590D03*
X41302347Y-43145175D03*
X50320000Y-34980000D03*
X43397084Y-43444476D03*
X46080000Y-42880000D03*
X42930000Y-46540000D03*
X61466500Y-20000000D03*
X53723400Y-46285900D03*
X69987700Y-47755100D03*
X71773300Y-46553400D03*
X74559000Y-45741200D03*
X54972700Y-38854400D03*
X60502200Y-43566200D03*
X73521000Y-46893000D03*
X70321000Y-46070800D03*
D16*
X47434400Y-14184000D02*
X69266000Y-14184000D01*
X69266000Y-14184000D02*
X75140000Y-8310000D01*
X26900000Y-20662500D02*
X27490000Y-20662500D01*
X30825000Y-20000000D02*
X29020000Y-20000000D01*
X12500000Y-21000000D02*
X22690000Y-21000000D01*
X26900000Y-20662500D02*
X24600000Y-20662500D01*
X23027500Y-20662500D02*
X24600000Y-20662500D01*
X22690000Y-21000000D02*
X23027500Y-20662500D01*
X26900000Y-20662500D02*
X28357500Y-20662500D01*
X28357500Y-20662500D02*
X29020000Y-20000000D01*
X24600000Y-16950000D02*
X24600000Y-16931500D01*
X35300000Y-37962500D02*
X35284000Y-37946500D01*
X26900000Y-16962500D02*
X27062500Y-16800000D01*
X56865000Y-40025000D02*
X56865000Y-38735000D01*
X56130000Y-38000000D02*
X55850200Y-37720200D01*
X56865000Y-38735000D02*
X56130000Y-38000000D01*
X26900000Y-16962500D02*
X29127500Y-16962500D01*
X29290000Y-16800000D02*
X30825000Y-16800000D01*
X29127500Y-16962500D02*
X29290000Y-16800000D01*
X41310000Y-40025000D02*
X41310000Y-39010000D01*
X41310000Y-39010000D02*
X40010000Y-37710000D01*
X40010000Y-37710000D02*
X37300000Y-37710000D01*
X37047500Y-37962500D02*
X35300000Y-37962500D01*
X37300000Y-37710000D02*
X37047500Y-37962500D01*
X45247834Y-43350000D02*
X45240000Y-43350000D01*
X46390000Y-44975000D02*
X46390000Y-44492166D01*
X49240000Y-37850000D02*
X49090000Y-38000000D01*
X50900000Y-37850000D02*
X49240000Y-37850000D01*
X46390000Y-44975000D02*
X46390000Y-43870000D01*
X46390000Y-43870000D02*
X46100000Y-43580000D01*
X45470000Y-43580000D02*
X45240000Y-43350000D01*
X46100000Y-43580000D02*
X45470000Y-43580000D01*
X61945000Y-44975000D02*
X61945000Y-43425000D01*
X61945000Y-43425000D02*
X61430000Y-42910000D01*
X61430000Y-42910000D02*
X54100000Y-42910000D01*
X54100000Y-42910000D02*
X53740000Y-43270000D01*
X53740000Y-43270000D02*
X50860000Y-43270000D01*
X49155000Y-44975000D02*
X46390000Y-44975000D01*
X50860000Y-43270000D02*
X49155000Y-44975000D01*
X55720500Y-37590500D02*
X56130000Y-38000000D01*
X52590500Y-37590500D02*
X55720500Y-37590500D01*
X52331000Y-37850000D02*
X52590500Y-37590500D01*
X50900000Y-37850000D02*
X52331000Y-37850000D01*
X45120000Y-40025000D02*
X45120000Y-38779100D01*
X45120000Y-38779100D02*
X45334600Y-38564500D01*
X28675000Y-40025000D02*
X28675000Y-39493300D01*
X29596500Y-38649100D02*
X29596500Y-38571800D01*
X24505100Y-18850000D02*
X24600000Y-18850000D01*
X26900000Y-18837500D02*
X26887500Y-18850000D01*
X26887500Y-18850000D02*
X24600000Y-18850000D01*
X68919000Y-9234700D02*
X71330000Y-6823700D01*
X71330000Y-6823700D02*
X78513700Y-6823700D01*
X78513700Y-6823700D02*
X80000000Y-8310000D01*
X10000000Y-35540000D02*
X9120000Y-35540000D01*
X9120000Y-35540000D02*
X8230000Y-36430000D01*
X8230000Y-36430000D02*
X8230000Y-41370000D01*
X8230000Y-41370000D02*
X9220000Y-42360000D01*
X17672500Y-39737500D02*
X15050000Y-42360000D01*
X19000000Y-39737500D02*
X17672500Y-39737500D01*
X9220000Y-42360000D02*
X15050000Y-42360000D01*
X20295000Y-40025000D02*
X20007500Y-39737500D01*
X21055000Y-40025000D02*
X20295000Y-40025000D01*
X19000000Y-39737500D02*
X20007500Y-39737500D01*
X28675000Y-40025000D02*
X28675000Y-38845000D01*
X28948200Y-38571800D02*
X29596500Y-38571800D01*
X28675000Y-38845000D02*
X28948200Y-38571800D01*
X34453900Y-39837500D02*
X33188200Y-38571800D01*
X35300000Y-39837500D02*
X34453900Y-39837500D01*
X29596500Y-38571800D02*
X33188200Y-38571800D01*
X36755000Y-40025000D02*
X36567500Y-39837500D01*
X37500000Y-40025000D02*
X36755000Y-40025000D01*
X35300000Y-39837500D02*
X36567500Y-39837500D01*
X45120000Y-40970000D02*
X45120000Y-40025000D01*
X45556800Y-41406800D02*
X45120000Y-40970000D01*
X49850000Y-39750000D02*
X48193200Y-41406800D01*
X50900000Y-39750000D02*
X49850000Y-39750000D01*
X48193200Y-41406800D02*
X45556800Y-41406800D01*
X51940000Y-39750000D02*
X52215000Y-40025000D01*
X50900000Y-39750000D02*
X51940000Y-39750000D01*
X52215000Y-40025000D02*
X53055000Y-40025000D01*
X53410000Y-41430000D02*
X53055000Y-41075000D01*
X60400000Y-41430000D02*
X53410000Y-41430000D01*
X60675000Y-41155000D02*
X60400000Y-41430000D01*
X53055000Y-41075000D02*
X53055000Y-40025000D01*
X60675000Y-40025000D02*
X60675000Y-41155000D01*
X28577500Y-18837500D02*
X28940000Y-19200000D01*
X26900000Y-18837500D02*
X28577500Y-18837500D01*
X30825000Y-19200000D02*
X28940000Y-19200000D01*
X23310000Y-18850000D02*
X22970000Y-19190000D01*
X24600000Y-18850000D02*
X23310000Y-18850000D01*
D17*
X37000000Y-23386300D02*
X37000000Y-22175000D01*
X23595000Y-39009100D02*
X24020500Y-38583600D01*
X23595000Y-40025000D02*
X23595000Y-39009100D01*
X45756400Y-37985300D02*
X45073700Y-37985300D01*
X45073700Y-37985300D02*
X43850000Y-39209000D01*
X43850000Y-39209000D02*
X43850000Y-40025000D01*
X45843800Y-36436600D02*
X36200000Y-26792800D01*
X36200000Y-26792800D02*
X36200000Y-22175000D01*
X43510600Y-41389400D02*
X43850000Y-41050000D01*
X39888600Y-41389400D02*
X43510600Y-41389400D01*
X39488300Y-41789700D02*
X39888600Y-41389400D01*
X43850000Y-41050000D02*
X43850000Y-40025000D01*
X35191100Y-41789700D02*
X39488300Y-41789700D01*
X34952400Y-41551000D02*
X35191100Y-41789700D01*
X27861000Y-41551000D02*
X34952400Y-41551000D01*
X27405000Y-41095000D02*
X27861000Y-41551000D01*
X27405000Y-40025000D02*
X27405000Y-41095000D01*
X59405000Y-39005000D02*
X59405000Y-40025000D01*
X45843800Y-36436600D02*
X56836600Y-36436600D01*
X56836600Y-36436600D02*
X59405000Y-39005000D01*
X42580000Y-39532800D02*
X42580000Y-40025000D01*
X35400000Y-22175000D02*
X35400000Y-31005500D01*
X49667800Y-37188900D02*
X42891100Y-37188900D01*
X49859500Y-36997200D02*
X49667800Y-37188900D01*
X56197200Y-36997200D02*
X49859500Y-36997200D01*
X58135000Y-38935000D02*
X56197200Y-36997200D01*
X58135000Y-40025000D02*
X58135000Y-38935000D01*
X34992750Y-31462750D02*
X34942750Y-31462750D01*
X42580000Y-40025000D02*
X42580000Y-39050000D01*
X41725000Y-38165000D02*
X41710000Y-38180000D01*
X41915000Y-38165000D02*
X41725000Y-38165000D01*
X41805000Y-38275000D02*
X41710000Y-38180000D01*
X42891100Y-37188900D02*
X41915000Y-38165000D01*
X41915000Y-38165000D02*
X41805000Y-38275000D01*
X41915000Y-38385000D02*
X41920000Y-38390000D01*
X41915000Y-38165000D02*
X41915000Y-38385000D01*
X41920000Y-38390000D02*
X41805000Y-38275000D01*
X42580000Y-39050000D02*
X41920000Y-38390000D01*
X35117750Y-31582250D02*
X35115000Y-31585000D01*
X35115000Y-31585000D02*
X34992750Y-31462750D01*
X41710000Y-38180000D02*
X35115000Y-31585000D01*
X35117750Y-31287750D02*
X35117750Y-31582250D01*
X35400000Y-31005500D02*
X35117750Y-31287750D01*
X35117750Y-31287750D02*
X34942750Y-31462750D01*
X34915000Y-31585000D02*
X34867750Y-31537750D01*
X35115000Y-31585000D02*
X34915000Y-31585000D01*
X34942750Y-31462750D02*
X34867750Y-31537750D01*
X29968100Y-36437400D02*
X34867750Y-31537750D01*
X26135000Y-40025000D02*
X26135000Y-41095000D01*
X17456500Y-38716500D02*
X16736300Y-37996300D01*
X26135000Y-41095000D02*
X25843800Y-41386200D01*
X16736300Y-37996300D02*
X16736300Y-36956000D01*
X25843800Y-41386200D02*
X23236900Y-41386200D01*
X23236900Y-41386200D02*
X22960000Y-41109300D01*
X16736300Y-36956000D02*
X17254900Y-36437400D01*
X22960000Y-41109300D02*
X22960000Y-39034900D01*
X22960000Y-39034900D02*
X22558100Y-38633000D01*
X22558100Y-38633000D02*
X20472300Y-38633000D01*
X17254900Y-36437400D02*
X29968100Y-36437400D01*
X20472300Y-38633000D02*
X20388800Y-38716500D01*
X20388800Y-38716500D02*
X17456500Y-38716500D01*
X75140000Y-23550000D02*
X75093700Y-23503700D01*
X75093700Y-23503700D02*
X40503700Y-23503700D01*
X40503700Y-23503700D02*
X37000000Y-20000000D01*
X37000000Y-20000000D02*
X37000000Y-13825000D01*
X39175000Y-15200000D02*
X67279500Y-15200000D01*
X67279500Y-15200000D02*
X67715900Y-15636400D01*
X80440900Y-4970400D02*
X82636200Y-7165700D01*
X45709600Y-4970400D02*
X80440900Y-4970400D01*
X82636200Y-7165700D02*
X82636200Y-18373800D01*
X37800000Y-12880000D02*
X45709600Y-4970400D01*
X82636200Y-18373800D02*
X80000000Y-21010000D01*
X37800000Y-13825000D02*
X37800000Y-12880000D01*
X73160000Y-18470000D02*
X71490000Y-16800000D01*
X75140000Y-18470000D02*
X73160000Y-18470000D01*
X39175000Y-16800000D02*
X71490000Y-16800000D01*
X39175000Y-16000000D02*
X64167600Y-16000000D01*
X39175000Y-18400000D02*
X71697300Y-18400000D01*
X67600600Y-5522600D02*
X80406800Y-5522600D01*
X80406800Y-5522600D02*
X82202000Y-7317800D01*
X82202000Y-7317800D02*
X82202000Y-13728000D01*
X82202000Y-13728000D02*
X80000000Y-15930000D01*
X39175000Y-17600000D02*
X55569500Y-17600000D01*
X65202100Y-6076900D02*
X67856700Y-6076900D01*
X67856700Y-6076900D02*
X68010700Y-5922900D01*
X68010700Y-5922900D02*
X80172600Y-5922900D01*
X80172600Y-5922900D02*
X81801600Y-7551900D01*
X81801600Y-7551900D02*
X81801600Y-11588400D01*
X81801600Y-11588400D02*
X80000000Y-13390000D01*
X39175000Y-19200000D02*
X39201000Y-19226000D01*
X39201000Y-19226000D02*
X52053000Y-19226000D01*
X55595000Y-40025000D02*
X55595000Y-38709200D01*
X55595000Y-38709200D02*
X55171300Y-38285500D01*
X55171300Y-38285500D02*
X52819900Y-38285500D01*
X52819900Y-38285500D02*
X52305400Y-38800000D01*
X52305400Y-38800000D02*
X47615000Y-38800000D01*
X47615000Y-38800000D02*
X46390000Y-40025000D01*
X81401200Y-9448800D02*
X80000000Y-10850000D01*
X81401200Y-7717800D02*
X81401200Y-9448800D01*
X67113400Y-8659300D02*
X69449400Y-6323300D01*
X69449400Y-6323300D02*
X80006700Y-6323300D01*
X44340700Y-8659300D02*
X67113400Y-8659300D01*
X37900000Y-15100000D02*
X44340700Y-8659300D01*
X80006700Y-6323300D02*
X81401200Y-7717800D01*
X37900000Y-20280000D02*
X37900000Y-15100000D01*
X38420000Y-20800000D02*
X37900000Y-20280000D01*
X39175000Y-20800000D02*
X38420000Y-20800000D01*
X38749000Y-24029000D02*
X56676400Y-24029000D01*
X37800000Y-23080000D02*
X38749000Y-24029000D01*
X37800000Y-22175000D02*
X37800000Y-23080000D01*
X10000000Y-38080000D02*
X11150300Y-38080000D01*
X32200000Y-22175000D02*
X32200000Y-23190000D01*
X21434850Y-33955150D02*
X15275150Y-33955150D01*
X32200000Y-23190000D02*
X21434850Y-33955150D01*
X15275150Y-33955150D02*
X11150300Y-38080000D01*
X11150300Y-40620000D02*
X10000000Y-40620000D01*
X16110300Y-35660000D02*
X11150300Y-40620000D01*
X20410000Y-35660000D02*
X16110300Y-35660000D01*
X33000000Y-23070000D02*
X20410000Y-35660000D01*
X33000000Y-22175000D02*
X33000000Y-23070000D01*
X73615000Y-42345000D02*
X75140000Y-43870000D01*
X40065200Y-42345000D02*
X73615000Y-42345000D01*
X22325000Y-41875000D02*
X21724000Y-42476000D01*
X21724000Y-42476000D02*
X21724000Y-46224000D01*
X22650000Y-46480000D02*
X22960000Y-46170000D01*
X22960000Y-46170000D02*
X22960000Y-43780000D01*
X34859500Y-42590300D02*
X39819900Y-42590300D01*
X21980000Y-46480000D02*
X22650000Y-46480000D01*
X22325000Y-40025000D02*
X22325000Y-41875000D01*
X21724000Y-46224000D02*
X21980000Y-46480000D01*
X39819900Y-42590300D02*
X40065200Y-42345000D01*
X22960000Y-43780000D02*
X24209400Y-42530600D01*
X24209400Y-42530600D02*
X34799800Y-42530600D01*
X34799800Y-42530600D02*
X34859500Y-42590300D01*
X22325000Y-44975000D02*
X22325000Y-43849300D01*
X22325000Y-43849300D02*
X24044000Y-42130300D01*
X24044000Y-42130300D02*
X34965600Y-42130300D01*
X34965600Y-42130300D02*
X35025300Y-42190000D01*
X35025300Y-42190000D02*
X39654100Y-42190000D01*
X39654100Y-42190000D02*
X39899500Y-41944600D01*
X39899500Y-41944600D02*
X74525400Y-41944600D01*
X74525400Y-41944600D02*
X75140000Y-41330000D01*
X21055000Y-46355000D02*
X21055000Y-44975000D01*
X25448400Y-50748400D02*
X21055000Y-46355000D01*
X73827800Y-50748400D02*
X25448400Y-50748400D01*
X79025900Y-45550300D02*
X73827800Y-50748400D01*
X79025900Y-45285700D02*
X79025900Y-45550300D01*
X34234900Y-42945400D02*
X36751500Y-45462000D01*
X25814600Y-42945400D02*
X34234900Y-42945400D01*
X24865000Y-43895000D02*
X25814600Y-42945400D01*
X24865000Y-44975000D02*
X24865000Y-43895000D01*
X78500500Y-40289500D02*
X80000000Y-38790000D01*
X78500500Y-45509600D02*
X78500500Y-40289500D01*
X73662000Y-50348100D02*
X78500500Y-45509600D01*
X27708100Y-50348100D02*
X73662000Y-50348100D01*
X23595000Y-46235000D02*
X27708100Y-50348100D01*
X23595000Y-44975000D02*
X23595000Y-46235000D01*
X27405000Y-46235000D02*
X27750000Y-46580000D01*
X27405000Y-44975000D02*
X27405000Y-46235000D01*
X78100200Y-38149800D02*
X80000000Y-36250000D01*
X78100200Y-45343800D02*
X78100200Y-38149800D01*
X73496200Y-49947800D02*
X78100200Y-45343800D01*
X29197800Y-49947800D02*
X73496200Y-49947800D01*
X26135000Y-46885000D02*
X29197800Y-49947800D01*
X26135000Y-44975000D02*
X26135000Y-46885000D01*
X38770000Y-40025000D02*
X38770000Y-39173900D01*
X38770000Y-39173900D02*
X39259600Y-38684300D01*
X72938410Y-35911590D02*
X48594074Y-35911590D01*
X75140000Y-33710000D02*
X72938410Y-35911590D01*
X77699900Y-36010100D02*
X80000000Y-33710000D01*
X77699900Y-45178000D02*
X77699900Y-36010100D01*
X73330400Y-49547500D02*
X77699900Y-45178000D01*
X32107500Y-49547500D02*
X73330400Y-49547500D01*
X28675000Y-46115000D02*
X32107500Y-49547500D01*
X28675000Y-44975000D02*
X28675000Y-46115000D01*
X75140000Y-31170000D02*
X71779100Y-34530900D01*
X39494825Y-43145175D02*
X41302347Y-43145175D01*
X38770000Y-44975000D02*
X38770000Y-43870000D01*
X38770000Y-43870000D02*
X39494825Y-43145175D01*
X50769100Y-34530900D02*
X50320000Y-34980000D01*
X71779100Y-34530900D02*
X50769100Y-34530900D01*
X37500000Y-46050000D02*
X37500000Y-44975000D01*
X40597200Y-49147200D02*
X37500000Y-46050000D01*
X73164600Y-49147200D02*
X40597200Y-49147200D01*
X77299600Y-45012200D02*
X73164600Y-49147200D01*
X77299600Y-33870400D02*
X77299600Y-45012200D01*
X80000000Y-31170000D02*
X77299600Y-33870400D01*
X41310000Y-44975000D02*
X41310000Y-43880000D01*
X41745524Y-43444476D02*
X43397084Y-43444476D01*
X41310000Y-43880000D02*
X41745524Y-43444476D01*
X42706900Y-48746900D02*
X40040000Y-46080000D01*
X40040000Y-46080000D02*
X40040000Y-44975000D01*
X76899200Y-44846500D02*
X72998800Y-48746900D01*
X72998800Y-48746900D02*
X42706900Y-48746900D01*
X76899200Y-31730800D02*
X76899200Y-44846500D01*
X80000000Y-28630000D02*
X76899200Y-31730800D01*
X43850000Y-43710000D02*
X44790000Y-42770000D01*
X43850000Y-44975000D02*
X43850000Y-43710000D01*
X45840000Y-42880000D02*
X45730000Y-42770000D01*
X46080000Y-42880000D02*
X45840000Y-42880000D01*
X44790000Y-42770000D02*
X45730000Y-42770000D01*
X42580000Y-44975000D02*
X42580000Y-45521200D01*
X42580000Y-46190000D02*
X42930000Y-46540000D01*
X42580000Y-44975000D02*
X42580000Y-46190000D01*
X76440400Y-27109600D02*
X80000000Y-23550000D01*
X72833000Y-48346600D02*
X76440400Y-44739200D01*
X76440400Y-44739200D02*
X76440400Y-27109600D01*
X47636600Y-48346600D02*
X72833000Y-48346600D01*
X45120000Y-45830000D02*
X47636600Y-48346600D01*
X45120000Y-44975000D02*
X45120000Y-45830000D01*
X39175000Y-20000000D02*
X61466500Y-20000000D01*
X53723400Y-46285900D02*
X53055000Y-45617500D01*
X53055000Y-45617500D02*
X53055000Y-44975000D01*
X55595000Y-46185000D02*
X55595000Y-44975000D01*
X57325400Y-47915400D02*
X55595000Y-46185000D01*
X69827400Y-47915400D02*
X57325400Y-47915400D01*
X69987700Y-47755100D02*
X69827400Y-47915400D01*
X58135000Y-46015000D02*
X58135000Y-44975000D01*
X63100500Y-47114800D02*
X59234800Y-47114800D01*
X63619200Y-46596100D02*
X63100500Y-47114800D01*
X59234800Y-47114800D02*
X58135000Y-46015000D01*
X71730600Y-46596100D02*
X63619200Y-46596100D01*
X71773300Y-46553400D02*
X71730600Y-46596100D01*
X60675000Y-45925000D02*
X60675000Y-44975000D01*
X61062800Y-46312800D02*
X60675000Y-45925000D01*
X62519100Y-46312800D02*
X61062800Y-46312800D01*
X63286400Y-45545500D02*
X62519100Y-46312800D01*
X74363300Y-45545500D02*
X63286400Y-45545500D01*
X74559000Y-45741200D02*
X74363300Y-45545500D01*
X54325000Y-40025000D02*
X54325000Y-39502100D01*
X54325000Y-39502100D02*
X54972700Y-38854400D01*
X54733800Y-43566200D02*
X60502200Y-43566200D01*
X54325000Y-44975000D02*
X54325000Y-43975000D01*
X54325000Y-43975000D02*
X54733800Y-43566200D01*
X56865000Y-46085000D02*
X56865000Y-44975000D01*
X58295100Y-47515100D02*
X56865000Y-46085000D01*
X63432100Y-47515100D02*
X58295100Y-47515100D01*
X63868500Y-47078700D02*
X63432100Y-47515100D01*
X73335300Y-47078700D02*
X63868500Y-47078700D01*
X73521000Y-46893000D02*
X73335300Y-47078700D01*
X59405000Y-46065000D02*
X59405000Y-44975000D01*
X62900500Y-46714500D02*
X60054500Y-46714500D01*
X60054500Y-46714500D02*
X59405000Y-46065000D01*
X63544200Y-46070800D02*
X62900500Y-46714500D01*
X70321000Y-46070800D02*
X63544200Y-46070800D01*
X40040000Y-40471600D02*
X40040000Y-40025000D01*
X39122200Y-41389400D02*
X40040000Y-40471600D01*
X35456800Y-41389400D02*
X39122200Y-41389400D01*
X35218100Y-41150700D02*
X35456800Y-41389400D01*
X30130700Y-41150700D02*
X35218100Y-41150700D01*
X29945000Y-40965000D02*
X30130700Y-41150700D01*
X29945000Y-40025000D02*
X29945000Y-40965000D01*
X28040000Y-4500000D02*
X28040000Y-5650300D01*
X28040000Y-5650300D02*
X33800000Y-11410300D01*
X33800000Y-11410300D02*
X33800000Y-13825000D01*
X30580000Y-4500000D02*
X30580000Y-5650300D01*
X30580000Y-5650300D02*
X34600000Y-9670300D01*
X34600000Y-9670300D02*
X34600000Y-13825000D01*
D18*
X100790001Y-54790000D02*
X710000Y-54790000D01*
X710000Y-50289721D01*
X2865000Y-50289721D01*
X2865000Y-50710279D01*
X2947047Y-51122756D01*
X3107988Y-51511302D01*
X3341637Y-51860983D01*
X3639017Y-52158363D01*
X3988698Y-52392012D01*
X4377244Y-52552953D01*
X4789721Y-52635000D01*
X5210279Y-52635000D01*
X5622756Y-52552953D01*
X6011302Y-52392012D01*
X6360983Y-52158363D01*
X6658363Y-51860983D01*
X6892012Y-51511302D01*
X7052953Y-51122756D01*
X7135000Y-50710279D01*
X7135000Y-50289721D01*
X7052953Y-49877244D01*
X6892012Y-49488698D01*
X6658363Y-49139017D01*
X6360983Y-48841637D01*
X6011302Y-48607988D01*
X5622756Y-48447047D01*
X5210279Y-48365000D01*
X4789721Y-48365000D01*
X4377244Y-48447047D01*
X3988698Y-48607988D01*
X3639017Y-48841637D01*
X3341637Y-49139017D01*
X3107988Y-49488698D01*
X2947047Y-49877244D01*
X2865000Y-50289721D01*
X710000Y-50289721D01*
X710000Y-36430000D01*
X7441203Y-36430000D01*
X7445000Y-36468553D01*
X7445001Y-41331437D01*
X7441203Y-41370000D01*
X7456359Y-41523886D01*
X7501246Y-41671859D01*
X7518500Y-41704138D01*
X7574139Y-41808233D01*
X7612766Y-41855300D01*
X7647655Y-41897812D01*
X7647659Y-41897816D01*
X7672237Y-41927764D01*
X7702185Y-41952342D01*
X8637657Y-42887815D01*
X8662236Y-42917764D01*
X8692184Y-42942342D01*
X8692187Y-42942345D01*
X8712587Y-42959087D01*
X8781767Y-43015862D01*
X8918140Y-43088754D01*
X9031672Y-43123194D01*
X9066112Y-43133641D01*
X9080490Y-43135057D01*
X9181439Y-43145000D01*
X9181446Y-43145000D01*
X9219999Y-43148797D01*
X9258552Y-43145000D01*
X15011447Y-43145000D01*
X15050000Y-43148797D01*
X15088553Y-43145000D01*
X15088561Y-43145000D01*
X15203887Y-43133641D01*
X15351860Y-43088754D01*
X15488233Y-43015862D01*
X15607764Y-42917764D01*
X15632347Y-42887810D01*
X17918025Y-40602132D01*
X17920208Y-40604792D01*
X18053836Y-40714458D01*
X18206291Y-40795947D01*
X18371715Y-40846128D01*
X18543750Y-40863072D01*
X19456250Y-40863072D01*
X19628285Y-40846128D01*
X19793709Y-40795947D01*
X19932893Y-40721552D01*
X19993140Y-40753754D01*
X20104897Y-40787655D01*
X20116928Y-40791305D01*
X20116928Y-40850000D01*
X20132071Y-41003745D01*
X20176916Y-41151582D01*
X20249742Y-41287829D01*
X20347749Y-41407251D01*
X20467171Y-41505258D01*
X20603418Y-41578084D01*
X20751255Y-41622929D01*
X20905000Y-41638072D01*
X21205000Y-41638072D01*
X21358745Y-41622929D01*
X21506582Y-41578084D01*
X21590001Y-41533495D01*
X21590001Y-41570553D01*
X21229808Y-41930746D01*
X21201762Y-41953763D01*
X21109913Y-42065681D01*
X21041663Y-42193368D01*
X21025101Y-42247967D01*
X20999635Y-42331915D01*
X20985444Y-42476000D01*
X20989000Y-42512105D01*
X20989000Y-43361928D01*
X20905000Y-43361928D01*
X20751255Y-43377071D01*
X20603418Y-43421916D01*
X20467171Y-43494742D01*
X20347749Y-43592749D01*
X20249742Y-43712171D01*
X20176916Y-43848418D01*
X20132071Y-43996255D01*
X20116928Y-44150000D01*
X20116928Y-45800000D01*
X20132071Y-45953745D01*
X20176916Y-46101582D01*
X20249742Y-46237829D01*
X20319600Y-46322952D01*
X20316444Y-46355000D01*
X20330635Y-46499085D01*
X20339432Y-46528084D01*
X20372663Y-46637632D01*
X20440913Y-46765319D01*
X20532762Y-46877237D01*
X20560808Y-46900254D01*
X24903146Y-51242593D01*
X24926162Y-51270638D01*
X25038080Y-51362487D01*
X25165767Y-51430737D01*
X25304315Y-51472765D01*
X25448400Y-51486956D01*
X25484505Y-51483400D01*
X73791695Y-51483400D01*
X73827800Y-51486956D01*
X73863905Y-51483400D01*
X73971885Y-51472765D01*
X74110433Y-51430737D01*
X74238120Y-51362487D01*
X74350038Y-51270638D01*
X74373059Y-51242587D01*
X75325925Y-50289721D01*
X94365000Y-50289721D01*
X94365000Y-50710279D01*
X94447047Y-51122756D01*
X94607988Y-51511302D01*
X94841637Y-51860983D01*
X95139017Y-52158363D01*
X95488698Y-52392012D01*
X95877244Y-52552953D01*
X96289721Y-52635000D01*
X96710279Y-52635000D01*
X97122756Y-52552953D01*
X97511302Y-52392012D01*
X97860983Y-52158363D01*
X98158363Y-51860983D01*
X98392012Y-51511302D01*
X98552953Y-51122756D01*
X98635000Y-50710279D01*
X98635000Y-50289721D01*
X98552953Y-49877244D01*
X98392012Y-49488698D01*
X98158363Y-49139017D01*
X97860983Y-48841637D01*
X97511302Y-48607988D01*
X97122756Y-48447047D01*
X96710279Y-48365000D01*
X96289721Y-48365000D01*
X95877244Y-48447047D01*
X95488698Y-48607988D01*
X95139017Y-48841637D01*
X94841637Y-49139017D01*
X94607988Y-49488698D01*
X94447047Y-49877244D01*
X94365000Y-50289721D01*
X75325925Y-50289721D01*
X79520093Y-46095554D01*
X79548138Y-46072538D01*
X79639987Y-45960620D01*
X79644398Y-45952367D01*
X79708237Y-45832934D01*
X79719607Y-45795453D01*
X79788022Y-45693063D01*
X79852851Y-45536553D01*
X79862178Y-45489665D01*
X80062595Y-45501718D01*
X80381675Y-45457961D01*
X80686088Y-45352795D01*
X80860044Y-45259814D01*
X80955808Y-44995413D01*
X80000000Y-44039605D01*
X79985858Y-44053748D01*
X79806253Y-43874143D01*
X79820395Y-43860000D01*
X80179605Y-43860000D01*
X81135413Y-44815808D01*
X81399814Y-44720044D01*
X81540704Y-44430429D01*
X81622384Y-44118892D01*
X81641718Y-43797405D01*
X81597961Y-43478325D01*
X81492795Y-43173912D01*
X81399814Y-42999956D01*
X81135413Y-42904192D01*
X80179605Y-43860000D01*
X79820395Y-43860000D01*
X79806253Y-43845858D01*
X79985858Y-43666253D01*
X80000000Y-43680395D01*
X80955808Y-42724587D01*
X80936316Y-42670771D01*
X81042252Y-42599987D01*
X81269987Y-42372252D01*
X81448918Y-42104463D01*
X81572168Y-41806912D01*
X81635000Y-41491033D01*
X81635000Y-41168967D01*
X81572168Y-40853088D01*
X81448918Y-40555537D01*
X81269987Y-40287748D01*
X81042252Y-40060013D01*
X81042233Y-40060000D01*
X81042252Y-40059987D01*
X81269987Y-39832252D01*
X81448918Y-39564463D01*
X81572168Y-39266912D01*
X81635000Y-38951033D01*
X81635000Y-38628967D01*
X81572168Y-38313088D01*
X81448918Y-38015537D01*
X81269987Y-37747748D01*
X81042252Y-37520013D01*
X81042233Y-37520000D01*
X81042252Y-37519987D01*
X81269987Y-37292252D01*
X81448918Y-37024463D01*
X81572168Y-36726912D01*
X81635000Y-36411033D01*
X81635000Y-36088967D01*
X81572168Y-35773088D01*
X81448918Y-35475537D01*
X81269987Y-35207748D01*
X81042252Y-34980013D01*
X81042233Y-34980000D01*
X81042252Y-34979987D01*
X81269987Y-34752252D01*
X81448918Y-34484463D01*
X81572168Y-34186912D01*
X81635000Y-33871033D01*
X81635000Y-33548967D01*
X81572168Y-33233088D01*
X81448918Y-32935537D01*
X81269987Y-32667748D01*
X81042252Y-32440013D01*
X81042233Y-32440000D01*
X81042252Y-32439987D01*
X81269987Y-32212252D01*
X81448918Y-31944463D01*
X81572168Y-31646912D01*
X81635000Y-31331033D01*
X81635000Y-31008967D01*
X81572168Y-30693088D01*
X81448918Y-30395537D01*
X81269987Y-30127748D01*
X81042252Y-29900013D01*
X81042233Y-29900000D01*
X81042252Y-29899987D01*
X81269987Y-29672252D01*
X81448918Y-29404463D01*
X81536202Y-29193740D01*
X88475000Y-29193740D01*
X88475000Y-29486260D01*
X88532068Y-29773158D01*
X88644010Y-30043411D01*
X88806525Y-30286632D01*
X89013368Y-30493475D01*
X89187760Y-30610000D01*
X89013368Y-30726525D01*
X88806525Y-30933368D01*
X88644010Y-31176589D01*
X88532068Y-31446842D01*
X88475000Y-31733740D01*
X88475000Y-32026260D01*
X88532068Y-32313158D01*
X88644010Y-32583411D01*
X88806525Y-32826632D01*
X89013368Y-33033475D01*
X89187760Y-33150000D01*
X89013368Y-33266525D01*
X88806525Y-33473368D01*
X88644010Y-33716589D01*
X88532068Y-33986842D01*
X88475000Y-34273740D01*
X88475000Y-34566260D01*
X88532068Y-34853158D01*
X88644010Y-35123411D01*
X88806525Y-35366632D01*
X89013368Y-35573475D01*
X89187760Y-35690000D01*
X89013368Y-35806525D01*
X88806525Y-36013368D01*
X88644010Y-36256589D01*
X88532068Y-36526842D01*
X88475000Y-36813740D01*
X88475000Y-37106260D01*
X88532068Y-37393158D01*
X88644010Y-37663411D01*
X88806525Y-37906632D01*
X89013368Y-38113475D01*
X89187760Y-38230000D01*
X89013368Y-38346525D01*
X88806525Y-38553368D01*
X88644010Y-38796589D01*
X88532068Y-39066842D01*
X88475000Y-39353740D01*
X88475000Y-39646260D01*
X88532068Y-39933158D01*
X88644010Y-40203411D01*
X88806525Y-40446632D01*
X89013368Y-40653475D01*
X89256589Y-40815990D01*
X89526842Y-40927932D01*
X89813740Y-40985000D01*
X90106260Y-40985000D01*
X90393158Y-40927932D01*
X90663411Y-40815990D01*
X90906632Y-40653475D01*
X91038487Y-40521620D01*
X91060498Y-40594180D01*
X91119463Y-40704494D01*
X91198815Y-40801185D01*
X91295506Y-40880537D01*
X91405820Y-40939502D01*
X91525518Y-40975812D01*
X91650000Y-40988072D01*
X92214250Y-40985000D01*
X92373000Y-40826250D01*
X92373000Y-39627000D01*
X92627000Y-39627000D01*
X92627000Y-40826250D01*
X92785750Y-40985000D01*
X93350000Y-40988072D01*
X93474482Y-40975812D01*
X93594180Y-40939502D01*
X93704494Y-40880537D01*
X93801185Y-40801185D01*
X93880537Y-40704494D01*
X93939502Y-40594180D01*
X93975812Y-40474482D01*
X93988072Y-40350000D01*
X93985000Y-39785750D01*
X93826250Y-39627000D01*
X92627000Y-39627000D01*
X92373000Y-39627000D01*
X92353000Y-39627000D01*
X92353000Y-39373000D01*
X92373000Y-39373000D01*
X92373000Y-39353000D01*
X92627000Y-39353000D01*
X92627000Y-39373000D01*
X93826250Y-39373000D01*
X93985000Y-39214250D01*
X93988072Y-38650000D01*
X93975812Y-38525518D01*
X93939502Y-38405820D01*
X93880537Y-38295506D01*
X93801185Y-38198815D01*
X93704494Y-38119463D01*
X93594180Y-38060498D01*
X93521620Y-38038487D01*
X93653475Y-37906632D01*
X93815990Y-37663411D01*
X93927932Y-37393158D01*
X93985000Y-37106260D01*
X93985000Y-36813740D01*
X93927932Y-36526842D01*
X93815990Y-36256589D01*
X93653475Y-36013368D01*
X93446632Y-35806525D01*
X93272240Y-35690000D01*
X93446632Y-35573475D01*
X93653475Y-35366632D01*
X93815990Y-35123411D01*
X93927932Y-34853158D01*
X93985000Y-34566260D01*
X93985000Y-34273740D01*
X93927932Y-33986842D01*
X93815990Y-33716589D01*
X93653475Y-33473368D01*
X93446632Y-33266525D01*
X93272240Y-33150000D01*
X93446632Y-33033475D01*
X93653475Y-32826632D01*
X93815990Y-32583411D01*
X93927932Y-32313158D01*
X93985000Y-32026260D01*
X93985000Y-31733740D01*
X93927932Y-31446842D01*
X93815990Y-31176589D01*
X93653475Y-30933368D01*
X93446632Y-30726525D01*
X93272240Y-30610000D01*
X93446632Y-30493475D01*
X93653475Y-30286632D01*
X93815990Y-30043411D01*
X93927932Y-29773158D01*
X93985000Y-29486260D01*
X93985000Y-29193740D01*
X93927932Y-28906842D01*
X93815990Y-28636589D01*
X93653475Y-28393368D01*
X93446632Y-28186525D01*
X93203411Y-28024010D01*
X92933158Y-27912068D01*
X92646260Y-27855000D01*
X92353740Y-27855000D01*
X92066842Y-27912068D01*
X91796589Y-28024010D01*
X91553368Y-28186525D01*
X91346525Y-28393368D01*
X91230000Y-28567760D01*
X91113475Y-28393368D01*
X90906632Y-28186525D01*
X90663411Y-28024010D01*
X90393158Y-27912068D01*
X90106260Y-27855000D01*
X89813740Y-27855000D01*
X89526842Y-27912068D01*
X89256589Y-28024010D01*
X89013368Y-28186525D01*
X88806525Y-28393368D01*
X88644010Y-28636589D01*
X88532068Y-28906842D01*
X88475000Y-29193740D01*
X81536202Y-29193740D01*
X81572168Y-29106912D01*
X81635000Y-28791033D01*
X81635000Y-28468967D01*
X81572168Y-28153088D01*
X81448918Y-27855537D01*
X81269987Y-27587748D01*
X81042252Y-27360013D01*
X81042233Y-27360000D01*
X81042252Y-27359987D01*
X81269987Y-27132252D01*
X81448918Y-26864463D01*
X81572168Y-26566912D01*
X81635000Y-26251033D01*
X81635000Y-25928967D01*
X81572168Y-25613088D01*
X81448918Y-25315537D01*
X81269987Y-25047748D01*
X81042252Y-24820013D01*
X81042233Y-24820000D01*
X81042252Y-24819987D01*
X81269987Y-24592252D01*
X81448918Y-24324463D01*
X81572168Y-24026912D01*
X81635000Y-23711033D01*
X81635000Y-23388967D01*
X81572168Y-23073088D01*
X81448918Y-22775537D01*
X81269987Y-22507748D01*
X81042252Y-22280013D01*
X81042233Y-22280000D01*
X81042252Y-22279987D01*
X81269987Y-22052252D01*
X81448918Y-21784463D01*
X81572168Y-21486912D01*
X81635000Y-21171033D01*
X81635000Y-20848967D01*
X81572168Y-20533088D01*
X81555822Y-20493625D01*
X83130393Y-18919054D01*
X83158438Y-18896038D01*
X83250287Y-18784120D01*
X83318537Y-18656433D01*
X83360565Y-18517885D01*
X83371200Y-18409905D01*
X83374756Y-18373800D01*
X83371200Y-18337695D01*
X83371200Y-7201804D01*
X83374756Y-7165699D01*
X83360565Y-7021614D01*
X83335144Y-6937813D01*
X83318537Y-6883067D01*
X83250287Y-6755380D01*
X83206317Y-6701803D01*
X83181453Y-6671506D01*
X83181450Y-6671503D01*
X83158437Y-6643462D01*
X83130397Y-6620450D01*
X81299668Y-4789721D01*
X94365000Y-4789721D01*
X94365000Y-5210279D01*
X94447047Y-5622756D01*
X94607988Y-6011302D01*
X94841637Y-6360983D01*
X95139017Y-6658363D01*
X95488698Y-6892012D01*
X95877244Y-7052953D01*
X96289721Y-7135000D01*
X96710279Y-7135000D01*
X97122756Y-7052953D01*
X97511302Y-6892012D01*
X97860983Y-6658363D01*
X98158363Y-6360983D01*
X98392012Y-6011302D01*
X98552953Y-5622756D01*
X98635000Y-5210279D01*
X98635000Y-4789721D01*
X98552953Y-4377244D01*
X98392012Y-3988698D01*
X98158363Y-3639017D01*
X97860983Y-3341637D01*
X97511302Y-3107988D01*
X97122756Y-2947047D01*
X96710279Y-2865000D01*
X96289721Y-2865000D01*
X95877244Y-2947047D01*
X95488698Y-3107988D01*
X95139017Y-3341637D01*
X94841637Y-3639017D01*
X94607988Y-3988698D01*
X94447047Y-4377244D01*
X94365000Y-4789721D01*
X81299668Y-4789721D01*
X80986158Y-4476212D01*
X80963138Y-4448162D01*
X80851220Y-4356313D01*
X80723533Y-4288063D01*
X80584985Y-4246035D01*
X80477005Y-4235400D01*
X80440900Y-4231844D01*
X80404795Y-4235400D01*
X45745705Y-4235400D01*
X45709600Y-4231844D01*
X45565515Y-4246035D01*
X45426966Y-4288063D01*
X45304094Y-4353740D01*
X45299280Y-4356313D01*
X45187362Y-4448162D01*
X45164346Y-4476207D01*
X37305808Y-12334746D01*
X37277763Y-12357762D01*
X37206227Y-12444928D01*
X37125000Y-12436928D01*
X36875000Y-12436928D01*
X36726132Y-12451590D01*
X36600000Y-12489852D01*
X36473868Y-12451590D01*
X36325000Y-12436928D01*
X36075000Y-12436928D01*
X35926132Y-12451590D01*
X35800000Y-12489852D01*
X35673868Y-12451590D01*
X35525000Y-12436928D01*
X35335000Y-12436928D01*
X35335000Y-9706405D01*
X35338556Y-9670300D01*
X35324365Y-9526215D01*
X35282337Y-9387666D01*
X35214087Y-9259980D01*
X35145253Y-9176106D01*
X35145250Y-9176103D01*
X35122237Y-9148062D01*
X35094197Y-9125050D01*
X31574627Y-5605480D01*
X31733475Y-5446632D01*
X31895990Y-5203411D01*
X32007932Y-4933158D01*
X32065000Y-4646260D01*
X32065000Y-4353740D01*
X32007932Y-4066842D01*
X31895990Y-3796589D01*
X31733475Y-3553368D01*
X31526632Y-3346525D01*
X31283411Y-3184010D01*
X31013158Y-3072068D01*
X30726260Y-3015000D01*
X30433740Y-3015000D01*
X30146842Y-3072068D01*
X29876589Y-3184010D01*
X29633368Y-3346525D01*
X29426525Y-3553368D01*
X29310000Y-3727760D01*
X29193475Y-3553368D01*
X28986632Y-3346525D01*
X28743411Y-3184010D01*
X28473158Y-3072068D01*
X28186260Y-3015000D01*
X27893740Y-3015000D01*
X27606842Y-3072068D01*
X27336589Y-3184010D01*
X27093368Y-3346525D01*
X26961513Y-3478380D01*
X26939502Y-3405820D01*
X26880537Y-3295506D01*
X26801185Y-3198815D01*
X26704494Y-3119463D01*
X26594180Y-3060498D01*
X26474482Y-3024188D01*
X26350000Y-3011928D01*
X25785750Y-3015000D01*
X25627000Y-3173750D01*
X25627000Y-4373000D01*
X25647000Y-4373000D01*
X25647000Y-4627000D01*
X25627000Y-4627000D01*
X25627000Y-5826250D01*
X25785750Y-5985000D01*
X26350000Y-5988072D01*
X26474482Y-5975812D01*
X26594180Y-5939502D01*
X26704494Y-5880537D01*
X26801185Y-5801185D01*
X26880537Y-5704494D01*
X26939502Y-5594180D01*
X26961513Y-5521620D01*
X27093368Y-5653475D01*
X27318528Y-5803922D01*
X27356147Y-5927932D01*
X27357664Y-5932933D01*
X27425914Y-6060620D01*
X27517763Y-6172538D01*
X27545808Y-6195554D01*
X33065000Y-11714747D01*
X33065000Y-12436928D01*
X32875000Y-12436928D01*
X32726132Y-12451590D01*
X32600000Y-12489852D01*
X32473868Y-12451590D01*
X32325000Y-12436928D01*
X32075000Y-12436928D01*
X31926132Y-12451590D01*
X31782985Y-12495013D01*
X31651060Y-12565529D01*
X31535427Y-12660427D01*
X31440529Y-12776060D01*
X31370013Y-12907985D01*
X31326590Y-13051132D01*
X31311928Y-13200000D01*
X31311928Y-14311928D01*
X30200000Y-14311928D01*
X30051132Y-14326590D01*
X29907985Y-14370013D01*
X29776060Y-14440529D01*
X29660427Y-14535427D01*
X29565529Y-14651060D01*
X29495013Y-14782985D01*
X29451590Y-14926132D01*
X29436928Y-15075000D01*
X29436928Y-15325000D01*
X29451590Y-15473868D01*
X29489852Y-15600000D01*
X29451590Y-15726132D01*
X29436928Y-15875000D01*
X29436928Y-16125000D01*
X29451590Y-16273868D01*
X29473513Y-16346139D01*
X29451109Y-16416227D01*
X29440000Y-16518250D01*
X29598750Y-16677000D01*
X29675569Y-16677000D01*
X29776060Y-16759471D01*
X29851884Y-16800000D01*
X29776060Y-16840529D01*
X29675569Y-16923000D01*
X29598750Y-16923000D01*
X29440000Y-17081750D01*
X29451109Y-17183773D01*
X29473513Y-17253861D01*
X29451590Y-17326132D01*
X29436928Y-17475000D01*
X29436928Y-17725000D01*
X29451590Y-17873868D01*
X29489852Y-18000000D01*
X29451590Y-18126132D01*
X29436928Y-18275000D01*
X29436928Y-18415000D01*
X29265157Y-18415000D01*
X29159847Y-18309690D01*
X29135264Y-18279736D01*
X29015733Y-18181638D01*
X28879360Y-18108746D01*
X28731387Y-18063859D01*
X28616061Y-18052500D01*
X28616053Y-18052500D01*
X28577500Y-18048703D01*
X28538947Y-18052500D01*
X28047328Y-18052500D01*
X27979792Y-17970208D01*
X27973436Y-17964992D01*
X28051185Y-17901185D01*
X28130537Y-17804494D01*
X28189502Y-17694180D01*
X28225812Y-17574482D01*
X28238072Y-17450000D01*
X28235000Y-17248250D01*
X28076250Y-17089500D01*
X27027000Y-17089500D01*
X27027000Y-17109500D01*
X26773000Y-17109500D01*
X26773000Y-17089500D01*
X25813750Y-17089500D01*
X25801250Y-17077000D01*
X24727000Y-17077000D01*
X24727000Y-17097000D01*
X24473000Y-17097000D01*
X24473000Y-17077000D01*
X23398750Y-17077000D01*
X23240000Y-17235750D01*
X23236928Y-17450000D01*
X23249188Y-17574482D01*
X23285498Y-17694180D01*
X23344463Y-17804494D01*
X23423815Y-17901185D01*
X23503594Y-17966658D01*
X23497038Y-17972038D01*
X23420747Y-18065000D01*
X23348556Y-18065000D01*
X23310000Y-18061203D01*
X23271444Y-18065000D01*
X23271439Y-18065000D01*
X23231026Y-18068980D01*
X23156113Y-18076358D01*
X23020927Y-18117367D01*
X23008140Y-18121246D01*
X22871767Y-18194138D01*
X22752236Y-18292236D01*
X22727649Y-18322195D01*
X22663918Y-18385926D01*
X22562637Y-18427878D01*
X22421782Y-18521995D01*
X22301995Y-18641782D01*
X22207878Y-18782637D01*
X22143049Y-18939147D01*
X22110000Y-19105297D01*
X22110000Y-19274703D01*
X22143049Y-19440853D01*
X22207878Y-19597363D01*
X22301995Y-19738218D01*
X22421782Y-19858005D01*
X22562637Y-19952122D01*
X22635103Y-19982139D01*
X22589267Y-20006638D01*
X22469736Y-20104736D01*
X22445155Y-20134688D01*
X22364843Y-20215000D01*
X13988072Y-20215000D01*
X13988072Y-20150000D01*
X13975812Y-20025518D01*
X13939502Y-19905820D01*
X13880537Y-19795506D01*
X13801185Y-19698815D01*
X13704494Y-19619463D01*
X13594180Y-19560498D01*
X13552310Y-19547797D01*
X13653475Y-19446632D01*
X13815990Y-19203411D01*
X13927932Y-18933158D01*
X13985000Y-18646260D01*
X13985000Y-18353740D01*
X13927932Y-18066842D01*
X13815990Y-17796589D01*
X13653475Y-17553368D01*
X13446632Y-17346525D01*
X13203411Y-17184010D01*
X12933158Y-17072068D01*
X12646260Y-17015000D01*
X12353740Y-17015000D01*
X12066842Y-17072068D01*
X11796589Y-17184010D01*
X11553368Y-17346525D01*
X11500000Y-17399893D01*
X11446632Y-17346525D01*
X11203411Y-17184010D01*
X10933158Y-17072068D01*
X10646260Y-17015000D01*
X10353740Y-17015000D01*
X10066842Y-17072068D01*
X9796589Y-17184010D01*
X9553368Y-17346525D01*
X9346525Y-17553368D01*
X9184010Y-17796589D01*
X9072068Y-18066842D01*
X9015000Y-18353740D01*
X9015000Y-18646260D01*
X9072068Y-18933158D01*
X9184010Y-19203411D01*
X9346525Y-19446632D01*
X9553368Y-19653475D01*
X9716410Y-19762416D01*
X9651208Y-19971603D01*
X10500000Y-20820395D01*
X10514143Y-20806253D01*
X10693748Y-20985858D01*
X10679605Y-21000000D01*
X10693748Y-21014143D01*
X10514143Y-21193748D01*
X10500000Y-21179605D01*
X9651208Y-22028397D01*
X9728843Y-22277472D01*
X9992883Y-22403371D01*
X10276411Y-22475339D01*
X10568531Y-22490611D01*
X10858019Y-22448599D01*
X11133747Y-22350919D01*
X11209850Y-22310241D01*
X11295506Y-22380537D01*
X11405820Y-22439502D01*
X11525518Y-22475812D01*
X11650000Y-22488072D01*
X13350000Y-22488072D01*
X13474482Y-22475812D01*
X13594180Y-22439502D01*
X13704494Y-22380537D01*
X13801185Y-22301185D01*
X13880537Y-22204494D01*
X13939502Y-22094180D01*
X13975812Y-21974482D01*
X13988072Y-21850000D01*
X13988072Y-21785000D01*
X22651447Y-21785000D01*
X22690000Y-21788797D01*
X22728553Y-21785000D01*
X22728561Y-21785000D01*
X22843887Y-21773641D01*
X22991860Y-21728754D01*
X23128233Y-21655862D01*
X23247764Y-21557764D01*
X23272347Y-21527810D01*
X23352657Y-21447500D01*
X23452672Y-21447500D01*
X23520208Y-21529792D01*
X23526564Y-21535008D01*
X23448815Y-21598815D01*
X23369463Y-21695506D01*
X23310498Y-21805820D01*
X23274188Y-21925518D01*
X23261928Y-22050000D01*
X23265000Y-22251750D01*
X23423750Y-22410500D01*
X24473000Y-22410500D01*
X24473000Y-22390500D01*
X24727000Y-22390500D01*
X24727000Y-22410500D01*
X26773000Y-22410500D01*
X26773000Y-22390500D01*
X27027000Y-22390500D01*
X27027000Y-22410500D01*
X28076250Y-22410500D01*
X28235000Y-22251750D01*
X28238072Y-22050000D01*
X28225812Y-21925518D01*
X28189502Y-21805820D01*
X28130537Y-21695506D01*
X28051185Y-21598815D01*
X27973436Y-21535008D01*
X27979792Y-21529792D01*
X28047328Y-21447500D01*
X28318947Y-21447500D01*
X28357500Y-21451297D01*
X28396053Y-21447500D01*
X28396061Y-21447500D01*
X28511387Y-21436141D01*
X28659360Y-21391254D01*
X28795733Y-21318362D01*
X28915264Y-21220264D01*
X28939847Y-21190311D01*
X29345158Y-20785000D01*
X29436928Y-20785000D01*
X29436928Y-20925000D01*
X29451590Y-21073868D01*
X29495013Y-21217015D01*
X29565529Y-21348940D01*
X29660427Y-21464573D01*
X29776060Y-21559471D01*
X29907985Y-21629987D01*
X30051132Y-21673410D01*
X30200000Y-21688072D01*
X31311928Y-21688072D01*
X31311928Y-22800000D01*
X31326590Y-22948868D01*
X31344068Y-23006485D01*
X21130404Y-33220150D01*
X15311255Y-33220150D01*
X15275150Y-33216594D01*
X15239045Y-33220150D01*
X15131065Y-33230785D01*
X14992517Y-33272813D01*
X14864830Y-33341063D01*
X14752912Y-33432912D01*
X14729896Y-33460957D01*
X11105480Y-37085373D01*
X10946632Y-36926525D01*
X10772240Y-36810000D01*
X10946632Y-36693475D01*
X11153475Y-36486632D01*
X11315990Y-36243411D01*
X11427932Y-35973158D01*
X11485000Y-35686260D01*
X11485000Y-35393740D01*
X11427932Y-35106842D01*
X11315990Y-34836589D01*
X11153475Y-34593368D01*
X11021620Y-34461513D01*
X11094180Y-34439502D01*
X11204494Y-34380537D01*
X11301185Y-34301185D01*
X11380537Y-34204494D01*
X11439502Y-34094180D01*
X11475812Y-33974482D01*
X11488072Y-33850000D01*
X11485000Y-33285750D01*
X11326250Y-33127000D01*
X10127000Y-33127000D01*
X10127000Y-33147000D01*
X9873000Y-33147000D01*
X9873000Y-33127000D01*
X8673750Y-33127000D01*
X8515000Y-33285750D01*
X8511928Y-33850000D01*
X8524188Y-33974482D01*
X8560498Y-34094180D01*
X8619463Y-34204494D01*
X8698815Y-34301185D01*
X8795506Y-34380537D01*
X8905820Y-34439502D01*
X8978380Y-34461513D01*
X8846525Y-34593368D01*
X8684010Y-34836589D01*
X8655326Y-34905838D01*
X8636309Y-34921445D01*
X8592187Y-34957655D01*
X8592184Y-34957658D01*
X8562236Y-34982236D01*
X8537657Y-35012185D01*
X7702190Y-35847653D01*
X7672236Y-35872236D01*
X7574138Y-35991768D01*
X7501246Y-36128141D01*
X7456359Y-36276114D01*
X7445000Y-36391440D01*
X7445000Y-36391447D01*
X7441203Y-36430000D01*
X710000Y-36430000D01*
X710000Y-32150000D01*
X8511928Y-32150000D01*
X8515000Y-32714250D01*
X8673750Y-32873000D01*
X9873000Y-32873000D01*
X9873000Y-31673750D01*
X10127000Y-31673750D01*
X10127000Y-32873000D01*
X11326250Y-32873000D01*
X11485000Y-32714250D01*
X11488072Y-32150000D01*
X11475812Y-32025518D01*
X11439502Y-31905820D01*
X11380537Y-31795506D01*
X11301185Y-31698815D01*
X11204494Y-31619463D01*
X11094180Y-31560498D01*
X10974482Y-31524188D01*
X10850000Y-31511928D01*
X10285750Y-31515000D01*
X10127000Y-31673750D01*
X9873000Y-31673750D01*
X9714250Y-31515000D01*
X9150000Y-31511928D01*
X9025518Y-31524188D01*
X8905820Y-31560498D01*
X8795506Y-31619463D01*
X8698815Y-31698815D01*
X8619463Y-31795506D01*
X8560498Y-31905820D01*
X8524188Y-32025518D01*
X8511928Y-32150000D01*
X710000Y-32150000D01*
X710000Y-27439609D01*
X6299997Y-27439609D01*
X6486073Y-27780766D01*
X6903409Y-27996513D01*
X7354815Y-28126696D01*
X7822946Y-28166313D01*
X8289811Y-28113842D01*
X8737468Y-27971297D01*
X9093927Y-27780766D01*
X9280003Y-27439609D01*
X7790000Y-25949605D01*
X6299997Y-27439609D01*
X710000Y-27439609D01*
X710000Y-25802946D01*
X5393687Y-25802946D01*
X5446158Y-26269811D01*
X5588703Y-26717468D01*
X5779234Y-27073927D01*
X6120391Y-27260003D01*
X7610395Y-25770000D01*
X7969605Y-25770000D01*
X9459609Y-27260003D01*
X9800766Y-27073927D01*
X10016513Y-26656591D01*
X10146696Y-26205185D01*
X10186313Y-25737054D01*
X10133842Y-25270189D01*
X9991297Y-24822532D01*
X9800766Y-24466073D01*
X9459609Y-24279997D01*
X7969605Y-25770000D01*
X7610395Y-25770000D01*
X6120391Y-24279997D01*
X5779234Y-24466073D01*
X5563487Y-24883409D01*
X5433304Y-25334815D01*
X5393687Y-25802946D01*
X710000Y-25802946D01*
X710000Y-24100391D01*
X6299997Y-24100391D01*
X7790000Y-25590395D01*
X9280003Y-24100391D01*
X9093927Y-23759234D01*
X8676591Y-23543487D01*
X8225185Y-23413304D01*
X7757054Y-23373687D01*
X7290189Y-23426158D01*
X6842532Y-23568703D01*
X6486073Y-23759234D01*
X6299997Y-24100391D01*
X710000Y-24100391D01*
X710000Y-23025000D01*
X23261928Y-23025000D01*
X23274188Y-23149482D01*
X23310498Y-23269180D01*
X23369463Y-23379494D01*
X23448815Y-23476185D01*
X23545506Y-23555537D01*
X23655820Y-23614502D01*
X23775518Y-23650812D01*
X23900000Y-23663072D01*
X24314250Y-23660000D01*
X24473000Y-23501250D01*
X24473000Y-22664500D01*
X24727000Y-22664500D01*
X24727000Y-23501250D01*
X24885750Y-23660000D01*
X25300000Y-23663072D01*
X25424482Y-23650812D01*
X25544180Y-23614502D01*
X25654494Y-23555537D01*
X25750000Y-23477158D01*
X25845506Y-23555537D01*
X25955820Y-23614502D01*
X26075518Y-23650812D01*
X26200000Y-23663072D01*
X26614250Y-23660000D01*
X26773000Y-23501250D01*
X26773000Y-22664500D01*
X27027000Y-22664500D01*
X27027000Y-23501250D01*
X27185750Y-23660000D01*
X27600000Y-23663072D01*
X27724482Y-23650812D01*
X27844180Y-23614502D01*
X27954494Y-23555537D01*
X28051185Y-23476185D01*
X28130537Y-23379494D01*
X28189502Y-23269180D01*
X28225812Y-23149482D01*
X28238072Y-23025000D01*
X28235000Y-22823250D01*
X28076250Y-22664500D01*
X27027000Y-22664500D01*
X26773000Y-22664500D01*
X24727000Y-22664500D01*
X24473000Y-22664500D01*
X23423750Y-22664500D01*
X23265000Y-22823250D01*
X23261928Y-23025000D01*
X710000Y-23025000D01*
X710000Y-21068531D01*
X9009389Y-21068531D01*
X9051401Y-21358019D01*
X9149081Y-21633747D01*
X9222528Y-21771157D01*
X9471603Y-21848792D01*
X10320395Y-21000000D01*
X9471603Y-20151208D01*
X9222528Y-20228843D01*
X9096629Y-20492883D01*
X9024661Y-20776411D01*
X9009389Y-21068531D01*
X710000Y-21068531D01*
X710000Y-16450000D01*
X23236928Y-16450000D01*
X23240000Y-16664250D01*
X23398750Y-16823000D01*
X24473000Y-16823000D01*
X24473000Y-15973750D01*
X24727000Y-15973750D01*
X24727000Y-16823000D01*
X25711250Y-16823000D01*
X25723750Y-16835500D01*
X26773000Y-16835500D01*
X26773000Y-15998750D01*
X27027000Y-15998750D01*
X27027000Y-16835500D01*
X28076250Y-16835500D01*
X28235000Y-16676750D01*
X28238072Y-16475000D01*
X28225812Y-16350518D01*
X28189502Y-16230820D01*
X28130537Y-16120506D01*
X28051185Y-16023815D01*
X27954494Y-15944463D01*
X27844180Y-15885498D01*
X27724482Y-15849188D01*
X27600000Y-15836928D01*
X27185750Y-15840000D01*
X27027000Y-15998750D01*
X26773000Y-15998750D01*
X26614250Y-15840000D01*
X26200000Y-15836928D01*
X26075518Y-15849188D01*
X25955820Y-15885498D01*
X25845506Y-15944463D01*
X25777430Y-16000332D01*
X25776185Y-15998815D01*
X25679494Y-15919463D01*
X25569180Y-15860498D01*
X25449482Y-15824188D01*
X25325000Y-15811928D01*
X24885750Y-15815000D01*
X24727000Y-15973750D01*
X24473000Y-15973750D01*
X24314250Y-15815000D01*
X23875000Y-15811928D01*
X23750518Y-15824188D01*
X23630820Y-15860498D01*
X23520506Y-15919463D01*
X23423815Y-15998815D01*
X23344463Y-16095506D01*
X23285498Y-16205820D01*
X23249188Y-16325518D01*
X23236928Y-16450000D01*
X710000Y-16450000D01*
X710000Y-15399609D01*
X6299997Y-15399609D01*
X6486073Y-15740766D01*
X6903409Y-15956513D01*
X7354815Y-16086696D01*
X7822946Y-16126313D01*
X8289811Y-16073842D01*
X8737468Y-15931297D01*
X9093927Y-15740766D01*
X9280003Y-15399609D01*
X7790000Y-13909605D01*
X6299997Y-15399609D01*
X710000Y-15399609D01*
X710000Y-13762946D01*
X5393687Y-13762946D01*
X5446158Y-14229811D01*
X5588703Y-14677468D01*
X5779234Y-15033927D01*
X6120391Y-15220003D01*
X7610395Y-13730000D01*
X7969605Y-13730000D01*
X9459609Y-15220003D01*
X9800766Y-15033927D01*
X10016513Y-14616591D01*
X10146696Y-14165185D01*
X10186313Y-13697054D01*
X10133842Y-13230189D01*
X9991297Y-12782532D01*
X9800766Y-12426073D01*
X9459609Y-12239997D01*
X7969605Y-13730000D01*
X7610395Y-13730000D01*
X6120391Y-12239997D01*
X5779234Y-12426073D01*
X5563487Y-12843409D01*
X5433304Y-13294815D01*
X5393687Y-13762946D01*
X710000Y-13762946D01*
X710000Y-12060391D01*
X6299997Y-12060391D01*
X7790000Y-13550395D01*
X9280003Y-12060391D01*
X9093927Y-11719234D01*
X8676591Y-11503487D01*
X8225185Y-11373304D01*
X7757054Y-11333687D01*
X7290189Y-11386158D01*
X6842532Y-11528703D01*
X6486073Y-11719234D01*
X6299997Y-12060391D01*
X710000Y-12060391D01*
X710000Y-4789721D01*
X2865000Y-4789721D01*
X2865000Y-5210279D01*
X2947047Y-5622756D01*
X3107988Y-6011302D01*
X3341637Y-6360983D01*
X3639017Y-6658363D01*
X3988698Y-6892012D01*
X4377244Y-7052953D01*
X4789721Y-7135000D01*
X5210279Y-7135000D01*
X5622756Y-7052953D01*
X6011302Y-6892012D01*
X6360983Y-6658363D01*
X6658363Y-6360983D01*
X6892012Y-6011302D01*
X7052953Y-5622756D01*
X7107207Y-5350000D01*
X24011928Y-5350000D01*
X24024188Y-5474482D01*
X24060498Y-5594180D01*
X24119463Y-5704494D01*
X24198815Y-5801185D01*
X24295506Y-5880537D01*
X24405820Y-5939502D01*
X24525518Y-5975812D01*
X24650000Y-5988072D01*
X25214250Y-5985000D01*
X25373000Y-5826250D01*
X25373000Y-4627000D01*
X24173750Y-4627000D01*
X24015000Y-4785750D01*
X24011928Y-5350000D01*
X7107207Y-5350000D01*
X7135000Y-5210279D01*
X7135000Y-4789721D01*
X7052953Y-4377244D01*
X6892012Y-3988698D01*
X6665702Y-3650000D01*
X24011928Y-3650000D01*
X24015000Y-4214250D01*
X24173750Y-4373000D01*
X25373000Y-4373000D01*
X25373000Y-3173750D01*
X25214250Y-3015000D01*
X24650000Y-3011928D01*
X24525518Y-3024188D01*
X24405820Y-3060498D01*
X24295506Y-3119463D01*
X24198815Y-3198815D01*
X24119463Y-3295506D01*
X24060498Y-3405820D01*
X24024188Y-3525518D01*
X24011928Y-3650000D01*
X6665702Y-3650000D01*
X6658363Y-3639017D01*
X6360983Y-3341637D01*
X6011302Y-3107988D01*
X5622756Y-2947047D01*
X5210279Y-2865000D01*
X4789721Y-2865000D01*
X4377244Y-2947047D01*
X3988698Y-3107988D01*
X3639017Y-3341637D01*
X3341637Y-3639017D01*
X3107988Y-3988698D01*
X2947047Y-4377244D01*
X2865000Y-4789721D01*
X710000Y-4789721D01*
X710000Y-710000D01*
X100790000Y-710000D01*
X100790001Y-54790000D01*
G04 #@! TA.AperFunction,Conductor*
D19*
G36*
X100790001Y-54790000D02*
G01*
X710000Y-54790000D01*
X710000Y-50289721D01*
X2865000Y-50289721D01*
X2865000Y-50710279D01*
X2947047Y-51122756D01*
X3107988Y-51511302D01*
X3341637Y-51860983D01*
X3639017Y-52158363D01*
X3988698Y-52392012D01*
X4377244Y-52552953D01*
X4789721Y-52635000D01*
X5210279Y-52635000D01*
X5622756Y-52552953D01*
X6011302Y-52392012D01*
X6360983Y-52158363D01*
X6658363Y-51860983D01*
X6892012Y-51511302D01*
X7052953Y-51122756D01*
X7135000Y-50710279D01*
X7135000Y-50289721D01*
X7052953Y-49877244D01*
X6892012Y-49488698D01*
X6658363Y-49139017D01*
X6360983Y-48841637D01*
X6011302Y-48607988D01*
X5622756Y-48447047D01*
X5210279Y-48365000D01*
X4789721Y-48365000D01*
X4377244Y-48447047D01*
X3988698Y-48607988D01*
X3639017Y-48841637D01*
X3341637Y-49139017D01*
X3107988Y-49488698D01*
X2947047Y-49877244D01*
X2865000Y-50289721D01*
X710000Y-50289721D01*
X710000Y-36430000D01*
X7441203Y-36430000D01*
X7445000Y-36468553D01*
X7445001Y-41331437D01*
X7441203Y-41370000D01*
X7456359Y-41523886D01*
X7501246Y-41671859D01*
X7518500Y-41704138D01*
X7574139Y-41808233D01*
X7612766Y-41855300D01*
X7647655Y-41897812D01*
X7647659Y-41897816D01*
X7672237Y-41927764D01*
X7702185Y-41952342D01*
X8637657Y-42887815D01*
X8662236Y-42917764D01*
X8692184Y-42942342D01*
X8692187Y-42942345D01*
X8712587Y-42959087D01*
X8781767Y-43015862D01*
X8918140Y-43088754D01*
X9031672Y-43123194D01*
X9066112Y-43133641D01*
X9080490Y-43135057D01*
X9181439Y-43145000D01*
X9181446Y-43145000D01*
X9219999Y-43148797D01*
X9258552Y-43145000D01*
X15011447Y-43145000D01*
X15050000Y-43148797D01*
X15088553Y-43145000D01*
X15088561Y-43145000D01*
X15203887Y-43133641D01*
X15351860Y-43088754D01*
X15488233Y-43015862D01*
X15607764Y-42917764D01*
X15632347Y-42887810D01*
X17918025Y-40602132D01*
X17920208Y-40604792D01*
X18053836Y-40714458D01*
X18206291Y-40795947D01*
X18371715Y-40846128D01*
X18543750Y-40863072D01*
X19456250Y-40863072D01*
X19628285Y-40846128D01*
X19793709Y-40795947D01*
X19932893Y-40721552D01*
X19993140Y-40753754D01*
X20104897Y-40787655D01*
X20116928Y-40791305D01*
X20116928Y-40850000D01*
X20132071Y-41003745D01*
X20176916Y-41151582D01*
X20249742Y-41287829D01*
X20347749Y-41407251D01*
X20467171Y-41505258D01*
X20603418Y-41578084D01*
X20751255Y-41622929D01*
X20905000Y-41638072D01*
X21205000Y-41638072D01*
X21358745Y-41622929D01*
X21506582Y-41578084D01*
X21590001Y-41533495D01*
X21590001Y-41570553D01*
X21229808Y-41930746D01*
X21201762Y-41953763D01*
X21109913Y-42065681D01*
X21041663Y-42193368D01*
X21025101Y-42247967D01*
X20999635Y-42331915D01*
X20985444Y-42476000D01*
X20989000Y-42512105D01*
X20989000Y-43361928D01*
X20905000Y-43361928D01*
X20751255Y-43377071D01*
X20603418Y-43421916D01*
X20467171Y-43494742D01*
X20347749Y-43592749D01*
X20249742Y-43712171D01*
X20176916Y-43848418D01*
X20132071Y-43996255D01*
X20116928Y-44150000D01*
X20116928Y-45800000D01*
X20132071Y-45953745D01*
X20176916Y-46101582D01*
X20249742Y-46237829D01*
X20319600Y-46322952D01*
X20316444Y-46355000D01*
X20330635Y-46499085D01*
X20339432Y-46528084D01*
X20372663Y-46637632D01*
X20440913Y-46765319D01*
X20532762Y-46877237D01*
X20560808Y-46900254D01*
X24903146Y-51242593D01*
X24926162Y-51270638D01*
X25038080Y-51362487D01*
X25165767Y-51430737D01*
X25304315Y-51472765D01*
X25448400Y-51486956D01*
X25484505Y-51483400D01*
X73791695Y-51483400D01*
X73827800Y-51486956D01*
X73863905Y-51483400D01*
X73971885Y-51472765D01*
X74110433Y-51430737D01*
X74238120Y-51362487D01*
X74350038Y-51270638D01*
X74373059Y-51242587D01*
X75325925Y-50289721D01*
X94365000Y-50289721D01*
X94365000Y-50710279D01*
X94447047Y-51122756D01*
X94607988Y-51511302D01*
X94841637Y-51860983D01*
X95139017Y-52158363D01*
X95488698Y-52392012D01*
X95877244Y-52552953D01*
X96289721Y-52635000D01*
X96710279Y-52635000D01*
X97122756Y-52552953D01*
X97511302Y-52392012D01*
X97860983Y-52158363D01*
X98158363Y-51860983D01*
X98392012Y-51511302D01*
X98552953Y-51122756D01*
X98635000Y-50710279D01*
X98635000Y-50289721D01*
X98552953Y-49877244D01*
X98392012Y-49488698D01*
X98158363Y-49139017D01*
X97860983Y-48841637D01*
X97511302Y-48607988D01*
X97122756Y-48447047D01*
X96710279Y-48365000D01*
X96289721Y-48365000D01*
X95877244Y-48447047D01*
X95488698Y-48607988D01*
X95139017Y-48841637D01*
X94841637Y-49139017D01*
X94607988Y-49488698D01*
X94447047Y-49877244D01*
X94365000Y-50289721D01*
X75325925Y-50289721D01*
X79520093Y-46095554D01*
X79548138Y-46072538D01*
X79639987Y-45960620D01*
X79644398Y-45952367D01*
X79708237Y-45832934D01*
X79719607Y-45795453D01*
X79788022Y-45693063D01*
X79852851Y-45536553D01*
X79862178Y-45489665D01*
X80062595Y-45501718D01*
X80381675Y-45457961D01*
X80686088Y-45352795D01*
X80860044Y-45259814D01*
X80955808Y-44995413D01*
X80000000Y-44039605D01*
X79985858Y-44053748D01*
X79806253Y-43874143D01*
X79820395Y-43860000D01*
X80179605Y-43860000D01*
X81135413Y-44815808D01*
X81399814Y-44720044D01*
X81540704Y-44430429D01*
X81622384Y-44118892D01*
X81641718Y-43797405D01*
X81597961Y-43478325D01*
X81492795Y-43173912D01*
X81399814Y-42999956D01*
X81135413Y-42904192D01*
X80179605Y-43860000D01*
X79820395Y-43860000D01*
X79806253Y-43845858D01*
X79985858Y-43666253D01*
X80000000Y-43680395D01*
X80955808Y-42724587D01*
X80936316Y-42670771D01*
X81042252Y-42599987D01*
X81269987Y-42372252D01*
X81448918Y-42104463D01*
X81572168Y-41806912D01*
X81635000Y-41491033D01*
X81635000Y-41168967D01*
X81572168Y-40853088D01*
X81448918Y-40555537D01*
X81269987Y-40287748D01*
X81042252Y-40060013D01*
X81042233Y-40060000D01*
X81042252Y-40059987D01*
X81269987Y-39832252D01*
X81448918Y-39564463D01*
X81572168Y-39266912D01*
X81635000Y-38951033D01*
X81635000Y-38628967D01*
X81572168Y-38313088D01*
X81448918Y-38015537D01*
X81269987Y-37747748D01*
X81042252Y-37520013D01*
X81042233Y-37520000D01*
X81042252Y-37519987D01*
X81269987Y-37292252D01*
X81448918Y-37024463D01*
X81572168Y-36726912D01*
X81635000Y-36411033D01*
X81635000Y-36088967D01*
X81572168Y-35773088D01*
X81448918Y-35475537D01*
X81269987Y-35207748D01*
X81042252Y-34980013D01*
X81042233Y-34980000D01*
X81042252Y-34979987D01*
X81269987Y-34752252D01*
X81448918Y-34484463D01*
X81572168Y-34186912D01*
X81635000Y-33871033D01*
X81635000Y-33548967D01*
X81572168Y-33233088D01*
X81448918Y-32935537D01*
X81269987Y-32667748D01*
X81042252Y-32440013D01*
X81042233Y-32440000D01*
X81042252Y-32439987D01*
X81269987Y-32212252D01*
X81448918Y-31944463D01*
X81572168Y-31646912D01*
X81635000Y-31331033D01*
X81635000Y-31008967D01*
X81572168Y-30693088D01*
X81448918Y-30395537D01*
X81269987Y-30127748D01*
X81042252Y-29900013D01*
X81042233Y-29900000D01*
X81042252Y-29899987D01*
X81269987Y-29672252D01*
X81448918Y-29404463D01*
X81536202Y-29193740D01*
X88475000Y-29193740D01*
X88475000Y-29486260D01*
X88532068Y-29773158D01*
X88644010Y-30043411D01*
X88806525Y-30286632D01*
X89013368Y-30493475D01*
X89187760Y-30610000D01*
X89013368Y-30726525D01*
X88806525Y-30933368D01*
X88644010Y-31176589D01*
X88532068Y-31446842D01*
X88475000Y-31733740D01*
X88475000Y-32026260D01*
X88532068Y-32313158D01*
X88644010Y-32583411D01*
X88806525Y-32826632D01*
X89013368Y-33033475D01*
X89187760Y-33150000D01*
X89013368Y-33266525D01*
X88806525Y-33473368D01*
X88644010Y-33716589D01*
X88532068Y-33986842D01*
X88475000Y-34273740D01*
X88475000Y-34566260D01*
X88532068Y-34853158D01*
X88644010Y-35123411D01*
X88806525Y-35366632D01*
X89013368Y-35573475D01*
X89187760Y-35690000D01*
X89013368Y-35806525D01*
X88806525Y-36013368D01*
X88644010Y-36256589D01*
X88532068Y-36526842D01*
X88475000Y-36813740D01*
X88475000Y-37106260D01*
X88532068Y-37393158D01*
X88644010Y-37663411D01*
X88806525Y-37906632D01*
X89013368Y-38113475D01*
X89187760Y-38230000D01*
X89013368Y-38346525D01*
X88806525Y-38553368D01*
X88644010Y-38796589D01*
X88532068Y-39066842D01*
X88475000Y-39353740D01*
X88475000Y-39646260D01*
X88532068Y-39933158D01*
X88644010Y-40203411D01*
X88806525Y-40446632D01*
X89013368Y-40653475D01*
X89256589Y-40815990D01*
X89526842Y-40927932D01*
X89813740Y-40985000D01*
X90106260Y-40985000D01*
X90393158Y-40927932D01*
X90663411Y-40815990D01*
X90906632Y-40653475D01*
X91038487Y-40521620D01*
X91060498Y-40594180D01*
X91119463Y-40704494D01*
X91198815Y-40801185D01*
X91295506Y-40880537D01*
X91405820Y-40939502D01*
X91525518Y-40975812D01*
X91650000Y-40988072D01*
X92214250Y-40985000D01*
X92373000Y-40826250D01*
X92373000Y-39627000D01*
X92627000Y-39627000D01*
X92627000Y-40826250D01*
X92785750Y-40985000D01*
X93350000Y-40988072D01*
X93474482Y-40975812D01*
X93594180Y-40939502D01*
X93704494Y-40880537D01*
X93801185Y-40801185D01*
X93880537Y-40704494D01*
X93939502Y-40594180D01*
X93975812Y-40474482D01*
X93988072Y-40350000D01*
X93985000Y-39785750D01*
X93826250Y-39627000D01*
X92627000Y-39627000D01*
X92373000Y-39627000D01*
X92353000Y-39627000D01*
X92353000Y-39373000D01*
X92373000Y-39373000D01*
X92373000Y-39353000D01*
X92627000Y-39353000D01*
X92627000Y-39373000D01*
X93826250Y-39373000D01*
X93985000Y-39214250D01*
X93988072Y-38650000D01*
X93975812Y-38525518D01*
X93939502Y-38405820D01*
X93880537Y-38295506D01*
X93801185Y-38198815D01*
X93704494Y-38119463D01*
X93594180Y-38060498D01*
X93521620Y-38038487D01*
X93653475Y-37906632D01*
X93815990Y-37663411D01*
X93927932Y-37393158D01*
X93985000Y-37106260D01*
X93985000Y-36813740D01*
X93927932Y-36526842D01*
X93815990Y-36256589D01*
X93653475Y-36013368D01*
X93446632Y-35806525D01*
X93272240Y-35690000D01*
X93446632Y-35573475D01*
X93653475Y-35366632D01*
X93815990Y-35123411D01*
X93927932Y-34853158D01*
X93985000Y-34566260D01*
X93985000Y-34273740D01*
X93927932Y-33986842D01*
X93815990Y-33716589D01*
X93653475Y-33473368D01*
X93446632Y-33266525D01*
X93272240Y-33150000D01*
X93446632Y-33033475D01*
X93653475Y-32826632D01*
X93815990Y-32583411D01*
X93927932Y-32313158D01*
X93985000Y-32026260D01*
X93985000Y-31733740D01*
X93927932Y-31446842D01*
X93815990Y-31176589D01*
X93653475Y-30933368D01*
X93446632Y-30726525D01*
X93272240Y-30610000D01*
X93446632Y-30493475D01*
X93653475Y-30286632D01*
X93815990Y-30043411D01*
X93927932Y-29773158D01*
X93985000Y-29486260D01*
X93985000Y-29193740D01*
X93927932Y-28906842D01*
X93815990Y-28636589D01*
X93653475Y-28393368D01*
X93446632Y-28186525D01*
X93203411Y-28024010D01*
X92933158Y-27912068D01*
X92646260Y-27855000D01*
X92353740Y-27855000D01*
X92066842Y-27912068D01*
X91796589Y-28024010D01*
X91553368Y-28186525D01*
X91346525Y-28393368D01*
X91230000Y-28567760D01*
X91113475Y-28393368D01*
X90906632Y-28186525D01*
X90663411Y-28024010D01*
X90393158Y-27912068D01*
X90106260Y-27855000D01*
X89813740Y-27855000D01*
X89526842Y-27912068D01*
X89256589Y-28024010D01*
X89013368Y-28186525D01*
X88806525Y-28393368D01*
X88644010Y-28636589D01*
X88532068Y-28906842D01*
X88475000Y-29193740D01*
X81536202Y-29193740D01*
X81572168Y-29106912D01*
X81635000Y-28791033D01*
X81635000Y-28468967D01*
X81572168Y-28153088D01*
X81448918Y-27855537D01*
X81269987Y-27587748D01*
X81042252Y-27360013D01*
X81042233Y-27360000D01*
X81042252Y-27359987D01*
X81269987Y-27132252D01*
X81448918Y-26864463D01*
X81572168Y-26566912D01*
X81635000Y-26251033D01*
X81635000Y-25928967D01*
X81572168Y-25613088D01*
X81448918Y-25315537D01*
X81269987Y-25047748D01*
X81042252Y-24820013D01*
X81042233Y-24820000D01*
X81042252Y-24819987D01*
X81269987Y-24592252D01*
X81448918Y-24324463D01*
X81572168Y-24026912D01*
X81635000Y-23711033D01*
X81635000Y-23388967D01*
X81572168Y-23073088D01*
X81448918Y-22775537D01*
X81269987Y-22507748D01*
X81042252Y-22280013D01*
X81042233Y-22280000D01*
X81042252Y-22279987D01*
X81269987Y-22052252D01*
X81448918Y-21784463D01*
X81572168Y-21486912D01*
X81635000Y-21171033D01*
X81635000Y-20848967D01*
X81572168Y-20533088D01*
X81555822Y-20493625D01*
X83130393Y-18919054D01*
X83158438Y-18896038D01*
X83250287Y-18784120D01*
X83318537Y-18656433D01*
X83360565Y-18517885D01*
X83371200Y-18409905D01*
X83374756Y-18373800D01*
X83371200Y-18337695D01*
X83371200Y-7201804D01*
X83374756Y-7165699D01*
X83360565Y-7021614D01*
X83335144Y-6937813D01*
X83318537Y-6883067D01*
X83250287Y-6755380D01*
X83206317Y-6701803D01*
X83181453Y-6671506D01*
X83181450Y-6671503D01*
X83158437Y-6643462D01*
X83130397Y-6620450D01*
X81299668Y-4789721D01*
X94365000Y-4789721D01*
X94365000Y-5210279D01*
X94447047Y-5622756D01*
X94607988Y-6011302D01*
X94841637Y-6360983D01*
X95139017Y-6658363D01*
X95488698Y-6892012D01*
X95877244Y-7052953D01*
X96289721Y-7135000D01*
X96710279Y-7135000D01*
X97122756Y-7052953D01*
X97511302Y-6892012D01*
X97860983Y-6658363D01*
X98158363Y-6360983D01*
X98392012Y-6011302D01*
X98552953Y-5622756D01*
X98635000Y-5210279D01*
X98635000Y-4789721D01*
X98552953Y-4377244D01*
X98392012Y-3988698D01*
X98158363Y-3639017D01*
X97860983Y-3341637D01*
X97511302Y-3107988D01*
X97122756Y-2947047D01*
X96710279Y-2865000D01*
X96289721Y-2865000D01*
X95877244Y-2947047D01*
X95488698Y-3107988D01*
X95139017Y-3341637D01*
X94841637Y-3639017D01*
X94607988Y-3988698D01*
X94447047Y-4377244D01*
X94365000Y-4789721D01*
X81299668Y-4789721D01*
X80986158Y-4476212D01*
X80963138Y-4448162D01*
X80851220Y-4356313D01*
X80723533Y-4288063D01*
X80584985Y-4246035D01*
X80477005Y-4235400D01*
X80440900Y-4231844D01*
X80404795Y-4235400D01*
X45745705Y-4235400D01*
X45709600Y-4231844D01*
X45565515Y-4246035D01*
X45426966Y-4288063D01*
X45304094Y-4353740D01*
X45299280Y-4356313D01*
X45187362Y-4448162D01*
X45164346Y-4476207D01*
X37305808Y-12334746D01*
X37277763Y-12357762D01*
X37206227Y-12444928D01*
X37125000Y-12436928D01*
X36875000Y-12436928D01*
X36726132Y-12451590D01*
X36600000Y-12489852D01*
X36473868Y-12451590D01*
X36325000Y-12436928D01*
X36075000Y-12436928D01*
X35926132Y-12451590D01*
X35800000Y-12489852D01*
X35673868Y-12451590D01*
X35525000Y-12436928D01*
X35335000Y-12436928D01*
X35335000Y-9706405D01*
X35338556Y-9670300D01*
X35324365Y-9526215D01*
X35282337Y-9387666D01*
X35214087Y-9259980D01*
X35145253Y-9176106D01*
X35145250Y-9176103D01*
X35122237Y-9148062D01*
X35094197Y-9125050D01*
X31574627Y-5605480D01*
X31733475Y-5446632D01*
X31895990Y-5203411D01*
X32007932Y-4933158D01*
X32065000Y-4646260D01*
X32065000Y-4353740D01*
X32007932Y-4066842D01*
X31895990Y-3796589D01*
X31733475Y-3553368D01*
X31526632Y-3346525D01*
X31283411Y-3184010D01*
X31013158Y-3072068D01*
X30726260Y-3015000D01*
X30433740Y-3015000D01*
X30146842Y-3072068D01*
X29876589Y-3184010D01*
X29633368Y-3346525D01*
X29426525Y-3553368D01*
X29310000Y-3727760D01*
X29193475Y-3553368D01*
X28986632Y-3346525D01*
X28743411Y-3184010D01*
X28473158Y-3072068D01*
X28186260Y-3015000D01*
X27893740Y-3015000D01*
X27606842Y-3072068D01*
X27336589Y-3184010D01*
X27093368Y-3346525D01*
X26961513Y-3478380D01*
X26939502Y-3405820D01*
X26880537Y-3295506D01*
X26801185Y-3198815D01*
X26704494Y-3119463D01*
X26594180Y-3060498D01*
X26474482Y-3024188D01*
X26350000Y-3011928D01*
X25785750Y-3015000D01*
X25627000Y-3173750D01*
X25627000Y-4373000D01*
X25647000Y-4373000D01*
X25647000Y-4627000D01*
X25627000Y-4627000D01*
X25627000Y-5826250D01*
X25785750Y-5985000D01*
X26350000Y-5988072D01*
X26474482Y-5975812D01*
X26594180Y-5939502D01*
X26704494Y-5880537D01*
X26801185Y-5801185D01*
X26880537Y-5704494D01*
X26939502Y-5594180D01*
X26961513Y-5521620D01*
X27093368Y-5653475D01*
X27318528Y-5803922D01*
X27356147Y-5927932D01*
X27357664Y-5932933D01*
X27425914Y-6060620D01*
X27517763Y-6172538D01*
X27545808Y-6195554D01*
X33065000Y-11714747D01*
X33065000Y-12436928D01*
X32875000Y-12436928D01*
X32726132Y-12451590D01*
X32600000Y-12489852D01*
X32473868Y-12451590D01*
X32325000Y-12436928D01*
X32075000Y-12436928D01*
X31926132Y-12451590D01*
X31782985Y-12495013D01*
X31651060Y-12565529D01*
X31535427Y-12660427D01*
X31440529Y-12776060D01*
X31370013Y-12907985D01*
X31326590Y-13051132D01*
X31311928Y-13200000D01*
X31311928Y-14311928D01*
X30200000Y-14311928D01*
X30051132Y-14326590D01*
X29907985Y-14370013D01*
X29776060Y-14440529D01*
X29660427Y-14535427D01*
X29565529Y-14651060D01*
X29495013Y-14782985D01*
X29451590Y-14926132D01*
X29436928Y-15075000D01*
X29436928Y-15325000D01*
X29451590Y-15473868D01*
X29489852Y-15600000D01*
X29451590Y-15726132D01*
X29436928Y-15875000D01*
X29436928Y-16125000D01*
X29451590Y-16273868D01*
X29473513Y-16346139D01*
X29451109Y-16416227D01*
X29440000Y-16518250D01*
X29598750Y-16677000D01*
X29675569Y-16677000D01*
X29776060Y-16759471D01*
X29851884Y-16800000D01*
X29776060Y-16840529D01*
X29675569Y-16923000D01*
X29598750Y-16923000D01*
X29440000Y-17081750D01*
X29451109Y-17183773D01*
X29473513Y-17253861D01*
X29451590Y-17326132D01*
X29436928Y-17475000D01*
X29436928Y-17725000D01*
X29451590Y-17873868D01*
X29489852Y-18000000D01*
X29451590Y-18126132D01*
X29436928Y-18275000D01*
X29436928Y-18415000D01*
X29265157Y-18415000D01*
X29159847Y-18309690D01*
X29135264Y-18279736D01*
X29015733Y-18181638D01*
X28879360Y-18108746D01*
X28731387Y-18063859D01*
X28616061Y-18052500D01*
X28616053Y-18052500D01*
X28577500Y-18048703D01*
X28538947Y-18052500D01*
X28047328Y-18052500D01*
X27979792Y-17970208D01*
X27973436Y-17964992D01*
X28051185Y-17901185D01*
X28130537Y-17804494D01*
X28189502Y-17694180D01*
X28225812Y-17574482D01*
X28238072Y-17450000D01*
X28235000Y-17248250D01*
X28076250Y-17089500D01*
X27027000Y-17089500D01*
X27027000Y-17109500D01*
X26773000Y-17109500D01*
X26773000Y-17089500D01*
X25813750Y-17089500D01*
X25801250Y-17077000D01*
X24727000Y-17077000D01*
X24727000Y-17097000D01*
X24473000Y-17097000D01*
X24473000Y-17077000D01*
X23398750Y-17077000D01*
X23240000Y-17235750D01*
X23236928Y-17450000D01*
X23249188Y-17574482D01*
X23285498Y-17694180D01*
X23344463Y-17804494D01*
X23423815Y-17901185D01*
X23503594Y-17966658D01*
X23497038Y-17972038D01*
X23420747Y-18065000D01*
X23348556Y-18065000D01*
X23310000Y-18061203D01*
X23271444Y-18065000D01*
X23271439Y-18065000D01*
X23231026Y-18068980D01*
X23156113Y-18076358D01*
X23020927Y-18117367D01*
X23008140Y-18121246D01*
X22871767Y-18194138D01*
X22752236Y-18292236D01*
X22727649Y-18322195D01*
X22663918Y-18385926D01*
X22562637Y-18427878D01*
X22421782Y-18521995D01*
X22301995Y-18641782D01*
X22207878Y-18782637D01*
X22143049Y-18939147D01*
X22110000Y-19105297D01*
X22110000Y-19274703D01*
X22143049Y-19440853D01*
X22207878Y-19597363D01*
X22301995Y-19738218D01*
X22421782Y-19858005D01*
X22562637Y-19952122D01*
X22635103Y-19982139D01*
X22589267Y-20006638D01*
X22469736Y-20104736D01*
X22445155Y-20134688D01*
X22364843Y-20215000D01*
X13988072Y-20215000D01*
X13988072Y-20150000D01*
X13975812Y-20025518D01*
X13939502Y-19905820D01*
X13880537Y-19795506D01*
X13801185Y-19698815D01*
X13704494Y-19619463D01*
X13594180Y-19560498D01*
X13552310Y-19547797D01*
X13653475Y-19446632D01*
X13815990Y-19203411D01*
X13927932Y-18933158D01*
X13985000Y-18646260D01*
X13985000Y-18353740D01*
X13927932Y-18066842D01*
X13815990Y-17796589D01*
X13653475Y-17553368D01*
X13446632Y-17346525D01*
X13203411Y-17184010D01*
X12933158Y-17072068D01*
X12646260Y-17015000D01*
X12353740Y-17015000D01*
X12066842Y-17072068D01*
X11796589Y-17184010D01*
X11553368Y-17346525D01*
X11500000Y-17399893D01*
X11446632Y-17346525D01*
X11203411Y-17184010D01*
X10933158Y-17072068D01*
X10646260Y-17015000D01*
X10353740Y-17015000D01*
X10066842Y-17072068D01*
X9796589Y-17184010D01*
X9553368Y-17346525D01*
X9346525Y-17553368D01*
X9184010Y-17796589D01*
X9072068Y-18066842D01*
X9015000Y-18353740D01*
X9015000Y-18646260D01*
X9072068Y-18933158D01*
X9184010Y-19203411D01*
X9346525Y-19446632D01*
X9553368Y-19653475D01*
X9716410Y-19762416D01*
X9651208Y-19971603D01*
X10500000Y-20820395D01*
X10514143Y-20806253D01*
X10693748Y-20985858D01*
X10679605Y-21000000D01*
X10693748Y-21014143D01*
X10514143Y-21193748D01*
X10500000Y-21179605D01*
X9651208Y-22028397D01*
X9728843Y-22277472D01*
X9992883Y-22403371D01*
X10276411Y-22475339D01*
X10568531Y-22490611D01*
X10858019Y-22448599D01*
X11133747Y-22350919D01*
X11209850Y-22310241D01*
X11295506Y-22380537D01*
X11405820Y-22439502D01*
X11525518Y-22475812D01*
X11650000Y-22488072D01*
X13350000Y-22488072D01*
X13474482Y-22475812D01*
X13594180Y-22439502D01*
X13704494Y-22380537D01*
X13801185Y-22301185D01*
X13880537Y-22204494D01*
X13939502Y-22094180D01*
X13975812Y-21974482D01*
X13988072Y-21850000D01*
X13988072Y-21785000D01*
X22651447Y-21785000D01*
X22690000Y-21788797D01*
X22728553Y-21785000D01*
X22728561Y-21785000D01*
X22843887Y-21773641D01*
X22991860Y-21728754D01*
X23128233Y-21655862D01*
X23247764Y-21557764D01*
X23272347Y-21527810D01*
X23352657Y-21447500D01*
X23452672Y-21447500D01*
X23520208Y-21529792D01*
X23526564Y-21535008D01*
X23448815Y-21598815D01*
X23369463Y-21695506D01*
X23310498Y-21805820D01*
X23274188Y-21925518D01*
X23261928Y-22050000D01*
X23265000Y-22251750D01*
X23423750Y-22410500D01*
X24473000Y-22410500D01*
X24473000Y-22390500D01*
X24727000Y-22390500D01*
X24727000Y-22410500D01*
X26773000Y-22410500D01*
X26773000Y-22390500D01*
X27027000Y-22390500D01*
X27027000Y-22410500D01*
X28076250Y-22410500D01*
X28235000Y-22251750D01*
X28238072Y-22050000D01*
X28225812Y-21925518D01*
X28189502Y-21805820D01*
X28130537Y-21695506D01*
X28051185Y-21598815D01*
X27973436Y-21535008D01*
X27979792Y-21529792D01*
X28047328Y-21447500D01*
X28318947Y-21447500D01*
X28357500Y-21451297D01*
X28396053Y-21447500D01*
X28396061Y-21447500D01*
X28511387Y-21436141D01*
X28659360Y-21391254D01*
X28795733Y-21318362D01*
X28915264Y-21220264D01*
X28939847Y-21190311D01*
X29345158Y-20785000D01*
X29436928Y-20785000D01*
X29436928Y-20925000D01*
X29451590Y-21073868D01*
X29495013Y-21217015D01*
X29565529Y-21348940D01*
X29660427Y-21464573D01*
X29776060Y-21559471D01*
X29907985Y-21629987D01*
X30051132Y-21673410D01*
X30200000Y-21688072D01*
X31311928Y-21688072D01*
X31311928Y-22800000D01*
X31326590Y-22948868D01*
X31344068Y-23006485D01*
X21130404Y-33220150D01*
X15311255Y-33220150D01*
X15275150Y-33216594D01*
X15239045Y-33220150D01*
X15131065Y-33230785D01*
X14992517Y-33272813D01*
X14864830Y-33341063D01*
X14752912Y-33432912D01*
X14729896Y-33460957D01*
X11105480Y-37085373D01*
X10946632Y-36926525D01*
X10772240Y-36810000D01*
X10946632Y-36693475D01*
X11153475Y-36486632D01*
X11315990Y-36243411D01*
X11427932Y-35973158D01*
X11485000Y-35686260D01*
X11485000Y-35393740D01*
X11427932Y-35106842D01*
X11315990Y-34836589D01*
X11153475Y-34593368D01*
X11021620Y-34461513D01*
X11094180Y-34439502D01*
X11204494Y-34380537D01*
X11301185Y-34301185D01*
X11380537Y-34204494D01*
X11439502Y-34094180D01*
X11475812Y-33974482D01*
X11488072Y-33850000D01*
X11485000Y-33285750D01*
X11326250Y-33127000D01*
X10127000Y-33127000D01*
X10127000Y-33147000D01*
X9873000Y-33147000D01*
X9873000Y-33127000D01*
X8673750Y-33127000D01*
X8515000Y-33285750D01*
X8511928Y-33850000D01*
X8524188Y-33974482D01*
X8560498Y-34094180D01*
X8619463Y-34204494D01*
X8698815Y-34301185D01*
X8795506Y-34380537D01*
X8905820Y-34439502D01*
X8978380Y-34461513D01*
X8846525Y-34593368D01*
X8684010Y-34836589D01*
X8655326Y-34905838D01*
X8636309Y-34921445D01*
X8592187Y-34957655D01*
X8592184Y-34957658D01*
X8562236Y-34982236D01*
X8537657Y-35012185D01*
X7702190Y-35847653D01*
X7672236Y-35872236D01*
X7574138Y-35991768D01*
X7501246Y-36128141D01*
X7456359Y-36276114D01*
X7445000Y-36391440D01*
X7445000Y-36391447D01*
X7441203Y-36430000D01*
X710000Y-36430000D01*
X710000Y-32150000D01*
X8511928Y-32150000D01*
X8515000Y-32714250D01*
X8673750Y-32873000D01*
X9873000Y-32873000D01*
X9873000Y-31673750D01*
X10127000Y-31673750D01*
X10127000Y-32873000D01*
X11326250Y-32873000D01*
X11485000Y-32714250D01*
X11488072Y-32150000D01*
X11475812Y-32025518D01*
X11439502Y-31905820D01*
X11380537Y-31795506D01*
X11301185Y-31698815D01*
X11204494Y-31619463D01*
X11094180Y-31560498D01*
X10974482Y-31524188D01*
X10850000Y-31511928D01*
X10285750Y-31515000D01*
X10127000Y-31673750D01*
X9873000Y-31673750D01*
X9714250Y-31515000D01*
X9150000Y-31511928D01*
X9025518Y-31524188D01*
X8905820Y-31560498D01*
X8795506Y-31619463D01*
X8698815Y-31698815D01*
X8619463Y-31795506D01*
X8560498Y-31905820D01*
X8524188Y-32025518D01*
X8511928Y-32150000D01*
X710000Y-32150000D01*
X710000Y-27439609D01*
X6299997Y-27439609D01*
X6486073Y-27780766D01*
X6903409Y-27996513D01*
X7354815Y-28126696D01*
X7822946Y-28166313D01*
X8289811Y-28113842D01*
X8737468Y-27971297D01*
X9093927Y-27780766D01*
X9280003Y-27439609D01*
X7790000Y-25949605D01*
X6299997Y-27439609D01*
X710000Y-27439609D01*
X710000Y-25802946D01*
X5393687Y-25802946D01*
X5446158Y-26269811D01*
X5588703Y-26717468D01*
X5779234Y-27073927D01*
X6120391Y-27260003D01*
X7610395Y-25770000D01*
X7969605Y-25770000D01*
X9459609Y-27260003D01*
X9800766Y-27073927D01*
X10016513Y-26656591D01*
X10146696Y-26205185D01*
X10186313Y-25737054D01*
X10133842Y-25270189D01*
X9991297Y-24822532D01*
X9800766Y-24466073D01*
X9459609Y-24279997D01*
X7969605Y-25770000D01*
X7610395Y-25770000D01*
X6120391Y-24279997D01*
X5779234Y-24466073D01*
X5563487Y-24883409D01*
X5433304Y-25334815D01*
X5393687Y-25802946D01*
X710000Y-25802946D01*
X710000Y-24100391D01*
X6299997Y-24100391D01*
X7790000Y-25590395D01*
X9280003Y-24100391D01*
X9093927Y-23759234D01*
X8676591Y-23543487D01*
X8225185Y-23413304D01*
X7757054Y-23373687D01*
X7290189Y-23426158D01*
X6842532Y-23568703D01*
X6486073Y-23759234D01*
X6299997Y-24100391D01*
X710000Y-24100391D01*
X710000Y-23025000D01*
X23261928Y-23025000D01*
X23274188Y-23149482D01*
X23310498Y-23269180D01*
X23369463Y-23379494D01*
X23448815Y-23476185D01*
X23545506Y-23555537D01*
X23655820Y-23614502D01*
X23775518Y-23650812D01*
X23900000Y-23663072D01*
X24314250Y-23660000D01*
X24473000Y-23501250D01*
X24473000Y-22664500D01*
X24727000Y-22664500D01*
X24727000Y-23501250D01*
X24885750Y-23660000D01*
X25300000Y-23663072D01*
X25424482Y-23650812D01*
X25544180Y-23614502D01*
X25654494Y-23555537D01*
X25750000Y-23477158D01*
X25845506Y-23555537D01*
X25955820Y-23614502D01*
X26075518Y-23650812D01*
X26200000Y-23663072D01*
X26614250Y-23660000D01*
X26773000Y-23501250D01*
X26773000Y-22664500D01*
X27027000Y-22664500D01*
X27027000Y-23501250D01*
X27185750Y-23660000D01*
X27600000Y-23663072D01*
X27724482Y-23650812D01*
X27844180Y-23614502D01*
X27954494Y-23555537D01*
X28051185Y-23476185D01*
X28130537Y-23379494D01*
X28189502Y-23269180D01*
X28225812Y-23149482D01*
X28238072Y-23025000D01*
X28235000Y-22823250D01*
X28076250Y-22664500D01*
X27027000Y-22664500D01*
X26773000Y-22664500D01*
X24727000Y-22664500D01*
X24473000Y-22664500D01*
X23423750Y-22664500D01*
X23265000Y-22823250D01*
X23261928Y-23025000D01*
X710000Y-23025000D01*
X710000Y-21068531D01*
X9009389Y-21068531D01*
X9051401Y-21358019D01*
X9149081Y-21633747D01*
X9222528Y-21771157D01*
X9471603Y-21848792D01*
X10320395Y-21000000D01*
X9471603Y-20151208D01*
X9222528Y-20228843D01*
X9096629Y-20492883D01*
X9024661Y-20776411D01*
X9009389Y-21068531D01*
X710000Y-21068531D01*
X710000Y-16450000D01*
X23236928Y-16450000D01*
X23240000Y-16664250D01*
X23398750Y-16823000D01*
X24473000Y-16823000D01*
X24473000Y-15973750D01*
X24727000Y-15973750D01*
X24727000Y-16823000D01*
X25711250Y-16823000D01*
X25723750Y-16835500D01*
X26773000Y-16835500D01*
X26773000Y-15998750D01*
X27027000Y-15998750D01*
X27027000Y-16835500D01*
X28076250Y-16835500D01*
X28235000Y-16676750D01*
X28238072Y-16475000D01*
X28225812Y-16350518D01*
X28189502Y-16230820D01*
X28130537Y-16120506D01*
X28051185Y-16023815D01*
X27954494Y-15944463D01*
X27844180Y-15885498D01*
X27724482Y-15849188D01*
X27600000Y-15836928D01*
X27185750Y-15840000D01*
X27027000Y-15998750D01*
X26773000Y-15998750D01*
X26614250Y-15840000D01*
X26200000Y-15836928D01*
X26075518Y-15849188D01*
X25955820Y-15885498D01*
X25845506Y-15944463D01*
X25777430Y-16000332D01*
X25776185Y-15998815D01*
X25679494Y-15919463D01*
X25569180Y-15860498D01*
X25449482Y-15824188D01*
X25325000Y-15811928D01*
X24885750Y-15815000D01*
X24727000Y-15973750D01*
X24473000Y-15973750D01*
X24314250Y-15815000D01*
X23875000Y-15811928D01*
X23750518Y-15824188D01*
X23630820Y-15860498D01*
X23520506Y-15919463D01*
X23423815Y-15998815D01*
X23344463Y-16095506D01*
X23285498Y-16205820D01*
X23249188Y-16325518D01*
X23236928Y-16450000D01*
X710000Y-16450000D01*
X710000Y-15399609D01*
X6299997Y-15399609D01*
X6486073Y-15740766D01*
X6903409Y-15956513D01*
X7354815Y-16086696D01*
X7822946Y-16126313D01*
X8289811Y-16073842D01*
X8737468Y-15931297D01*
X9093927Y-15740766D01*
X9280003Y-15399609D01*
X7790000Y-13909605D01*
X6299997Y-15399609D01*
X710000Y-15399609D01*
X710000Y-13762946D01*
X5393687Y-13762946D01*
X5446158Y-14229811D01*
X5588703Y-14677468D01*
X5779234Y-15033927D01*
X6120391Y-15220003D01*
X7610395Y-13730000D01*
X7969605Y-13730000D01*
X9459609Y-15220003D01*
X9800766Y-15033927D01*
X10016513Y-14616591D01*
X10146696Y-14165185D01*
X10186313Y-13697054D01*
X10133842Y-13230189D01*
X9991297Y-12782532D01*
X9800766Y-12426073D01*
X9459609Y-12239997D01*
X7969605Y-13730000D01*
X7610395Y-13730000D01*
X6120391Y-12239997D01*
X5779234Y-12426073D01*
X5563487Y-12843409D01*
X5433304Y-13294815D01*
X5393687Y-13762946D01*
X710000Y-13762946D01*
X710000Y-12060391D01*
X6299997Y-12060391D01*
X7790000Y-13550395D01*
X9280003Y-12060391D01*
X9093927Y-11719234D01*
X8676591Y-11503487D01*
X8225185Y-11373304D01*
X7757054Y-11333687D01*
X7290189Y-11386158D01*
X6842532Y-11528703D01*
X6486073Y-11719234D01*
X6299997Y-12060391D01*
X710000Y-12060391D01*
X710000Y-4789721D01*
X2865000Y-4789721D01*
X2865000Y-5210279D01*
X2947047Y-5622756D01*
X3107988Y-6011302D01*
X3341637Y-6360983D01*
X3639017Y-6658363D01*
X3988698Y-6892012D01*
X4377244Y-7052953D01*
X4789721Y-7135000D01*
X5210279Y-7135000D01*
X5622756Y-7052953D01*
X6011302Y-6892012D01*
X6360983Y-6658363D01*
X6658363Y-6360983D01*
X6892012Y-6011302D01*
X7052953Y-5622756D01*
X7107207Y-5350000D01*
X24011928Y-5350000D01*
X24024188Y-5474482D01*
X24060498Y-5594180D01*
X24119463Y-5704494D01*
X24198815Y-5801185D01*
X24295506Y-5880537D01*
X24405820Y-5939502D01*
X24525518Y-5975812D01*
X24650000Y-5988072D01*
X25214250Y-5985000D01*
X25373000Y-5826250D01*
X25373000Y-4627000D01*
X24173750Y-4627000D01*
X24015000Y-4785750D01*
X24011928Y-5350000D01*
X7107207Y-5350000D01*
X7135000Y-5210279D01*
X7135000Y-4789721D01*
X7052953Y-4377244D01*
X6892012Y-3988698D01*
X6665702Y-3650000D01*
X24011928Y-3650000D01*
X24015000Y-4214250D01*
X24173750Y-4373000D01*
X25373000Y-4373000D01*
X25373000Y-3173750D01*
X25214250Y-3015000D01*
X24650000Y-3011928D01*
X24525518Y-3024188D01*
X24405820Y-3060498D01*
X24295506Y-3119463D01*
X24198815Y-3198815D01*
X24119463Y-3295506D01*
X24060498Y-3405820D01*
X24024188Y-3525518D01*
X24011928Y-3650000D01*
X6665702Y-3650000D01*
X6658363Y-3639017D01*
X6360983Y-3341637D01*
X6011302Y-3107988D01*
X5622756Y-2947047D01*
X5210279Y-2865000D01*
X4789721Y-2865000D01*
X4377244Y-2947047D01*
X3988698Y-3107988D01*
X3639017Y-3341637D01*
X3341637Y-3639017D01*
X3107988Y-3988698D01*
X2947047Y-4377244D01*
X2865000Y-4789721D01*
X710000Y-4789721D01*
X710000Y-710000D01*
X100790000Y-710000D01*
X100790001Y-54790000D01*
G37*
G04 #@! TD.AperFunction*
D18*
X35915025Y-45664972D02*
X35924549Y-45712853D01*
X35989378Y-45869363D01*
X36083495Y-46010218D01*
X36203282Y-46130005D01*
X36344137Y-46224122D01*
X36500647Y-46288951D01*
X36666797Y-46322000D01*
X36763819Y-46322000D01*
X36792749Y-46357251D01*
X36860574Y-46412914D01*
X36885913Y-46460319D01*
X36977762Y-46572237D01*
X37005808Y-46595254D01*
X39223053Y-48812500D01*
X32411947Y-48812500D01*
X30072002Y-46472556D01*
X30072002Y-46426252D01*
X30230750Y-46585000D01*
X30245000Y-46588072D01*
X30369482Y-46575812D01*
X30489180Y-46539502D01*
X30599494Y-46480537D01*
X30696185Y-46401185D01*
X30775537Y-46304494D01*
X30834502Y-46194180D01*
X30870812Y-46074482D01*
X30883072Y-45950000D01*
X30880000Y-45260750D01*
X30721250Y-45102000D01*
X30072000Y-45102000D01*
X30072000Y-45122000D01*
X29818000Y-45122000D01*
X29818000Y-45102000D01*
X29798000Y-45102000D01*
X29798000Y-44848000D01*
X29818000Y-44848000D01*
X29818000Y-44828000D01*
X30072000Y-44828000D01*
X30072000Y-44848000D01*
X30721250Y-44848000D01*
X30880000Y-44689250D01*
X30883072Y-44000000D01*
X30870812Y-43875518D01*
X30834502Y-43755820D01*
X30794189Y-43680400D01*
X33930454Y-43680400D01*
X35915025Y-45664972D01*
G04 #@! TA.AperFunction,Conductor*
D19*
G36*
X35915025Y-45664972D02*
G01*
X35924549Y-45712853D01*
X35989378Y-45869363D01*
X36083495Y-46010218D01*
X36203282Y-46130005D01*
X36344137Y-46224122D01*
X36500647Y-46288951D01*
X36666797Y-46322000D01*
X36763819Y-46322000D01*
X36792749Y-46357251D01*
X36860574Y-46412914D01*
X36885913Y-46460319D01*
X36977762Y-46572237D01*
X37005808Y-46595254D01*
X39223053Y-48812500D01*
X32411947Y-48812500D01*
X30072002Y-46472556D01*
X30072002Y-46426252D01*
X30230750Y-46585000D01*
X30245000Y-46588072D01*
X30369482Y-46575812D01*
X30489180Y-46539502D01*
X30599494Y-46480537D01*
X30696185Y-46401185D01*
X30775537Y-46304494D01*
X30834502Y-46194180D01*
X30870812Y-46074482D01*
X30883072Y-45950000D01*
X30880000Y-45260750D01*
X30721250Y-45102000D01*
X30072000Y-45102000D01*
X30072000Y-45122000D01*
X29818000Y-45122000D01*
X29818000Y-45102000D01*
X29798000Y-45102000D01*
X29798000Y-44848000D01*
X29818000Y-44848000D01*
X29818000Y-44828000D01*
X30072000Y-44828000D01*
X30072000Y-44848000D01*
X30721250Y-44848000D01*
X30880000Y-44689250D01*
X30883072Y-44000000D01*
X30870812Y-43875518D01*
X30834502Y-43755820D01*
X30794189Y-43680400D01*
X33930454Y-43680400D01*
X35915025Y-45664972D01*
G37*
G04 #@! TD.AperFunction*
D18*
X53830808Y-43429746D02*
X53802763Y-43452762D01*
X53792646Y-43465090D01*
X53737171Y-43494742D01*
X53690000Y-43533454D01*
X53642829Y-43494742D01*
X53506582Y-43421916D01*
X53358745Y-43377071D01*
X53205000Y-43361928D01*
X52905000Y-43361928D01*
X52751255Y-43377071D01*
X52603418Y-43421916D01*
X52467171Y-43494742D01*
X52347749Y-43592749D01*
X52249742Y-43712171D01*
X52176916Y-43848418D01*
X52132071Y-43996255D01*
X52116928Y-44150000D01*
X52116928Y-45800000D01*
X52132071Y-45953745D01*
X52176916Y-46101582D01*
X52249742Y-46237829D01*
X52347749Y-46357251D01*
X52467171Y-46455258D01*
X52603418Y-46528084D01*
X52751255Y-46572929D01*
X52905000Y-46588072D01*
X52917706Y-46588072D01*
X52961278Y-46693263D01*
X53055395Y-46834118D01*
X53175182Y-46953905D01*
X53316037Y-47048022D01*
X53472547Y-47112851D01*
X53638697Y-47145900D01*
X53808103Y-47145900D01*
X53974253Y-47112851D01*
X54130763Y-47048022D01*
X54271618Y-46953905D01*
X54391405Y-46834118D01*
X54485522Y-46693263D01*
X54531395Y-46582517D01*
X54628745Y-46572929D01*
X54776582Y-46528084D01*
X54909456Y-46457061D01*
X54912663Y-46467632D01*
X54980913Y-46595319D01*
X55072762Y-46707237D01*
X55100808Y-46730254D01*
X55982153Y-47611600D01*
X47941047Y-47611600D01*
X46884131Y-46554684D01*
X46934180Y-46539502D01*
X47044494Y-46480537D01*
X47141185Y-46401185D01*
X47220537Y-46304494D01*
X47279502Y-46194180D01*
X47315812Y-46074482D01*
X47328072Y-45950000D01*
X47325000Y-45260750D01*
X47166250Y-45102000D01*
X46517000Y-45102000D01*
X46517000Y-45122000D01*
X46263000Y-45122000D01*
X46263000Y-45102000D01*
X46243000Y-45102000D01*
X46243000Y-44848000D01*
X46263000Y-44848000D01*
X46263000Y-44828000D01*
X46517000Y-44828000D01*
X46517000Y-44848000D01*
X47166250Y-44848000D01*
X47325000Y-44689250D01*
X47328072Y-44000000D01*
X47315812Y-43875518D01*
X47279502Y-43755820D01*
X47220537Y-43645506D01*
X47141185Y-43548815D01*
X47044494Y-43469463D01*
X46934180Y-43410498D01*
X46814482Y-43374188D01*
X46785982Y-43371381D01*
X46842122Y-43287363D01*
X46906951Y-43130853D01*
X46917066Y-43080000D01*
X54180554Y-43080000D01*
X53830808Y-43429746D01*
G04 #@! TA.AperFunction,Conductor*
D19*
G36*
X53830808Y-43429746D02*
G01*
X53802763Y-43452762D01*
X53792646Y-43465090D01*
X53737171Y-43494742D01*
X53690000Y-43533454D01*
X53642829Y-43494742D01*
X53506582Y-43421916D01*
X53358745Y-43377071D01*
X53205000Y-43361928D01*
X52905000Y-43361928D01*
X52751255Y-43377071D01*
X52603418Y-43421916D01*
X52467171Y-43494742D01*
X52347749Y-43592749D01*
X52249742Y-43712171D01*
X52176916Y-43848418D01*
X52132071Y-43996255D01*
X52116928Y-44150000D01*
X52116928Y-45800000D01*
X52132071Y-45953745D01*
X52176916Y-46101582D01*
X52249742Y-46237829D01*
X52347749Y-46357251D01*
X52467171Y-46455258D01*
X52603418Y-46528084D01*
X52751255Y-46572929D01*
X52905000Y-46588072D01*
X52917706Y-46588072D01*
X52961278Y-46693263D01*
X53055395Y-46834118D01*
X53175182Y-46953905D01*
X53316037Y-47048022D01*
X53472547Y-47112851D01*
X53638697Y-47145900D01*
X53808103Y-47145900D01*
X53974253Y-47112851D01*
X54130763Y-47048022D01*
X54271618Y-46953905D01*
X54391405Y-46834118D01*
X54485522Y-46693263D01*
X54531395Y-46582517D01*
X54628745Y-46572929D01*
X54776582Y-46528084D01*
X54909456Y-46457061D01*
X54912663Y-46467632D01*
X54980913Y-46595319D01*
X55072762Y-46707237D01*
X55100808Y-46730254D01*
X55982153Y-47611600D01*
X47941047Y-47611600D01*
X46884131Y-46554684D01*
X46934180Y-46539502D01*
X47044494Y-46480537D01*
X47141185Y-46401185D01*
X47220537Y-46304494D01*
X47279502Y-46194180D01*
X47315812Y-46074482D01*
X47328072Y-45950000D01*
X47325000Y-45260750D01*
X47166250Y-45102000D01*
X46517000Y-45102000D01*
X46517000Y-45122000D01*
X46263000Y-45122000D01*
X46263000Y-45102000D01*
X46243000Y-45102000D01*
X46243000Y-44848000D01*
X46263000Y-44848000D01*
X46263000Y-44828000D01*
X46517000Y-44828000D01*
X46517000Y-44848000D01*
X47166250Y-44848000D01*
X47325000Y-44689250D01*
X47328072Y-44000000D01*
X47315812Y-43875518D01*
X47279502Y-43755820D01*
X47220537Y-43645506D01*
X47141185Y-43548815D01*
X47044494Y-43469463D01*
X46934180Y-43410498D01*
X46814482Y-43374188D01*
X46785982Y-43371381D01*
X46842122Y-43287363D01*
X46906951Y-43130853D01*
X46917066Y-43080000D01*
X54180554Y-43080000D01*
X53830808Y-43429746D01*
G37*
G04 #@! TD.AperFunction*
D18*
X73584178Y-43353625D02*
X73567832Y-43393088D01*
X73505000Y-43708967D01*
X73505000Y-44031033D01*
X73567832Y-44346912D01*
X73691082Y-44644463D01*
X73802024Y-44810500D01*
X63322504Y-44810500D01*
X63286399Y-44806944D01*
X63142314Y-44821135D01*
X63110071Y-44830916D01*
X63003767Y-44863163D01*
X62880000Y-44929318D01*
X62880000Y-44847998D01*
X62721252Y-44847998D01*
X62880000Y-44689250D01*
X62883072Y-44000000D01*
X62870812Y-43875518D01*
X62834502Y-43755820D01*
X62775537Y-43645506D01*
X62696185Y-43548815D01*
X62599494Y-43469463D01*
X62489180Y-43410498D01*
X62369482Y-43374188D01*
X62245000Y-43361928D01*
X62230750Y-43365000D01*
X62072000Y-43523750D01*
X62072000Y-44848000D01*
X62092000Y-44848000D01*
X62092000Y-45102000D01*
X62072000Y-45102000D01*
X62072000Y-45122000D01*
X61818000Y-45122000D01*
X61818000Y-45102000D01*
X61798000Y-45102000D01*
X61798000Y-44848000D01*
X61818000Y-44848000D01*
X61818000Y-43523750D01*
X61659250Y-43365000D01*
X61645000Y-43361928D01*
X61520518Y-43374188D01*
X61400820Y-43410498D01*
X61353146Y-43435981D01*
X61329151Y-43315347D01*
X61264322Y-43158837D01*
X61211644Y-43080000D01*
X73310554Y-43080000D01*
X73584178Y-43353625D01*
G04 #@! TA.AperFunction,Conductor*
D19*
G36*
X73584178Y-43353625D02*
G01*
X73567832Y-43393088D01*
X73505000Y-43708967D01*
X73505000Y-44031033D01*
X73567832Y-44346912D01*
X73691082Y-44644463D01*
X73802024Y-44810500D01*
X63322504Y-44810500D01*
X63286399Y-44806944D01*
X63142314Y-44821135D01*
X63110071Y-44830916D01*
X63003767Y-44863163D01*
X62880000Y-44929318D01*
X62880000Y-44847998D01*
X62721252Y-44847998D01*
X62880000Y-44689250D01*
X62883072Y-44000000D01*
X62870812Y-43875518D01*
X62834502Y-43755820D01*
X62775537Y-43645506D01*
X62696185Y-43548815D01*
X62599494Y-43469463D01*
X62489180Y-43410498D01*
X62369482Y-43374188D01*
X62245000Y-43361928D01*
X62230750Y-43365000D01*
X62072000Y-43523750D01*
X62072000Y-44848000D01*
X62092000Y-44848000D01*
X62092000Y-45102000D01*
X62072000Y-45102000D01*
X62072000Y-45122000D01*
X61818000Y-45122000D01*
X61818000Y-45102000D01*
X61798000Y-45102000D01*
X61798000Y-44848000D01*
X61818000Y-44848000D01*
X61818000Y-43523750D01*
X61659250Y-43365000D01*
X61645000Y-43361928D01*
X61520518Y-43374188D01*
X61400820Y-43410498D01*
X61353146Y-43435981D01*
X61329151Y-43315347D01*
X61264322Y-43158837D01*
X61211644Y-43080000D01*
X73310554Y-43080000D01*
X73584178Y-43353625D01*
G37*
G04 #@! TD.AperFunction*
D18*
X56992000Y-39898000D02*
X57012000Y-39898000D01*
X57012000Y-40152000D01*
X56992000Y-40152000D01*
X56992000Y-40172000D01*
X56738000Y-40172000D01*
X56738000Y-40152000D01*
X56718000Y-40152000D01*
X56718000Y-39898000D01*
X56738000Y-39898000D01*
X56738000Y-39878000D01*
X56992000Y-39878000D01*
X56992000Y-39898000D01*
G04 #@! TA.AperFunction,Conductor*
D19*
G36*
X56992000Y-39898000D02*
G01*
X57012000Y-39898000D01*
X57012000Y-40152000D01*
X56992000Y-40152000D01*
X56992000Y-40172000D01*
X56738000Y-40172000D01*
X56738000Y-40152000D01*
X56718000Y-40152000D01*
X56718000Y-39898000D01*
X56738000Y-39898000D01*
X56738000Y-39878000D01*
X56992000Y-39878000D01*
X56992000Y-39898000D01*
G37*
G04 #@! TD.AperFunction*
D18*
X41437000Y-39898000D02*
X41457000Y-39898000D01*
X41457000Y-40152000D01*
X41437000Y-40152000D01*
X41437000Y-40172000D01*
X41183000Y-40172000D01*
X41183000Y-40152000D01*
X41163000Y-40152000D01*
X41163000Y-39898000D01*
X41183000Y-39898000D01*
X41183000Y-39878000D01*
X41437000Y-39878000D01*
X41437000Y-39898000D01*
G04 #@! TA.AperFunction,Conductor*
D19*
G36*
X41437000Y-39898000D02*
G01*
X41457000Y-39898000D01*
X41457000Y-40152000D01*
X41437000Y-40152000D01*
X41437000Y-40172000D01*
X41183000Y-40172000D01*
X41183000Y-40152000D01*
X41163000Y-40152000D01*
X41163000Y-39898000D01*
X41183000Y-39898000D01*
X41183000Y-39878000D01*
X41437000Y-39878000D01*
X41437000Y-39898000D01*
G37*
G04 #@! TD.AperFunction*
D18*
X40912121Y-38421568D02*
X40885518Y-38424188D01*
X40765820Y-38460498D01*
X40655506Y-38519463D01*
X40625936Y-38543730D01*
X40491582Y-38471916D01*
X40343745Y-38427071D01*
X40190000Y-38411928D01*
X40077637Y-38411928D01*
X40021722Y-38276937D01*
X39927605Y-38136082D01*
X39807818Y-38016295D01*
X39666963Y-37922178D01*
X39510453Y-37857349D01*
X39344303Y-37824300D01*
X39174897Y-37824300D01*
X39008747Y-37857349D01*
X38852237Y-37922178D01*
X38711382Y-38016295D01*
X38591595Y-38136082D01*
X38497478Y-38276937D01*
X38432649Y-38433447D01*
X38431841Y-38437510D01*
X38318418Y-38471916D01*
X38182171Y-38544742D01*
X38135000Y-38583454D01*
X38087829Y-38544742D01*
X37951582Y-38471916D01*
X37803745Y-38427071D01*
X37650000Y-38411928D01*
X37350000Y-38411928D01*
X37196255Y-38427071D01*
X37048418Y-38471916D01*
X36912171Y-38544742D01*
X36792749Y-38642749D01*
X36694742Y-38762171D01*
X36621916Y-38898418D01*
X36577071Y-39046255D01*
X36576740Y-39049613D01*
X36567500Y-39048703D01*
X36528947Y-39052500D01*
X36447328Y-39052500D01*
X36379792Y-38970208D01*
X36373436Y-38964992D01*
X36451185Y-38901185D01*
X36530537Y-38804494D01*
X36589502Y-38694180D01*
X36625812Y-38574482D01*
X36638072Y-38450000D01*
X36635000Y-38248250D01*
X36476250Y-38089500D01*
X35427000Y-38089500D01*
X35427000Y-38109500D01*
X35173000Y-38109500D01*
X35173000Y-38089500D01*
X34123750Y-38089500D01*
X33969904Y-38243346D01*
X33770547Y-38043990D01*
X33745964Y-38014036D01*
X33626433Y-37915938D01*
X33490060Y-37843046D01*
X33342087Y-37798159D01*
X33226761Y-37786800D01*
X33226753Y-37786800D01*
X33188200Y-37783003D01*
X33149647Y-37786800D01*
X29948631Y-37786800D01*
X29847353Y-37744849D01*
X29681203Y-37711800D01*
X29511797Y-37711800D01*
X29345647Y-37744849D01*
X29244369Y-37786800D01*
X28986752Y-37786800D01*
X28948199Y-37783003D01*
X28909646Y-37786800D01*
X28909639Y-37786800D01*
X28808690Y-37796743D01*
X28794312Y-37798159D01*
X28720326Y-37820603D01*
X28646340Y-37843046D01*
X28509967Y-37915938D01*
X28390436Y-38014036D01*
X28365853Y-38043990D01*
X28147185Y-38262658D01*
X28117237Y-38287236D01*
X28092659Y-38317184D01*
X28092655Y-38317188D01*
X28068579Y-38346525D01*
X28019139Y-38406767D01*
X27996031Y-38450000D01*
X27955932Y-38525020D01*
X27856582Y-38471916D01*
X27708745Y-38427071D01*
X27555000Y-38411928D01*
X27255000Y-38411928D01*
X27101255Y-38427071D01*
X26953418Y-38471916D01*
X26817171Y-38544742D01*
X26770000Y-38583454D01*
X26722829Y-38544742D01*
X26586582Y-38471916D01*
X26438745Y-38427071D01*
X26285000Y-38411928D01*
X25985000Y-38411928D01*
X25831255Y-38427071D01*
X25683418Y-38471916D01*
X25549064Y-38543730D01*
X25519494Y-38519463D01*
X25409180Y-38460498D01*
X25289482Y-38424188D01*
X25165000Y-38411928D01*
X25150750Y-38415000D01*
X24992000Y-38573750D01*
X24992000Y-39898000D01*
X25012000Y-39898000D01*
X25012000Y-40152000D01*
X24992000Y-40152000D01*
X24992000Y-40172000D01*
X24738000Y-40172000D01*
X24738000Y-40152000D01*
X24718000Y-40152000D01*
X24718000Y-39898000D01*
X24738000Y-39898000D01*
X24738000Y-39057744D01*
X24782622Y-38990963D01*
X24847451Y-38834453D01*
X24880500Y-38668303D01*
X24880500Y-38498897D01*
X24847451Y-38332747D01*
X24782622Y-38176237D01*
X24688505Y-38035382D01*
X24568718Y-37915595D01*
X24427863Y-37821478D01*
X24271353Y-37756649D01*
X24105203Y-37723600D01*
X23935797Y-37723600D01*
X23769647Y-37756649D01*
X23613137Y-37821478D01*
X23472282Y-37915595D01*
X23352495Y-38035382D01*
X23258378Y-38176237D01*
X23223935Y-38259389D01*
X23103359Y-38138813D01*
X23080338Y-38110762D01*
X22968420Y-38018913D01*
X22840733Y-37950663D01*
X22702185Y-37908635D01*
X22594205Y-37898000D01*
X22558100Y-37894444D01*
X22521995Y-37898000D01*
X20508405Y-37898000D01*
X20472300Y-37894444D01*
X20436195Y-37898000D01*
X20328215Y-37908635D01*
X20189667Y-37950663D01*
X20131975Y-37981500D01*
X17760947Y-37981500D01*
X17471300Y-37691854D01*
X17471300Y-37260446D01*
X17559347Y-37172400D01*
X17697885Y-37172400D01*
X17674188Y-37250518D01*
X17661928Y-37375000D01*
X17665000Y-37576750D01*
X17823750Y-37735500D01*
X18873000Y-37735500D01*
X18873000Y-37715500D01*
X19127000Y-37715500D01*
X19127000Y-37735500D01*
X20176250Y-37735500D01*
X20335000Y-37576750D01*
X20336549Y-37475000D01*
X33961928Y-37475000D01*
X33965000Y-37676750D01*
X34123750Y-37835500D01*
X35173000Y-37835500D01*
X35173000Y-36998750D01*
X35427000Y-36998750D01*
X35427000Y-37835500D01*
X36476250Y-37835500D01*
X36635000Y-37676750D01*
X36638072Y-37475000D01*
X36625812Y-37350518D01*
X36589502Y-37230820D01*
X36530537Y-37120506D01*
X36451185Y-37023815D01*
X36354494Y-36944463D01*
X36244180Y-36885498D01*
X36124482Y-36849188D01*
X36000000Y-36836928D01*
X35585750Y-36840000D01*
X35427000Y-36998750D01*
X35173000Y-36998750D01*
X35014250Y-36840000D01*
X34600000Y-36836928D01*
X34475518Y-36849188D01*
X34355820Y-36885498D01*
X34245506Y-36944463D01*
X34148815Y-37023815D01*
X34069463Y-37120506D01*
X34010498Y-37230820D01*
X33974188Y-37350518D01*
X33961928Y-37475000D01*
X20336549Y-37475000D01*
X20338072Y-37375000D01*
X20325812Y-37250518D01*
X20302115Y-37172400D01*
X29931995Y-37172400D01*
X29968100Y-37175956D01*
X30004205Y-37172400D01*
X30112185Y-37161765D01*
X30250733Y-37119737D01*
X30378420Y-37051487D01*
X30490338Y-36959638D01*
X30513359Y-36931587D01*
X34967750Y-32477196D01*
X40912121Y-38421568D01*
G04 #@! TA.AperFunction,Conductor*
D19*
G36*
X40912121Y-38421568D02*
G01*
X40885518Y-38424188D01*
X40765820Y-38460498D01*
X40655506Y-38519463D01*
X40625936Y-38543730D01*
X40491582Y-38471916D01*
X40343745Y-38427071D01*
X40190000Y-38411928D01*
X40077637Y-38411928D01*
X40021722Y-38276937D01*
X39927605Y-38136082D01*
X39807818Y-38016295D01*
X39666963Y-37922178D01*
X39510453Y-37857349D01*
X39344303Y-37824300D01*
X39174897Y-37824300D01*
X39008747Y-37857349D01*
X38852237Y-37922178D01*
X38711382Y-38016295D01*
X38591595Y-38136082D01*
X38497478Y-38276937D01*
X38432649Y-38433447D01*
X38431841Y-38437510D01*
X38318418Y-38471916D01*
X38182171Y-38544742D01*
X38135000Y-38583454D01*
X38087829Y-38544742D01*
X37951582Y-38471916D01*
X37803745Y-38427071D01*
X37650000Y-38411928D01*
X37350000Y-38411928D01*
X37196255Y-38427071D01*
X37048418Y-38471916D01*
X36912171Y-38544742D01*
X36792749Y-38642749D01*
X36694742Y-38762171D01*
X36621916Y-38898418D01*
X36577071Y-39046255D01*
X36576740Y-39049613D01*
X36567500Y-39048703D01*
X36528947Y-39052500D01*
X36447328Y-39052500D01*
X36379792Y-38970208D01*
X36373436Y-38964992D01*
X36451185Y-38901185D01*
X36530537Y-38804494D01*
X36589502Y-38694180D01*
X36625812Y-38574482D01*
X36638072Y-38450000D01*
X36635000Y-38248250D01*
X36476250Y-38089500D01*
X35427000Y-38089500D01*
X35427000Y-38109500D01*
X35173000Y-38109500D01*
X35173000Y-38089500D01*
X34123750Y-38089500D01*
X33969904Y-38243346D01*
X33770547Y-38043990D01*
X33745964Y-38014036D01*
X33626433Y-37915938D01*
X33490060Y-37843046D01*
X33342087Y-37798159D01*
X33226761Y-37786800D01*
X33226753Y-37786800D01*
X33188200Y-37783003D01*
X33149647Y-37786800D01*
X29948631Y-37786800D01*
X29847353Y-37744849D01*
X29681203Y-37711800D01*
X29511797Y-37711800D01*
X29345647Y-37744849D01*
X29244369Y-37786800D01*
X28986752Y-37786800D01*
X28948199Y-37783003D01*
X28909646Y-37786800D01*
X28909639Y-37786800D01*
X28808690Y-37796743D01*
X28794312Y-37798159D01*
X28720326Y-37820603D01*
X28646340Y-37843046D01*
X28509967Y-37915938D01*
X28390436Y-38014036D01*
X28365853Y-38043990D01*
X28147185Y-38262658D01*
X28117237Y-38287236D01*
X28092659Y-38317184D01*
X28092655Y-38317188D01*
X28068579Y-38346525D01*
X28019139Y-38406767D01*
X27996031Y-38450000D01*
X27955932Y-38525020D01*
X27856582Y-38471916D01*
X27708745Y-38427071D01*
X27555000Y-38411928D01*
X27255000Y-38411928D01*
X27101255Y-38427071D01*
X26953418Y-38471916D01*
X26817171Y-38544742D01*
X26770000Y-38583454D01*
X26722829Y-38544742D01*
X26586582Y-38471916D01*
X26438745Y-38427071D01*
X26285000Y-38411928D01*
X25985000Y-38411928D01*
X25831255Y-38427071D01*
X25683418Y-38471916D01*
X25549064Y-38543730D01*
X25519494Y-38519463D01*
X25409180Y-38460498D01*
X25289482Y-38424188D01*
X25165000Y-38411928D01*
X25150750Y-38415000D01*
X24992000Y-38573750D01*
X24992000Y-39898000D01*
X25012000Y-39898000D01*
X25012000Y-40152000D01*
X24992000Y-40152000D01*
X24992000Y-40172000D01*
X24738000Y-40172000D01*
X24738000Y-40152000D01*
X24718000Y-40152000D01*
X24718000Y-39898000D01*
X24738000Y-39898000D01*
X24738000Y-39057744D01*
X24782622Y-38990963D01*
X24847451Y-38834453D01*
X24880500Y-38668303D01*
X24880500Y-38498897D01*
X24847451Y-38332747D01*
X24782622Y-38176237D01*
X24688505Y-38035382D01*
X24568718Y-37915595D01*
X24427863Y-37821478D01*
X24271353Y-37756649D01*
X24105203Y-37723600D01*
X23935797Y-37723600D01*
X23769647Y-37756649D01*
X23613137Y-37821478D01*
X23472282Y-37915595D01*
X23352495Y-38035382D01*
X23258378Y-38176237D01*
X23223935Y-38259389D01*
X23103359Y-38138813D01*
X23080338Y-38110762D01*
X22968420Y-38018913D01*
X22840733Y-37950663D01*
X22702185Y-37908635D01*
X22594205Y-37898000D01*
X22558100Y-37894444D01*
X22521995Y-37898000D01*
X20508405Y-37898000D01*
X20472300Y-37894444D01*
X20436195Y-37898000D01*
X20328215Y-37908635D01*
X20189667Y-37950663D01*
X20131975Y-37981500D01*
X17760947Y-37981500D01*
X17471300Y-37691854D01*
X17471300Y-37260446D01*
X17559347Y-37172400D01*
X17697885Y-37172400D01*
X17674188Y-37250518D01*
X17661928Y-37375000D01*
X17665000Y-37576750D01*
X17823750Y-37735500D01*
X18873000Y-37735500D01*
X18873000Y-37715500D01*
X19127000Y-37715500D01*
X19127000Y-37735500D01*
X20176250Y-37735500D01*
X20335000Y-37576750D01*
X20336549Y-37475000D01*
X33961928Y-37475000D01*
X33965000Y-37676750D01*
X34123750Y-37835500D01*
X35173000Y-37835500D01*
X35173000Y-36998750D01*
X35427000Y-36998750D01*
X35427000Y-37835500D01*
X36476250Y-37835500D01*
X36635000Y-37676750D01*
X36638072Y-37475000D01*
X36625812Y-37350518D01*
X36589502Y-37230820D01*
X36530537Y-37120506D01*
X36451185Y-37023815D01*
X36354494Y-36944463D01*
X36244180Y-36885498D01*
X36124482Y-36849188D01*
X36000000Y-36836928D01*
X35585750Y-36840000D01*
X35427000Y-36998750D01*
X35173000Y-36998750D01*
X35014250Y-36840000D01*
X34600000Y-36836928D01*
X34475518Y-36849188D01*
X34355820Y-36885498D01*
X34245506Y-36944463D01*
X34148815Y-37023815D01*
X34069463Y-37120506D01*
X34010498Y-37230820D01*
X33974188Y-37350518D01*
X33961928Y-37475000D01*
X20336549Y-37475000D01*
X20338072Y-37375000D01*
X20325812Y-37250518D01*
X20302115Y-37172400D01*
X29931995Y-37172400D01*
X29968100Y-37175956D01*
X30004205Y-37172400D01*
X30112185Y-37161765D01*
X30250733Y-37119737D01*
X30378420Y-37051487D01*
X30490338Y-36959638D01*
X30513359Y-36931587D01*
X34967750Y-32477196D01*
X40912121Y-38421568D01*
G37*
G04 #@! TD.AperFunction*
D18*
X49540000Y-37977002D02*
X49698748Y-37977002D01*
X49610750Y-38065000D01*
X47651105Y-38065000D01*
X47615000Y-38061444D01*
X47470915Y-38075635D01*
X47332366Y-38117663D01*
X47215744Y-38179999D01*
X47204680Y-38185913D01*
X47092762Y-38277762D01*
X47069746Y-38305807D01*
X46882022Y-38493532D01*
X46841582Y-38471916D01*
X46693745Y-38427071D01*
X46540000Y-38411928D01*
X46505649Y-38411928D01*
X46518522Y-38392663D01*
X46583351Y-38236153D01*
X46616400Y-38070003D01*
X46616400Y-37923900D01*
X49540000Y-37923900D01*
X49540000Y-37977002D01*
G04 #@! TA.AperFunction,Conductor*
D19*
G36*
X49540000Y-37977002D02*
G01*
X49698748Y-37977002D01*
X49610750Y-38065000D01*
X47651105Y-38065000D01*
X47615000Y-38061444D01*
X47470915Y-38075635D01*
X47332366Y-38117663D01*
X47215744Y-38179999D01*
X47204680Y-38185913D01*
X47092762Y-38277762D01*
X47069746Y-38305807D01*
X46882022Y-38493532D01*
X46841582Y-38471916D01*
X46693745Y-38427071D01*
X46540000Y-38411928D01*
X46505649Y-38411928D01*
X46518522Y-38392663D01*
X46583351Y-38236153D01*
X46616400Y-38070003D01*
X46616400Y-37923900D01*
X49540000Y-37923900D01*
X49540000Y-37977002D01*
G37*
G04 #@! TD.AperFunction*
D18*
X56574538Y-38413984D02*
X56565000Y-38411928D01*
X56440518Y-38424188D01*
X56320820Y-38460498D01*
X56292261Y-38475764D01*
X56277337Y-38426567D01*
X56209087Y-38298880D01*
X56117238Y-38186962D01*
X56089187Y-38163941D01*
X55716559Y-37791313D01*
X55693538Y-37763262D01*
X55655689Y-37732200D01*
X55892754Y-37732200D01*
X56574538Y-38413984D01*
G04 #@! TA.AperFunction,Conductor*
D19*
G36*
X56574538Y-38413984D02*
G01*
X56565000Y-38411928D01*
X56440518Y-38424188D01*
X56320820Y-38460498D01*
X56292261Y-38475764D01*
X56277337Y-38426567D01*
X56209087Y-38298880D01*
X56117238Y-38186962D01*
X56089187Y-38163941D01*
X55716559Y-37791313D01*
X55693538Y-37763262D01*
X55655689Y-37732200D01*
X55892754Y-37732200D01*
X56574538Y-38413984D01*
G37*
G04 #@! TD.AperFunction*
D18*
X51047000Y-37977000D02*
X51027000Y-37977000D01*
X51027000Y-37997000D01*
X50773000Y-37997000D01*
X50773000Y-37977000D01*
X50753000Y-37977000D01*
X50753000Y-37732200D01*
X51047000Y-37732200D01*
X51047000Y-37977000D01*
G04 #@! TA.AperFunction,Conductor*
D19*
G36*
X51047000Y-37977000D02*
G01*
X51027000Y-37977000D01*
X51027000Y-37997000D01*
X50773000Y-37997000D01*
X50773000Y-37977000D01*
X50753000Y-37977000D01*
X50753000Y-37732200D01*
X51047000Y-37732200D01*
X51047000Y-37977000D01*
G37*
G04 #@! TD.AperFunction*
D18*
X52297662Y-37763262D02*
X52274646Y-37791308D01*
X52260000Y-37805954D01*
X52260000Y-37732200D01*
X52335511Y-37732200D01*
X52297662Y-37763262D01*
G04 #@! TA.AperFunction,Conductor*
D19*
G36*
X52297662Y-37763262D02*
G01*
X52274646Y-37791308D01*
X52260000Y-37805954D01*
X52260000Y-37732200D01*
X52335511Y-37732200D01*
X52297662Y-37763262D01*
G37*
G04 #@! TD.AperFunction*
D18*
X38203746Y-24523193D02*
X38226762Y-24551238D01*
X38254806Y-24574253D01*
X38338680Y-24643087D01*
X38466366Y-24711337D01*
X38604915Y-24753365D01*
X38749000Y-24767556D01*
X38785105Y-24764000D01*
X56228446Y-24764000D01*
X56269037Y-24791122D01*
X56425547Y-24855951D01*
X56591697Y-24889000D01*
X56761103Y-24889000D01*
X56927253Y-24855951D01*
X57083763Y-24791122D01*
X57224618Y-24697005D01*
X57344405Y-24577218D01*
X57438522Y-24436363D01*
X57503351Y-24279853D01*
X57511537Y-24238700D01*
X73655558Y-24238700D01*
X73691082Y-24324463D01*
X73870013Y-24592252D01*
X74097748Y-24819987D01*
X74097767Y-24820000D01*
X74097748Y-24820013D01*
X73870013Y-25047748D01*
X73691082Y-25315537D01*
X73567832Y-25613088D01*
X73505000Y-25928967D01*
X73505000Y-26251033D01*
X73567832Y-26566912D01*
X73691082Y-26864463D01*
X73870013Y-27132252D01*
X74097748Y-27359987D01*
X74097767Y-27360000D01*
X74097748Y-27360013D01*
X73870013Y-27587748D01*
X73691082Y-27855537D01*
X73567832Y-28153088D01*
X73505000Y-28468967D01*
X73505000Y-28791033D01*
X73567832Y-29106912D01*
X73691082Y-29404463D01*
X73870013Y-29672252D01*
X74097748Y-29899987D01*
X74097767Y-29900000D01*
X74097748Y-29900013D01*
X73870013Y-30127748D01*
X73691082Y-30395537D01*
X73567832Y-30693088D01*
X73505000Y-31008967D01*
X73505000Y-31331033D01*
X73567832Y-31646912D01*
X73584178Y-31686375D01*
X71474654Y-33795900D01*
X50805194Y-33795900D01*
X50769099Y-33792345D01*
X50733004Y-33795900D01*
X50732995Y-33795900D01*
X50625015Y-33806535D01*
X50486467Y-33848563D01*
X50358780Y-33916813D01*
X50246862Y-34008662D01*
X50223841Y-34036713D01*
X50117029Y-34143525D01*
X50069147Y-34153049D01*
X49912637Y-34217878D01*
X49771782Y-34311995D01*
X49651995Y-34431782D01*
X49557878Y-34572637D01*
X49493049Y-34729147D01*
X49460000Y-34895297D01*
X49460000Y-35064703D01*
X49482256Y-35176590D01*
X49042028Y-35176590D01*
X49001437Y-35149468D01*
X48844927Y-35084639D01*
X48678777Y-35051590D01*
X48509371Y-35051590D01*
X48343221Y-35084639D01*
X48186711Y-35149468D01*
X48045856Y-35243585D01*
X47926069Y-35363372D01*
X47831952Y-35504227D01*
X47767123Y-35660737D01*
X47758995Y-35701600D01*
X46291754Y-35701600D01*
X46251163Y-35674478D01*
X46094653Y-35609649D01*
X46046772Y-35600125D01*
X36935000Y-26488354D01*
X36935000Y-24246300D01*
X37084703Y-24246300D01*
X37250853Y-24213251D01*
X37407363Y-24148422D01*
X37548218Y-24054305D01*
X37641538Y-23960985D01*
X38203746Y-24523193D01*
G04 #@! TA.AperFunction,Conductor*
D19*
G36*
X38203746Y-24523193D02*
G01*
X38226762Y-24551238D01*
X38254806Y-24574253D01*
X38338680Y-24643087D01*
X38466366Y-24711337D01*
X38604915Y-24753365D01*
X38749000Y-24767556D01*
X38785105Y-24764000D01*
X56228446Y-24764000D01*
X56269037Y-24791122D01*
X56425547Y-24855951D01*
X56591697Y-24889000D01*
X56761103Y-24889000D01*
X56927253Y-24855951D01*
X57083763Y-24791122D01*
X57224618Y-24697005D01*
X57344405Y-24577218D01*
X57438522Y-24436363D01*
X57503351Y-24279853D01*
X57511537Y-24238700D01*
X73655558Y-24238700D01*
X73691082Y-24324463D01*
X73870013Y-24592252D01*
X74097748Y-24819987D01*
X74097767Y-24820000D01*
X74097748Y-24820013D01*
X73870013Y-25047748D01*
X73691082Y-25315537D01*
X73567832Y-25613088D01*
X73505000Y-25928967D01*
X73505000Y-26251033D01*
X73567832Y-26566912D01*
X73691082Y-26864463D01*
X73870013Y-27132252D01*
X74097748Y-27359987D01*
X74097767Y-27360000D01*
X74097748Y-27360013D01*
X73870013Y-27587748D01*
X73691082Y-27855537D01*
X73567832Y-28153088D01*
X73505000Y-28468967D01*
X73505000Y-28791033D01*
X73567832Y-29106912D01*
X73691082Y-29404463D01*
X73870013Y-29672252D01*
X74097748Y-29899987D01*
X74097767Y-29900000D01*
X74097748Y-29900013D01*
X73870013Y-30127748D01*
X73691082Y-30395537D01*
X73567832Y-30693088D01*
X73505000Y-31008967D01*
X73505000Y-31331033D01*
X73567832Y-31646912D01*
X73584178Y-31686375D01*
X71474654Y-33795900D01*
X50805194Y-33795900D01*
X50769099Y-33792345D01*
X50733004Y-33795900D01*
X50732995Y-33795900D01*
X50625015Y-33806535D01*
X50486467Y-33848563D01*
X50358780Y-33916813D01*
X50246862Y-34008662D01*
X50223841Y-34036713D01*
X50117029Y-34143525D01*
X50069147Y-34153049D01*
X49912637Y-34217878D01*
X49771782Y-34311995D01*
X49651995Y-34431782D01*
X49557878Y-34572637D01*
X49493049Y-34729147D01*
X49460000Y-34895297D01*
X49460000Y-35064703D01*
X49482256Y-35176590D01*
X49042028Y-35176590D01*
X49001437Y-35149468D01*
X48844927Y-35084639D01*
X48678777Y-35051590D01*
X48509371Y-35051590D01*
X48343221Y-35084639D01*
X48186711Y-35149468D01*
X48045856Y-35243585D01*
X47926069Y-35363372D01*
X47831952Y-35504227D01*
X47767123Y-35660737D01*
X47758995Y-35701600D01*
X46291754Y-35701600D01*
X46251163Y-35674478D01*
X46094653Y-35609649D01*
X46046772Y-35600125D01*
X36935000Y-26488354D01*
X36935000Y-24246300D01*
X37084703Y-24246300D01*
X37250853Y-24213251D01*
X37407363Y-24148422D01*
X37548218Y-24054305D01*
X37641538Y-23960985D01*
X38203746Y-24523193D01*
G37*
G04 #@! TD.AperFunction*
M02*
